<svg xmlns="http://www.w3.org/2000/svg" xmlns:xlink="http://www.w3.org/1999/xlink" fill="none" version="1.1"
  width="824.9569702148438" height="150.48500061035156" viewBox="0 0 824.9569702148438 150.48500061035156">
  <defs>
    <clipPath id="master_svg0_3197_31300">
      <rect x="0" y="0" width="824.9569702148438" height="150.48500061035156" rx="0" />
    </clipPath>
  </defs>
  <g clip-path="url(#master_svg0_3197_31300)">
    <g>
      <g>
        <path
          d="M732.9570073242187,94.0189719696045C735.4529073242188,88.0319719696045,737.7250073242187,82.58897196960449,739.9919073242188,77.1439719696045C747.2295073242187,59.75397196960449,754.4405073242187,42.35197196960449,761.7115073242187,24.975971969604494C765.3825073242188,16.200971969604492,771.1175073242188,9.245001969604491,779.8745073242187,5.100001969604492C783.8915073242188,3.1990019696044922,788.1375073242187,2.070998469604492,792.5965073242187,2.048998369604492C802.9945073242187,1.996998309604492,813.3925073242187,2.0279984696044924,823.7905073242188,2.028998369604492C824.1035073242188,2.028998369604492,824.4165073242187,2.072998269604492,824.6155073242187,2.087998369604492C825.0655073242187,2.3869979696044923,824.9565073242188,2.737998969604492,824.9095073242188,3.016001969604492C822.9495073242188,14.660971969604493,820.9745073242187,26.303971969604493,819.0045073242188,37.947971969604495C816.8345073242187,50.77197196960449,814.6655073242188,63.59697196960449,812.4975073242188,76.4209719696045C810.5155073242188,88.1439719696045,808.5365073242187,99.86697196960449,806.5535073242188,111.58897196960449C804.7035073242188,122.5249719696045,802.8495073242187,133.45997196960448,800.9995073242187,144.3959719696045C800.7865073242187,145.6549719696045,800.6735073242187,146.9379719696045,800.3685073242187,148.1729719696045C799.7705073242188,150.59097196960448,800.5085073242187,150.4439719696045,797.7085073242188,150.45397196960448C792.1895073242188,150.4739719696045,786.6705073242188,150.45997196960448,781.1515073242188,150.45997196960448C777.5525073242187,150.45997196960448,773.9525073242187,150.4739719696045,770.3535073242188,150.4529719696045C768.3595073242187,150.4409719696045,768.3585073242187,150.4149719696045,768.6795073242188,148.48397196960448C772.0615073242187,128.1769719696045,775.4435073242188,107.86997196960449,778.8265073242187,87.5639719696045C781.0555073242188,74.18497196960449,783.2905073242188,60.80697196960449,785.5105073242187,47.426971969604494C785.5825073242188,46.99297196960449,785.5195073242187,46.536971969604494,785.5195073242187,46.005971969604495C784.7385073242187,46.55297196960449,784.5545073242188,47.36397196960449,784.2165073242188,48.054971969604495C771.5225073242187,74.0129719696045,758.8265073242187,99.96997196960449,746.1915073242187,125.9569719696045C745.4475073242188,127.48597196960449,744.5669073242187,127.9689719696045,742.9109073242188,127.95597196960449C733.3129073242187,127.87897196960449,723.7149073242188,127.9209719696045,714.1169073242188,127.9159719696045C711.8449073242188,127.9149719696045,711.8209073242188,127.9069719696045,711.3779073242188,125.6679719696045C707.7959073242188,107.58697196960449,704.2239073242188,89.50397196960449,700.6479073242187,71.4209719696045C699.0379073242187,63.280971969604494,697.4259073242188,55.14097196960449,695.8139073242187,47.00197196960449C695.7219073242187,46.53497196960449,695.6469073242188,46.060971969604495,695.0879073242188,45.539971969604494C694.3769073242188,49.51897196960449,693.6819073242187,53.36097196960449,693.0029073242188,57.20597196960449C690.6589073242187,70.48497196960449,688.3179073242187,83.7639719696045,685.9809073242187,97.04497196960449C683.6719073242188,110.1679719696045,681.3719073242188,123.2929719696045,679.0639073242187,136.4169719696045C678.3319073242187,140.5819719696045,677.5439073242187,144.7369719696045,676.8789073242187,148.91197196960448C676.6889073242188,150.1009719696045,676.2229073242188,150.4849719696045,675.0359073242188,150.4799719696045C665.5979073242188,150.4409719696045,656.1599073242187,150.4679719696045,646.7208873242188,150.4499719696045C644.9928593242188,150.4469719696045,644.9808963242187,150.3919719696045,645.2799073242187,148.6939719696045C648.6558873242187,129.5199719696045,652.0419273242187,110.34797196960449,655.4119073242188,91.17297196960449C658.2009073242187,75.29797196960449,660.9619073242187,59.417971969604494,663.7529073242188,43.54397196960449C666.1019073242187,30.184971969604494,668.4929073242188,16.832971969604493,670.8090073242188,3.4679919696044923C670.9990073242187,2.373986969604492,671.3480073242188,1.9839870896044922,672.4609073242187,2.0079870696044924C681.3319073242187,2.1999869696044922,690.2169073242187,1.6059869696044922,699.0749073242188,2.516986969604492C702.3429073242188,2.8529869696044923,705.5599073242188,3.458991969604492,708.6719073242188,4.5189919696044925C717.9509073242187,7.680991969604492,722.9879073242188,14.233971969604493,724.1549073242188,23.893971969604493C725.5429073242187,35.38497196960449,726.9819073242188,46.86997196960449,728.3799073242187,58.359971969604494C729.5749073242188,68.1859719696045,730.7199073242188,78.0189719696045,731.9459073242188,87.8409719696045C732.1790073242188,89.71397196960449,732.1900073242188,91.63997196960449,732.9570073242187,94.0189719696045Z"
          fill="currentColor" fill-opacity="1" />
      </g>
      <g>
        <path
          d="M181.3979949951172,149.85609494018556C182.5670049951172,143.02909494018556,183.75399499511718,136.11409494018554,184.93699499511717,129.19709494018554C187.0889849951172,116.61209494018554,189.2399949951172,104.02609494018554,191.38999499511718,91.44099494018555C193.53999499511718,78.85499494018555,195.68699499511717,66.26899494018555,197.8399949951172,53.682994940185544C199.8449949951172,41.962994940185546,201.84899499511718,30.242994940185547,203.86699499511718,18.525994940185548C204.6659949951172,13.885994940185547,205.5079949951172,9.254004940185547,206.31899499511718,4.616004940185547C206.71199499511718,2.368008840185547,206.70099499511718,2.354008670185547,209.0059949951172,2.353008750185547C230.3639949951172,2.350008730185547,251.7219949951172,2.3410086601855467,273.0799949951172,2.359008740185547C277.3979949951172,2.363008740185547,281.7249949951172,2.3260088401855468,286.03399499511715,2.5590089401855467C294.0319949951172,2.9900089401855467,301.9679949951172,3.9300049401855466,309.5269949951172,6.799004940185547C321.3689949951172,11.295004940185548,327.7349949951172,20.122994940185546,328.65899499511715,32.520994940185545C329.6859949951172,46.304994940185544,325.70699499511716,58.904994940185546,317.8189949951172,70.20799494018554C312.7129949951172,77.52399494018555,305.5219949951172,82.17899494018555,297.3139949951172,85.39199494018554C296.4339949951172,85.73599494018555,295.4599949951172,85.87699494018554,294.5439949951172,86.64199494018554C295.9549949951172,87.31799494018554,297.2509949951172,87.98999494018555,298.5879949951172,88.56899494018555C305.8239949951172,91.70599494018555,309.8569949951172,97.40399494018554,311.9149949951172,104.82109494018555C313.6139949951172,110.94209494018554,313.6079949951172,117.13409494018555,313.1139949951172,123.36909494018555C312.45699499511716,131.65009494018554,311.3329949951172,139.88009494018556,310.35299499511723,148.12609494018554C310.0779949951172,150.44209494018554,310.0859949951172,150.45509494018555,307.77399499511716,150.45609494018555C298.1749949951172,150.46109494018555,288.5759949951172,150.45809494018556,278.9769949951172,150.45809494018556C278.4969949951172,150.45809494018556,278.0169949951172,150.45109494018556,277.5369949951172,150.44509494018556C276.6949949951172,150.43509494018554,276.4459949951172,149.98909494018554,276.5499949951172,149.19909494018555C276.7489949951172,147.69509494018556,276.88499499511715,146.18309494018555,277.0839949951172,144.67909494018554C278.1999949951172,136.20209494018556,279.23099499511716,127.71609494018554,279.14899499511716,119.14709494018555C279.1179949951172,115.86809494018554,278.7859949951172,112.60409494018555,277.7969949951172,109.45109494018554C275.7729949951172,102.99709494018555,271.6409949951172,98.57499494018555,265.1739949951172,96.38399494018554C259.8010949951172,94.56399494018555,254.24609499511718,94.09299494018555,248.6299949951172,94.06499494018554C243.5109949951172,94.03999494018555,238.39099499511718,94.06599494018555,233.27199499511718,94.05099494018555C232.4819949951172,94.04899494018555,231.6739949951172,94.19099494018555,230.7669949951172,93.84999494018555C230.9789949951172,91.01699494018554,231.8109949951172,88.27099494018555,232.34899499511718,85.48099494018555C233.3619949951172,80.23199494018554,234.5119949951172,75.00999494018555,235.60299499511717,69.77599494018554C236.0189949951172,67.78099494018555,236.01499499511718,67.76499494018555,238.0129949951172,67.76399494018554C248.6519949951172,67.75799494018554,259.2909949951172,67.75399494018555,269.92999499511717,67.76399494018554C272.8999949951172,67.76699494018554,275.8279949951172,67.47199494018555,278.7339949951172,66.83899494018554C284.1379949951172,65.66199494018554,288.1939949951172,62.64799494018555,290.8519949951172,57.84899494018555C293.8689949951172,52.40099494018555,295.1449949951172,46.51899494018555,294.6129949951172,40.30699494018555C294.1529949951172,34.929994940185544,290.3869949951172,30.943994940185547,284.9479949951172,29.81999494018555C282.1089949951172,29.232994940185545,279.2269949951172,29.140994940185546,276.3539949951172,29.131994940185546C262.6749949951172,29.088994940185547,248.9959949951172,29.108994940185546,235.31699499511717,29.114994940185547C233.2389949951172,29.115994940185548,233.20699499511718,29.129994940185547,232.8389949951172,31.29399494018555C231.1669949951172,41.12899494018555,229.52099499511718,50.96799494018555,227.85299499511717,60.80299494018555C225.7049949951172,73.46899494018555,223.5439949951172,86.13399494018554,221.38899499511717,98.79899494018555C219.3949949951172,110.52109494018555,217.3979949951172,122.24209494018555,215.40799499511718,133.96509494018554C214.5799949951172,138.84309494018555,213.73999499511717,143.71909494018556,212.96099499511718,148.60409494018555C212.7849949951172,149.71109494018555,212.4659949951172,150.26309494018554,211.17599499511718,150.25509494018556C201.6569949951172,150.20109494018556,192.1379949951172,150.22509494018556,182.6189849951172,150.22109494018554C182.22300699511717,150.22309494018555,181.81399499511718,150.25709494018554,181.3979949951172,149.85609494018556Z"
          fill="currentColor" fill-opacity="1" />
      </g>
      <g>
        <path
          d="M371.04202895507814,98.2300313053131C372.02002895507815,93.12503130531312,373.00602895507814,87.96903130531311,373.99692895507815,82.8130313053131C374.56892895507815,79.83503130531311,375.14592895507815,76.85903130531311,375.72792895507814,73.88303130531311C376.06602895507814,72.1530313053131,376.07192895507814,72.12803130531312,377.88502895507816,72.1260313053131C387.4030289550781,72.11603130531311,396.9210289550781,72.12503130531312,406.43992895507813,72.1200313053131C410.35792895507814,72.11803130531311,414.2529289550781,72.02403130531312,418.1289289550781,71.2300313053131C423.22792895507814,70.18603130531311,427.13442895507814,67.48703130531311,429.7144289550781,63.06603130531311C433.9334289550781,55.83503130531311,435.9094289550781,48.01703130531311,434.7574289550781,39.64003130531311C433.98542895507813,34.02303130531311,430.1434289550781,30.35303130531311,424.5554289550781,29.33503130531311C422.26192895507813,28.91703130531311,419.95192895507813,28.788031305313112,417.63192895507814,28.78703130531311C403.9549289550781,28.78103130531311,390.2769289550781,28.78103130531311,376.5999289550781,28.78503130531311C374.52892895507813,28.78603130531311,374.4929289550781,28.79303130531311,374.1279289550781,30.91103130531311C372.2409289550781,41.83703130531311,370.3679289550781,52.76603130531311,368.5029289550781,63.69603130531311C366.5029289550781,75.41403130531312,364.5179289550781,87.13403130531312,362.52392895507813,98.85303130531311C360.51592895507815,110.6525313053131,358.49992895507813,122.4505313053131,356.4939289550781,134.2505313053131C355.66492895507815,139.12853130531312,354.8329289550781,144.0065313053131,354.04292895507814,148.89053130531312C353.8589289550781,150.02853130531312,353.39092895507815,150.4905313053131,352.1589289550781,150.4835313053131C343.04092895507813,150.43353130531312,333.92292895507813,150.4655313053131,324.80395895507814,150.4465313053131C323.3109435550781,150.44353130531312,323.2079469550781,150.30753130531312,323.4719539550781,148.7255313053131C324.30096395507815,143.7675313053131,325.1769389550781,138.8175313053131,326.0239589550781,133.8625313053131C328.0269489550781,122.1435313053131,330.01995895507815,110.42253130531311,332.0229489550781,98.70403130531311C334.03992895507815,86.9060313053131,336.06892895507815,75.1110313053131,338.08392895507814,63.31203130531311C340.07192895507814,51.67103130531311,342.0519289550781,40.028031305313114,344.02892895507813,28.38503130531311C345.36492895507814,20.51803130531311,346.68192895507815,12.64703130531311,348.0249289550781,4.78101130531311C348.4089289550781,2.5330133053131103,348.4379289550781,2.53401330531311,350.68892895507815,2.5280133053131104C365.4859289550781,2.4850133053131103,380.2819289550781,2.40001340531311,395.0790289550781,2.4150133053131104C406.7549289550781,2.4270133053131104,418.43402895507813,2.10701330531311,430.1084289550781,2.5360133053131104C434.74242895507814,2.7060133053131104,439.36742895507814,3.1170133053131104,443.8944289550781,4.19101130531311C454.0804289550781,6.60801130531311,460.8544289550781,13.03103130531311,465.0194289550781,22.41403130531311C468.75942895507814,30.83903130531311,469.54542895507814,39.67203130531311,468.2244289550781,48.69803130531311C466.5244289550781,60.30703130531311,462.15042895507816,70.84403130531311,454.8014289550781,80.0310313053131C448.2964289550781,88.16303130531311,440.18242895507814,94.06003130531312,429.9884289550781,96.7450313053131C423.9914289550781,98.3250313053131,417.82692895507813,98.54703130531311,411.6610289550781,98.55503130531311C398.7830289550781,98.57303130531311,385.90592895507814,98.56403130531311,373.0280289550781,98.55603130531311C372.4010289550781,98.55703130531312,371.7420289550781,98.69903130531311,371.04202895507814,98.2300313053131Z"
          fill="currentColor" fill-opacity="1" />
      </g>
      <g>
        <path
          d="M615.8502827148437,38.04095122070313C618.0702827148438,43.43195122070313,620.1562827148438,48.86695122070312,621.1782827148438,54.63895122070313C621.4562827148437,56.209951220703125,621.6852827148438,57.792951220703124,621.8452827148437,59.37995122070313C622.1852827148438,62.75695122070312,620.9262827148438,65.43395122070312,618.2602827148437,67.53705122070312C614.4232827148437,70.56305122070313,610.3822827148438,73.27895122070312,606.1452827148437,75.70405122070312C599.8272827148437,79.31895122070313,593.2472827148438,82.39605122070313,586.4922827148438,85.10405122070313C585.9302827148438,85.32905122070312,585.3832827148437,85.79205122070313,584.6882827148438,85.31405122070312C584.7832827148437,85.10005122070312,584.8212827148437,84.82205122070313,584.9802827148437,84.68605122070312C589.2062827148437,81.08505122070312,590.7252827148437,76.14505122070312,591.6632827148437,70.97305122070313C593.0012827148438,63.593051220703124,592.7222827148437,56.17005122070312,591.9082827148437,48.760051220703126C591.7292827148437,47.12805122070313,591.9302827148438,45.39905122070312,591.0812827148437,43.873051220703125C589.9052827148438,43.94505122070313,589.3092827148438,44.684051220703125,588.8552827148437,45.55505122070313C588.3382827148438,46.54505122070312,587.8432827148438,47.54905122070313,587.4072827148437,48.57605122070313C586.5032827148437,50.708051220703126,585.7212827148437,52.89905122070312,583.5582827148437,54.18305122070313C583.2082827148438,54.391051220703126,583.0332827148437,54.89305122070313,582.7932827148437,55.236051220703125C582.2682827148437,55.108051220703125,582.1352827148437,54.70105122070313,581.9262827148438,54.37105122070312C577.1012827148437,46.75605122070313,570.1158827148438,42.190051220703126,561.5017827148438,39.931051220703125C560.5237827148437,39.67405122070313,559.8117827148437,39.370051220703125,559.0907827148437,38.41805122070313C557.9808827148438,36.953051220703124,555.9767827148437,36.517051220703124,554.1747827148438,36.19705122070312C550.7827827148437,35.596051220703124,547.4837827148438,36.047051220703125,544.3697827148437,37.586051220703126C544.0167827148438,37.76105122070312,543.4527827148438,37.95005122070312,543.3987827148437,38.21705122070313C543.0467827148437,39.937051220703125,541.5847827148438,39.748051220703125,540.4177827148437,40.06005122070312C531.9427827148437,42.32505122070312,524.6547827148438,46.55105122070312,518.7547827148437,53.09105122070312C517.0407827148438,54.99105122070313,515.3457827148437,54.63705122070313,514.3496827148438,52.184051220703125C513.6227827148438,50.392051220703124,513.4477827148437,48.46605122070312,513.0187827148437,46.60195122070313C512.8376827148437,45.81605122070312,512.6557827148438,45.03395122070312,512.1177827148438,44.41595122070313C511.45578271484374,43.654951220703126,510.6777827148438,43.74605122070312,510.20778271484374,44.65095122070313C509.9526827148438,45.142051220703124,509.80878271484374,45.69295122070312,509.64078271484374,46.22605122070313C507.57978271484376,52.785051220703124,505.78378271484377,59.41405122070312,505.0117827148438,66.26005122070312C504.5547827148437,70.31005122070313,504.39478271484376,74.39095122070313,505.3267827148438,78.42405122070312C505.81878271484373,80.55205122070312,506.58078271484374,82.56005122070313,508.1367827148438,84.15505122070313C508.72878271484376,84.76205122070313,508.98178271484375,85.43805122070313,509.14078271484374,86.25705122070312C510.32378271484373,92.36505122070312,513.1277827148438,97.50505122070312,518.2506827148437,101.22825122070313C518.5086827148438,101.41525122070313,518.7687827148437,101.60925122070313,518.9867827148438,101.83925122070312C519.3576827148438,102.23025122070312,519.9107827148438,102.57725122070312,519.6307827148437,103.24625122070313C519.4026827148438,103.79025122070313,518.8426827148437,103.68625122070313,518.3907827148438,103.77625122070313C512.0426827148437,105.04125122070313,505.65178271484376,106.05525122070313,499.2567827148438,107.04325122070313C495.3097827148438,107.65225122070312,491.33578271484373,108.10225122070312,487.40278271484374,108.78925122070312C484.22275271484375,109.34525122070312,481.7577527148438,108.40625122070313,479.81375271484376,105.88325122070313C478.12475271484374,103.69125122070312,477.03174271484374,101.21925122070313,476.4487627148437,98.54195122070313C474.59576371484377,90.03095122070313,474.32174671484375,81.45995122070312,475.43676771484377,72.81895122070313C477.63977271484373,55.75905122070313,484.5057727148438,40.791951220703126,495.82078271484374,27.914051220703126C508.06978271484377,13.973051220703125,523.1857827148438,4.564001220703125,541.5647827148438,1.315001220703125C566.3127827148437,-3.059998779296875,587.7852827148438,3.401001220703125,605.1362827148438,22.065951220703123C605.5172827148438,22.474951220703126,605.9232827148437,22.860951220703125,606.3162827148437,23.256951220703126C607.5522827148437,23.717951220703124,608.4742827148438,24.537951220703125,609.2452827148437,25.608951220703126C611.3912827148438,28.589951220703124,613.4352827148438,31.631951220703126,615.1362827148438,34.889951220703125C615.6432827148437,35.86095122070312,616.3052827148438,36.83395122070313,615.8502827148437,38.04095122070313Z"
          fill="currentColor" fill-opacity="1" />
      </g>
      <g>
        <path
          d="M172.94669869995118,2.4960003390197754C172.54669869995118,3.413997339019775,171.9006986999512,3.7689973390197755,171.37969869995118,4.226997339019776C146.83499869995117,25.835987339019777,122.28299869995118,47.435987339019775,97.72999869995118,69.03598733901977C96.95099869995117,69.72098733901977,96.11999869995117,70.35198733901977,95.38299869995117,71.07998733901978C92.96699869995118,73.46798733901977,92.73899869995117,75.52698733901977,94.64499869995117,78.31998733901978C98.47599869995116,83.93398733901978,102.69699869995117,89.25898733901978,106.92299869995117,94.57598733901978C121.29799869995117,112.66198733901977,136.11799869995116,130.3819873390198,150.96869869995118,148.07698733901978C151.46169869995117,148.66498733901977,151.92569869995117,149.27598733901976,152.68269869995117,150.22898733901977C151.58869869995118,150.22898733901977,150.90269869995117,150.22898733901977,150.21699869995118,150.22898733901977C136.4579986999512,150.22898733901977,122.69899869995118,150.20098733901978,108.94099869995117,150.26598733901977C107.33799869995117,150.27398733901978,106.33099869995118,149.76998733901976,105.32799869995117,148.53998733901977C87.65599869995117,126.85298733901978,69.98699869995117,105.16198733901977,52.17600869995117,83.58898733901978C49.577010699951174,80.44098733901977,49.80900969995117,75.82698733901978,51.57500869995117,73.12598733901977C52.28100869995117,72.04698733901978,53.14100869995117,71.10998733901978,54.09200869995117,70.24498733901977C78.51599869995117,48.01998733901978,102.93799869995118,25.795987339019774,127.34999869995117,3.5609973390197753C128.13699869995116,2.8440003390197752,128.8809986999512,2.3229999590197754,130.05699869995118,2.3260002136197753C144.05599869995118,2.3680002390197754,158.05369869995116,2.3540003390197755,172.05269869995118,2.3600001390197756C172.2876986999512,2.361000039019775,172.52169869995117,2.4300003390197755,172.94669869995118,2.4960003390197754Z"
          fill="currentColor" fill-opacity="1" />
      </g>
      <g>
        <path
          d="M0,149.92604553222657C0.271,147.75604553222655,0.603,145.70604553222657,0.755,143.64204553222658C0.843,142.44204553222656,1.225,141.98904553222656,2.483,142.05504553222656C5.038,142.18904553222657,7.585,142.06204553222656,10.128,141.64104553222657C15.276,140.78904553222657,18.646,137.91904553222656,20.365,133.02704553222657C21.833,128.84804553222656,22.309,124.47904553222656,22.861,120.12704553222656C24.358,108.33004553222656,25.625,96.49994553222656,27.372,84.73994553222656C28.895,74.48594553222657,30.955,64.31194553222656,32.765,54.09994553222656C33.865,47.89394553222656,34.935,41.68294553222656,36.03,35.476945532226566C36.341,33.71594553222656,36.289,31.95594553222656,35.85,30.24394553222656C35.119,27.390945532226564,33.41,25.497945532226563,30.392,24.877945532226562C28.659,24.521945532226564,26.917,24.506945532226563,24.883,24.503945532226563C25.219,21.639945532226562,25.544,18.913945532226563,25.857,16.18594553222656C25.965,15.246945532226562,26.674,15.369945532226563,27.296,15.355945532226562C29.786,15.299945532226563,32.214,14.814945532226563,34.64,14.313945532226562C41.675,12.860945532226562,47.558,9.298985532226563,52.574,4.287985532226562C53.991,2.8729895322265624,55.414,2.2499895322265626,57.419,2.3099894522265627C61.893,2.4439895322265626,66.374,2.3359894322265626,70.852,2.3599894322265627C73.346,2.3729894322265626,74.08,3.0739895322265625,73.809,5.536985532226563C73.338,9.819985532226562,72.71,14.084945532226563,72.137,18.35694553222656C70.927,27.37194553222656,69.661,36.38094553222656,68.528,45.40594553222656C68.24,47.70194553222656,67.554,49.53594553222656,65.817,51.229945532226566C59.35,57.53394553222656,53.049,64.00894553222656,46.695,70.42794553222656C42.843,74.31894553222656,42.212,79.06004553222657,45.102,83.70494553222656C48.181,88.65294553222657,51.372,93.53304553222657,54.598,98.38794553222657C55.403,99.59994553222656,55.708,100.75804553222656,55.518,102.18894553222657C54.476,110.02004553222656,53.519,117.86204553222656,52.467,125.69104553222657C52.2,127.67704553222656,52.098,129.66704553222655,52.004,131.65904553222657C51.814,135.67404553222656,53.737,138.53404553222657,57.109,140.48004553222657C59.009,141.57604553222657,61.122,142.03604553222655,63.316,142.06204553222656C64.915,142.08104553222657,66.516,142.09304553222657,68.114,142.04604553222657C69.135,142.01604553222657,69.638,142.42604553222657,69.528,143.45004553222657C69.323,145.35404553222656,69.088,147.25504553222657,68.86,149.15704553222656C68.766,149.94004553222655,68.293,150.23704553222657,67.534,150.17604553222657C67.216,150.15104553222656,66.895,150.17404553222656,66.575,150.17404553222656C45.144,150.19204553222656,23.713,150.21104553222656,2.28101,150.21904553222657C1.576,150.22004553222655,0.842,150.38004553222657,0,149.92604553222657Z"
          fill="currentColor" fill-opacity="1" />
      </g>
      <g>
        <path
          d="M543.0499661132812,150.44101813964843C531.0079661132812,150.40101813964844,520.4669661132813,148.50001813964843,510.52996611328126,143.81501813964843C502.75096611328127,140.14701813964842,496.0799861132812,135.02001813964844,490.61599611328126,128.36701813964845C489.83898911328123,127.42101813964844,488.52798511328126,126.47301813964845,489.21600311328126,125.07501813964844C489.8250121132813,123.83801813964844,491.32598611328126,124.11301813964843,492.48000611328126,124.04401813964844C496.71002611328123,123.79001813964844,500.94796611328127,123.72401813964844,505.1829661132812,123.52701813964843C517.6689661132813,122.94801813964844,530.0049661132813,121.20301813964844,542.2720661132812,118.94501813964844C561.0030661132812,115.49701813964845,579.3340661132812,110.56301813964843,597.1447661132812,103.77198813964844C602.5177661132813,101.72298813964844,607.8247661132813,99.51798813964844,613.0317661132813,97.07398813964843C614.1137661132813,96.56598613964844,615.2257661132812,96.09499313964844,616.3667661132813,95.74999233964844C617.4197661132812,95.43099213964844,617.9247661132813,95.90299213964843,617.7507661132813,96.95698813964843C617.6487661132812,97.57899813964843,617.4187661132812,98.19199813964843,617.1737661132813,98.77898813964843C605.5747661132813,126.66101813964843,585.0279661132813,143.61201813964843,555.2980661132813,149.35101813964843C550.8809661132813,150.20201813964843,546.4099661132813,150.35001813964845,543.0499661132812,150.44101813964843Z"
          fill="currentColor" fill-opacity="1" />
      </g>
      <g>
        <path
          d="M615.8500034179688,38.04097481079101C613.1640034179687,32.79600481079102,610.0450034179687,27.829004810791016,606.3150034179687,23.256000510791015C617.8540034179688,22.951999810791015,629.1210034179687,24.305994810791017,639.8640034179688,28.802004810791015C642.4560034179688,29.887004810791016,644.8650034179688,31.302994810791013,647.0900034179688,33.021994810791014C655.2340034179688,39.31597481079102,657.5980034179688,48.926974810791016,653.3230034179687,58.27897481079101C651.2000034179688,62.923974810791016,648.1070034179687,66.87097481079101,644.5390034179687,70.46797481079102C637.8420034179687,77.220974810791,630.0680034179687,82.52997481079102,621.8390034179688,87.20697481079102C609.4250034179688,94.26297481079102,596.2000034179688,99.45097481079101,582.6940034179688,103.95697481079101C565.6900034179687,109.62897481079102,548.2930034179687,113.68097481079101,530.6280034179688,116.71397481079102C512.0400034179687,119.90497481079102,493.3040034179688,120.85297481079101,474.49500341796875,121.04297481079101C461.21800341796876,121.17797481079101,447.94200341796875,121.13997481079102,434.66699341796874,120.88297481079101C434.26998941796876,120.87497481079102,433.87399341796873,120.88197481079102,433.46600341796875,120.66897481079101C437.71100341796875,120.30397481079102,441.95501341796876,119.92497481079101,446.20200341796874,119.57597481079101C456.40100341796875,118.73797481079102,466.56900341796876,117.61097481079102,476.72100341796875,116.32697481079101C489.4070034179688,114.72297481079102,502.04000341796876,112.78597481079102,514.6040034179688,110.41697481079102C540.1590034179687,105.59697481079101,565.2980034179687,99.27897481079101,589.4050034179687,89.33097481079102C599.2480034179688,85.26897481079101,608.7560034179687,80.55697481079102,617.4170034179688,74.28997481079102C622.1700034179687,70.85097481079102,626.5380034179688,66.99897481079103,629.8990034179687,62.13397481079102C632.1530034179688,58.871974810791016,633.7690034179687,55.360974810791014,634.1050034179688,51.32597481079102C634.4670034179687,46.97797481079101,632.7360034179687,43.707974810791015,629.1540034179687,41.381974810791014C625.4860034179687,38.99897481079101,621.3140034179687,38.31697481079102,617.0500034179688,38.02697481079102C616.6520034179688,37.99897481079101,616.2500034179687,38.033974810791015,615.8500034179688,38.04097481079101Z"
          fill="#C9241D" fill-opacity="1" />
      </g>
      <g>
        <path
          d="M121.94499969482422,94.16195943603516C122.51300069482421,90.81595943603516,123.09499969482422,87.37995943603516,123.67999969482422,83.94495943603516C124.48299969482422,79.23095943603516,125.32099969482422,74.52199943603516,126.06499969482422,69.79899943603516C126.22099969482421,68.80999743603516,126.56999969482422,68.35999293603516,127.56799969482422,68.43799590603516C127.96499969482421,68.46899413603515,128.3659996948242,68.44099423603515,128.76600969482422,68.44099423603515C145.0619996948242,68.44099423603515,161.3589996948242,68.43999483603515,177.65499969482423,68.44199373603516C180.34899969482422,68.44199373603516,180.36499969482423,68.45199583603515,179.9239996948242,71.09698943603516C178.74399969482423,78.17198943603516,177.55899969482422,85.24695943603516,176.3539996948242,92.31695943603515C175.98799969482423,94.46395943603515,175.9549996948242,94.48595943603516,174.09099969482423,94.48695943603516C157.2349996948242,94.49395943603515,140.37999969482422,94.49195943603516,123.52398969482422,94.48795943603515C123.05099969482421,94.48895943603516,122.55999769482422,94.56995943603516,121.94499969482422,94.16195943603516Z"
          fill="currentColor" fill-opacity="1" />
      </g>
      <g>
        <path
          d="M577.781034765625,67.27200107421875C576.330034765625,60.89000107421875,571.429034765625,58.02000107421875,565.143034765625,59.80800207421875C563.154034765625,60.374001074218754,561.168034765625,61.04400107421875,559.301034765625,61.92300107421875C555.426034765625,63.74600107421875,551.361034765625,64.14700107421875,547.162034765625,64.04700107421876C543.676034765625,63.96400107421875,540.356034765625,63.43700107421875,537.322034765625,61.54401107421875C536.256034765625,60.87900107421875,535.010034765625,60.45600107421875,533.797034765625,60.08100507421875C527.447034765625,58.12001107421875,522.211974765625,60.36600107421875,519.167964765625,66.26401107421876C517.405944765625,69.67805107421876,516.839965765625,73.35705107421875,516.666992165625,76.88805107421875C516.494995165625,78.72905107421875,516.622009265625,80.32505107421875,516.877013765625,81.89905107421875C517.874024765625,88.05205107421875,522.882994765625,91.40405107421876,528.928034765625,90.01405107421874C531.110034765625,89.51205107421875,533.212034765625,88.77705107421875,535.300034765625,87.97305107421874C541.939034765625,85.41605107421876,548.6250347656251,84.95305107421875,555.387034765625,87.57305107421875C557.317034765625,88.32105107421876,559.310034765625,88.91505107421875,561.293034765625,89.51605107421875C562.588034765625,89.90905107421875,563.905034765625,90.27405107421875,565.280034765625,90.25205107421874C570.158034765625,90.17405107421875,573.619034765625,87.77405107421875,575.804034765625,83.55405107421875C578.476034765625,78.39905107421875,579.062034765625,72.90595107421875,577.781034765625,67.27200107421875ZM535.788034765625,78.33105107421875C535.246034765625,80.05005107421874,533.509034765625,80.98495107421874,531.831034765625,80.76495107421874C529.945034765625,80.51795107421876,529.107034765625,79.17295107421876,529.293034765625,76.12795107421874C529.406034765625,75.29195107421876,529.548034765625,73.94295107421875,529.778034765625,72.60995107421876C530.064034765625,70.95505107421874,531.100034765625,69.91695107421874,532.688034765625,69.45605107421875C534.515034765625,68.92500107421876,536.390034765625,70.07505107421875,536.541034765625,71.95995107421875C536.711034765625,74.11295107421876,536.435034765625,76.27795107421875,535.788034765625,78.33105107421875ZM564.489034765625,74.65005107421875C564.303034765625,75.90905107421875,564.182934765625,77.18295107421875,563.913034765625,78.42405107421875C563.601034765625,79.85905107421875,562.642034765625,80.78505107421876,561.249034765625,81.23105107421875C559.219034765625,81.88005107421876,557.275034765625,80.62495107421876,557.159034765625,78.49405107421875C557.055034765625,76.57805107421875,557.482934765625,74.68705107421874,557.818034765625,72.81305107421875C558.018934765625,71.68505107421875,558.839034765625,70.83505107421875,559.886934765625,70.31305107421875C562.100934765625,69.21101107421875,564.402934765625,70.52405107421875,564.550934765625,72.97605107421874C564.583934765625,73.52705107421875,564.480934765625,74.08605107421874,564.439934765625,74.64105107421875C564.456934765625,74.64395107421875,564.473034765625,74.64705107421875,564.489034765625,74.65005107421875Z"
          fill="currentColor" fill-opacity="1" />
      </g>
    </g>
  </g>
</svg>