<svg xmlns="http://www.w3.org/2000/svg" xmlns:xlink="http://www.w3.org/1999/xlink" fill="none" version="1.1" width="24" height="24" viewBox="0 0 24 24"><defs><clipPath id="master_svg0_5292_05810"><rect x="0" y="0" width="24" height="24" rx="0"/></clipPath></defs><g clip-path="url(#master_svg0_5292_05810)"><g><path d="M12,2C6.477,2,2,6.463,2,11.97C2,16.374000000000002,4.865,20.11,8.839,21.428C9.339,21.52,9.521,21.212,9.521,20.948C9.521,20.712,9.513,20.084,9.508,19.253Q6.726,19.855,6.139,17.916Q5.6850000000000005,16.765,5.029,16.458Q4.121,15.84,5.098,15.852Q6.101,15.922,6.629,16.878999999999998C7.521,18.403,8.969999999999999,17.963,9.539,17.707C9.631,17.064,9.889,16.624000000000002,10.175,16.375C7.955,16.124000000000002,5.62,15.268,5.62,11.448C5.62,10.36,6.01,9.469000000000001,6.649,8.773C6.546,8.521,6.203,7.507,6.747,6.135Q7.587,5.867,9.497,7.157C10.31287,6.93501,11.15447,6.8217,12,6.82C12.85,6.824,13.705,6.934,14.504,7.156Q16.413,5.866,17.250999999999998,6.134C17.797,7.506,17.453,8.52,17.351,8.772C17.991,9.468,18.379,10.359,18.379,11.447C18.379,15.277,16.04,16.119999999999997,13.813,16.367C14.172,16.674,14.491,17.282,14.491,18.213C14.491,19.545,14.479,20.62,14.479,20.947C14.479,21.214,14.659,21.524,15.167,21.427C19.137,20.107,22,16.372999999999998,22,11.969C22,6.463,17.522,2,12,2Z" fill-rule="evenodd" fill="#000000" fill-opacity="1"/></g></g></svg>