<svg enable-background="new 0 0 288 288" viewBox="0 0 288 288" xmlns="http://www.w3.org/2000/svg"
  xmlns:xlink="http://www.w3.org/1999/xlink">
  <mask id="a" height="691.5" maskUnits="userSpaceOnUse" width="691.5" x="-201.75" y="-201.75">
    <path d="m-333-242h956v927h-956z" fill="url(#b)" />
  </mask>
  <radialGradient id="b" cx="-816.6465" cy="685.798"
    gradientTransform="matrix(-492.0004 6.0026 6.1904 507.3912 -405847.7188 -342926.8438)"
    gradientUnits="userSpaceOnUse" r="1">
    <stop offset="0" stop-color="#d9d9d9" />
    <stop offset=".81" stop-color="#d9d9d9" stop-opacity="0" />
  </radialGradient>
  <g
    style="mask:url(#a);fill-rule:evenodd;clip-rule:evenodd;fill:#94a3b8;fill-opacity:.1;stroke:#0f172a;stroke-width:2;stroke-dasharray:4 4">
    <g stroke-opacity=".1">
      <path
        d="m65.491 35.75c-16.426 0-29.741 13.316-29.741 29.741s13.315 29.741 29.741 29.741c16.425 0 29.741-13.316 29.741-29.741s-13.316-29.741-29.741-29.741zm-43.241 29.74c0-23.881 19.36-43.241 43.241-43.241s43.241 19.36 43.241 43.241-19.36 43.241-43.241 43.241-43.241-19.36-43.241-43.241z" />
      <path
        d="m222.51 35.75c-16.426 0-29.741 13.316-29.741 29.741s13.315 29.741 29.741 29.741c16.425 0 29.741-13.316 29.741-29.741s-13.316-29.741-29.741-29.741zm-43.241 29.74c0-23.881 19.36-43.241 43.241-43.241s43.241 19.36 43.241 43.241-19.36 43.241-43.241 43.241-43.241-19.36-43.241-43.241z" />
      <path
        d="m222.51 192.769c-16.426 0-29.741 13.316-29.741 29.741s13.315 29.741 29.741 29.741c16.425 0 29.741-13.316 29.741-29.741s-13.316-29.741-29.741-29.741zm-43.241 29.741c0-23.881 19.36-43.241 43.241-43.241s43.241 19.36 43.241 43.241-19.36 43.241-43.241 43.241-43.241-19.36-43.241-43.241z" />
      <path
        d="m65.49 192.769c-16.426 0-29.741 13.316-29.741 29.741s13.316 29.74 29.741 29.74 29.741-13.316 29.741-29.741-13.315-29.74-29.741-29.74zm-43.24 29.741c0-23.881 19.36-43.241 43.241-43.241s43.241 19.36 43.241 43.241-19.361 43.24-43.242 43.24-43.24-19.359-43.24-43.24z" />
    </g>
    <path d="m-200.75 95.231h689.5v13.5h-689.5z" stroke-opacity=".2" />
    <path d="m-200.75 179.27h689.5v13.5h-689.5z" stroke-opacity=".2" />
    <path d="m192.769-200.75v689.5h-13.5v-689.5z" stroke-opacity=".2" />
    <path d="m108.731-200.75v689.5h-13.5v-689.5z" stroke-opacity=".2" />
  </g>
</svg>