<svg xmlns="http://www.w3.org/2000/svg" xmlns:xlink="http://www.w3.org/1999/xlink" fill="none" version="1.1" width="24" height="24" viewBox="0 0 24 24"><defs><clipPath id="master_svg0_5292_05792"><rect x="0" y="0" width="24" height="24" rx="0"/></clipPath></defs><g clip-path="url(#master_svg0_5292_05792)"><g><path d="M0.183067,17.445091552734375L6.57839,4.997731552734375C7.16548,3.855082552734375,8.78443,3.829062552734375,9.40766,4.952254552734375L16.2879,17.351391552734377C16.984,18.605991552734373,15.8198,20.078491552734377,14.4439,19.683591552734377L8.77672,18.056791552734374C8.48831,17.973991552734375,8.1826,17.973991552734375,7.89423,18.056791552734374L2.05083,19.731991552734375C0.698771,20.119591552734377,-0.461288,18.699291552734373,0.183067,17.445091552734375Z" fill="#3970E3" fill-opacity="1"/></g><g style="opacity:0.5;"><path d="M19.224773489074707,18.925169482421875L21.866303489074706,19.683469482421877C23.242143489074707,20.078369482421877,24.406443489074707,18.605869482421873,23.710243489074706,17.351269482421877L16.830093489074706,4.952132482421875C16.206843489074707,3.828940482421875,14.587903489074707,3.854960482421875,14.000833489074708,4.997609482421875L12.868443489074707,7.201599482421875L19.224773489074707,18.925169482421875Z" fill="#3970E3" fill-opacity="1"/></g></g></svg>