<svg xmlns="http://www.w3.org/2000/svg" xmlns:xlink="http://www.w3.org/1999/xlink" fill="none" version="1.1" width="24" height="24" viewBox="0 0 24 24"><defs><clipPath id="master_svg0_3282_30452"><rect x="0" y="0" width="24" height="24" rx="0"/></clipPath></defs><g clip-path="url(#master_svg0_3282_30452)"><g><path d="M22.447444140625,17.894461035156247Q22.572044140625,17.83216103515625,22.674844140625,17.73826103515625Q22.777644140625,17.644261035156248,22.850944140625,17.52576103515625Q22.924144140625,17.40726103515625,22.962144140625,17.27336103515625Q23.000244140625,17.13936103515625,23.000244140625,17.00006103515625L23.000244140625,7.00006103515625Q23.000244140625,6.86078103515625,22.962144140625,6.72679103515625Q22.924144140625,6.59281103515625,22.850944140625,6.47433103515625Q22.777644140625,6.35585103515625,22.674844140625,6.26188103515625Q22.572044140625,6.16792103515625,22.447444140625,6.10563103515625L12.447444140625,1.1056340351562501Q12.343344140625,1.05356303515625,12.230044140625,1.02681203515625Q12.116644140625,1.00006103515625,12.000244140625,1.00006103515625Q11.883814140625,1.00006103515625,11.770494140625,1.02681203515625Q11.657174140625,1.05356303515625,11.553034140625,1.1056340351562501L1.553030140625,6.10563103515625Q1.428451140625,6.16792103515625,1.325635140625,6.26188103515625Q1.222819140625,6.35585103515625,1.149593140625,6.47433103515625Q1.076367140625,6.59281103515625,1.038306140625,6.72679103515625Q1.000244140625,6.86078103515625,1.000244140625,7.00006103515625L1.000244140625,17.00006103515625Q1.000244140625,17.13936103515625,1.038306140625,17.27336103515625Q1.076367140625,17.40726103515625,1.149593140625,17.52576103515625Q1.222819140625,17.644261035156248,1.325635140625,17.73826103515625Q1.428451140625,17.83216103515625,1.553030140625,17.894461035156247L11.553034140625,22.89446103515625Q11.657174140625,22.94656103515625,11.770494140625,22.97326103515625Q11.883804140625,23.00006103515625,12.000244140625,23.00006103515625Q12.116644140625,23.00006103515625,12.230044140625,22.97326103515625Q12.343344140625,22.94656103515625,12.447444140625,22.89446103515625L22.447444140625,17.894461035156247ZM21.000244140625,16.382061035156248L12.000244140625,20.88206103515625L3.000244140625,16.382061035156248L3.000244140625,7.61809103515625L12.000244140625,3.11809103515625L21.000244140625,7.61809103515625L21.000244140625,16.382061035156248Z" fill-rule="evenodd" fill="#000000" fill-opacity="1"/></g><g><path d="M2.447458140625,6.10551196484375L12.447444140625,11.10550896484375Q12.572044140625,11.167798964843751,12.674844140625,11.26175896484375Q12.777644140625,11.355728964843749,12.850944140625,11.47420896484375Q12.924144140625,11.592688964843749,12.962144140625,11.72666896484375Q13.000244140625,11.86065896484375,13.000244140625,11.99993896484375Q13.000244140625,12.09842896484375,12.981044140625,12.19502896484375Q12.961844140625,12.29162896484375,12.924144140625,12.38261896484375Q12.886444140625,12.47361896484375,12.831744140625,12.55550896484375Q12.776944140625,12.63739896484375,12.707344140625,12.70704896484375Q12.637744140625,12.77668896484375,12.555844140625,12.83140896484375Q12.473944140625,12.88612896484375,12.382944140625,12.92381896484375Q12.291944140625,12.96150896484375,12.195344140625,12.98071896484375Q12.098744140625,12.99993896484375,12.000244140625,12.99993896484375Q11.764174140625,12.99993896484375,11.553034140625,12.89436896484375L1.553030140625,7.89436596484375Q1.428451140625,7.8320769648437505,1.325635140625,7.73811396484375Q1.222819140625,7.64415196484375,1.149593140625,7.52566996484375Q1.076367140625,7.40718796484375,1.038306140625,7.27320496484375Q1.000244140625,7.13922296484375,1.000244140625,6.99993896484375Q1.000244140625,6.90144756484375,1.019459140625,6.80484896484375Q1.038674140625,6.70824996484375,1.076365140625,6.61725596484375Q1.114056140625,6.52626096484375,1.168774140625,6.44436896484375Q1.223493140625,6.36247596484375,1.2931371406249998,6.29283196484375Q1.362781140625,6.22318796484375,1.444674140625,6.16846896484375Q1.526566140625,6.11375096484375,1.617561140625,6.07605996484375Q1.7085551406250001,6.03836896484375,1.805154140625,6.01915396484375Q1.901752740625,5.99993896484375,2.000244140625,5.99993896484375Q2.236312140625,5.99993896484375,2.447458140625,6.10551196484375Z" fill-rule="evenodd" fill="#000000" fill-opacity="1"/></g><g><path d="M11,12Q11,11.9015086,11.019214999999999,11.80491Q11.03843,11.708311,11.076121,11.617317Q11.113812,11.526322,11.16853,11.44443Q11.223249,11.362537,11.292893,11.292893Q11.362537,11.223249,11.44443,11.16853Q11.526322,11.113812,11.617317,11.076121Q11.708311,11.03843,11.80491,11.019214999999999Q11.9015086,11,12,11Q12.0984914,11,12.19509,11.019214999999999Q12.291689,11.03843,12.382683,11.076121Q12.473678,11.113812,12.55557,11.16853Q12.637463,11.223249,12.707107,11.292893Q12.776751,11.362537,12.83147,11.44443Q12.886188,11.526322,12.923879,11.617317Q12.96157,11.708311,12.980785000000001,11.80491Q13,11.9015086,13,12L13,22Q13,22.0985,12.980785000000001,22.1951Q12.96157,22.2917,12.923879,22.3827Q12.886188,22.4737,12.83147,22.5556Q12.776751,22.6375,12.707107,22.7071Q12.637463,22.776699999999998,12.55557,22.8315Q12.473678,22.886200000000002,12.382683,22.9239Q12.291689,22.9616,12.19509,22.980800000000002Q12.0984914,23,12,23Q11.9015086,23,11.80491,22.980800000000002Q11.708311,22.9616,11.617317,22.9239Q11.526322,22.886200000000002,11.44443,22.8315Q11.362537,22.776699999999998,11.292893,22.7071Q11.223249,22.6375,11.16853,22.5556Q11.113812,22.4737,11.076121,22.3827Q11.03843,22.2917,11.019214999999999,22.1951Q11,22.0985,11,22L11,12Z" fill-rule="evenodd" fill="#000000" fill-opacity="1"/></g><g><path d="M22.447200000000002,7.89436596484375Q22.5718,7.83207596484375,22.674599999999998,7.73811396484375Q22.7774,7.64415196484375,22.8507,7.52566996484375Q22.9239,7.40718796484375,22.9619,7.27320496484375Q23,7.13922296484375,23,6.99993896484375Q23,6.90144756484375,22.980800000000002,6.80484896484375Q22.9616,6.70824996484375,22.9239,6.61725596484375Q22.886200000000002,6.52626096484375,22.8315,6.44436896484375Q22.776699999999998,6.36247596484375,22.7071,6.29283196484375Q22.6375,6.22318796484375,22.5556,6.16846896484375Q22.4737,6.11375096484375,22.3827,6.07605996484375Q22.2917,6.03836896484375,22.1951,6.01915396484375Q22.0985,5.99993896484375,22,5.99993896484375Q21.763930000000002,5.99993896484375,21.55279,6.10551196484375L11.552786,11.10550896484375Q11.428207,11.167798964843751,11.325391,11.26175896484375Q11.222574999999999,11.355728964843749,11.149349,11.47420896484375Q11.076123,11.592688964843749,11.038062,11.72666896484375Q11,11.86065896484375,11,11.99993896484375Q11,12.09842896484375,11.019214999999999,12.19502896484375Q11.03843,12.29162896484375,11.076121,12.38261896484375Q11.113812,12.47361896484375,11.16853,12.55550896484375Q11.223249,12.63739896484375,11.292893,12.70704896484375Q11.362537,12.77668896484375,11.44443,12.83140896484375Q11.526322,12.88612896484375,11.617317,12.92381896484375Q11.708311,12.96150896484375,11.80491,12.98071896484375Q11.9015086,12.99993896484375,12,12.99993896484375Q12.236068,12.99993896484375,12.447214,12.89436896484375L22.447200000000002,7.89436596484375L22.447200000000002,7.89436596484375Z" fill-rule="evenodd" fill="#000000" fill-opacity="1"/></g><g><path d="M17.446955859375002,5.394427Q17.571555859375,5.332137,17.674355859374998,5.238175Q17.777155859375,5.144213,17.850455859375,5.025731Q17.923655859375,4.907249,17.961655859375,4.773266Q17.999755859375,4.639284,17.999755859375,4.5Q17.999755859375,4.4015086,17.980555859375002,4.30491Q17.961355859375,4.208311,17.923655859375,4.117317Q17.885955859375002,4.026322,17.831255859375,3.94443Q17.776455859374998,3.862537,17.706855859375,3.792893Q17.637255859375,3.723249,17.555355859375,3.66853Q17.473455859375,3.6138120000000002,17.382455859375,3.576121Q17.291455859375,3.53843,17.194855859375,3.519215Q17.098255859375,3.5,16.999755859375,3.5Q16.763685859375002,3.5,16.552545859375,3.605573L6.552541859375,8.60557Q6.4279628593750004,8.667860000000001,6.325146859375,8.76182Q6.222330859375,8.855789999999999,6.149104859375,8.97427Q6.075878859375,9.092749999999999,6.037817859375,9.22673Q5.999755859375,9.36072,5.999755859375,9.5Q5.999755859375,9.59849,6.018970859375,9.69509Q6.038185859375,9.79169,6.075876859375,9.88268Q6.113567859375,9.97368,6.168285859375,10.05557Q6.223004859375,10.13746,6.292648859375,10.20711Q6.362292859375,10.27675,6.444185859375,10.33147Q6.526077859375,10.38619,6.617072859375,10.42388Q6.708066859375,10.46157,6.804665859375,10.48078Q6.901264459375,10.5,6.999755859375,10.5Q7.235823859375,10.5,7.446969859375,10.39443L17.446955859375002,5.394427L17.446955859375002,5.394427Z" fill-rule="evenodd" fill="#000000" fill-opacity="1"/></g></g></svg>