<svg xmlns="http://www.w3.org/2000/svg" xmlns:xlink="http://www.w3.org/1999/xlink" fill="none" version="1.1" width="24" height="24" viewBox="0 0 24 24"><defs><clipPath id="master_svg0_234_18041"><rect x="0" y="0" width="24" height="24" rx="0"/></clipPath></defs><g clip-path="url(#master_svg0_234_18041)"><g><path d="M11.25,4.5Q11.25,4.4261315,11.26441,4.353682Q11.27882,4.281233,11.307089999999999,4.212987Q11.33536,4.144742,11.3764,4.083322Q11.41744,4.021903,11.46967,3.96967Q11.521899999999999,3.917437,11.58332,3.876398Q11.644739999999999,3.835359,11.71299,3.80709Q11.78123,3.778822,11.85368,3.764411Q11.92613,3.75,12,3.75Q12.07387,3.75,12.14632,3.764411Q12.21877,3.778822,12.28701,3.80709Q12.355260000000001,3.835359,12.41668,3.876398Q12.478100000000001,3.917437,12.53033,3.96967Q12.58256,4.021903,12.6236,4.083322Q12.66464,4.144742,12.69291,4.212987Q12.72118,4.281233,12.73559,4.353682Q12.75,4.4261315,12.75,4.5L12.75,11.25L19.5,11.25Q19.573900000000002,11.25,19.6463,11.26441Q19.7188,11.27882,19.787,11.307089999999999Q19.8553,11.33536,19.9167,11.3764Q19.978099999999998,11.41744,20.0303,11.46967Q20.0826,11.521899999999999,20.1236,11.58332Q20.1646,11.644739999999999,20.1929,11.71299Q20.2212,11.78123,20.235599999999998,11.85368Q20.25,11.92613,20.25,12Q20.25,12.07387,20.235599999999998,12.14632Q20.2212,12.21877,20.1929,12.28701Q20.1646,12.355260000000001,20.1236,12.41668Q20.0826,12.478100000000001,20.0303,12.53033Q19.978099999999998,12.58256,19.9167,12.6236Q19.8553,12.66464,19.787,12.69291Q19.7188,12.72118,19.6463,12.73559Q19.573900000000002,12.75,19.5,12.75L12.75,12.75L12.75,19.5Q12.75,19.573900000000002,12.73559,19.6463Q12.72118,19.7188,12.69291,19.787Q12.66464,19.8553,12.6236,19.9167Q12.58256,19.978099999999998,12.53033,20.0303Q12.478100000000001,20.0826,12.41668,20.1236Q12.355260000000001,20.1646,12.28701,20.1929Q12.21877,20.2212,12.14632,20.235599999999998Q12.07387,20.25,12,20.25Q11.92613,20.25,11.85368,20.235599999999998Q11.78123,20.2212,11.71299,20.1929Q11.644739999999999,20.1646,11.58332,20.1236Q11.521899999999999,20.0826,11.46967,20.0303Q11.41744,19.978099999999998,11.3764,19.9167Q11.33536,19.8553,11.307089999999999,19.787Q11.27882,19.7188,11.26441,19.6463Q11.25,19.573900000000002,11.25,19.5L11.25,12.75L4.5,12.75Q4.4261315,12.75,4.353682,12.73559Q4.281233,12.72118,4.212987,12.69291Q4.144742,12.66464,4.083322,12.6236Q4.021903,12.58256,3.96967,12.53033Q3.917437,12.478100000000001,3.876398,12.41668Q3.835359,12.355260000000001,3.80709,12.28701Q3.778822,12.21877,3.764411,12.14632Q3.75,12.07387,3.75,12Q3.75,11.92613,3.764411,11.85368Q3.778822,11.78123,3.80709,11.71299Q3.835359,11.644739999999999,3.876398,11.58332Q3.917437,11.521899999999999,3.96967,11.46967Q4.021903,11.41744,4.083322,11.3764Q4.144742,11.33536,4.212987,11.307089999999999Q4.281233,11.27882,4.353682,11.26441Q4.4261315,11.25,4.5,11.25L11.25,11.25L11.25,4.5Z" fill-rule="evenodd" fill="#000000" fill-opacity="1"/></g></g></svg>