<svg xmlns="http://www.w3.org/2000/svg" xmlns:xlink="http://www.w3.org/1999/xlink" fill="none" version="1.1" width="24" height="24" viewBox="0 0 24 24"><defs><clipPath id="master_svg0_3282_40937"><rect x="0" y="0" width="24" height="24" rx="0"/></clipPath></defs><g clip-path="url(#master_svg0_3282_40937)"><g><path d="M1.000244140625,18.5L1.000244140625,9.5Q1.000244140625,8.257359,1.878924140625,7.37868Q2.757603140625,6.5,4.000244140625,6.5L20.000244140625,6.5Q21.242844140625,6.5,22.121544140625,7.37868Q23.000244140625,8.257361,23.000244140625,9.5L23.000244140625,18.5Q23.000244140625,19.7426,22.121544140625,20.621299999999998Q21.242844140625,21.5,20.000244140625,21.5L4.000244140625,21.5Q2.757605140625,21.5,1.878924140625,20.621299999999998Q1.000244140625,19.7426,1.000244140625,18.5ZM3.000244140625,18.5Q3.000244140625,18.9142,3.293134140625,19.2071Q3.5860341406250003,19.5,4.000244140625,19.5L20.000244140625,19.5Q20.414444140625,19.5,20.707344140625,19.2071Q21.000244140625,18.9142,21.000244140625,18.5L21.000244140625,9.5Q21.000244140625,9.08579,20.707344140625,8.79289Q20.414444140625,8.5,20.000244140625,8.5L4.000244140625,8.5Q3.5860341406250003,8.5,3.293134140625,8.79289Q3.000244140625,9.08579,3.000244140625,9.5L3.000244140625,18.5Z" fill="#000000" fill-opacity="1"/></g><g><path d="M17.000244140625,7.4998779296875Q17.000244140625,7.3009679296875,16.924124140625,7.117197929687499Q16.848004140625,6.9334279296875,16.707354140625,6.7927679296875L12.707354140625,2.7927709296875Q12.566694140625,2.6521189296875,12.382924140625,2.5759979296875Q12.199154140625,2.4998779296875,12.000244140625,2.4998779296875Q11.801334140625,2.4998779296875,11.617564140625,2.5759979296875Q11.433794140625,2.6521189296875,11.293134140625,2.7927709296875L7.293137140625,6.7927679296875Q7.152485140625,6.9334279296875,7.0763641406249995,7.117197929687499Q7.000244140625,7.3009679296875,7.000244140625,7.4998779296875Q7.000244140625,7.6987879296875,7.0763641406249995,7.8825579296875Q7.152485140625,8.0663279296875,7.293137140625,8.2069879296875Q7.433790140625,8.347637929687501,7.617561140625,8.4237579296875Q7.801332140625,8.4998779296875,8.000244140625,8.4998779296875L16.000244140625,8.4998779296875Q16.098734140624998,8.4998779296875,16.195334140625,8.4806579296875Q16.291934140625,8.4614479296875,16.382924140625,8.4237579296875Q16.473924140625,8.3860679296875,16.555814140625,8.3313479296875Q16.637704140625,8.2766279296875,16.707354140625,8.2069879296875Q16.776994140625,8.1373379296875,16.831714140625,8.0554479296875Q16.886434140625,7.9735579296875,16.924124140625,7.8825579296875Q16.961814140625002,7.7915679296875,16.981024140625,7.6949679296875Q17.000244140625,7.5983679296875,17.000244140625,7.4998779296875ZM13.586034140625,6.4998779296875L12.000244140625,4.9140879296875L10.414454140625,6.4998779296875L13.586034140625,6.4998779296875Z" fill-rule="evenodd" fill="#000000" fill-opacity="1"/></g><g><path d="M6,11L15,11Q15.09849,11,15.19509,11.019214999999999Q15.29169,11.03843,15.38268,11.076121Q15.47368,11.113812,15.55557,11.16853Q15.63746,11.223249,15.70711,11.292893Q15.77675,11.362537,15.83147,11.44443Q15.88619,11.526322,15.92388,11.617317Q15.96157,11.708311,15.98078,11.80491Q16,11.9015086,16,12Q16,12.0984914,15.98078,12.19509Q15.96157,12.291689,15.92388,12.382683Q15.88619,12.473678,15.83147,12.55557Q15.77675,12.637463,15.70711,12.707107Q15.63746,12.776751,15.55557,12.83147Q15.47368,12.886188,15.38268,12.923879Q15.29169,12.96157,15.19509,12.980785000000001Q15.09849,13,15,13L6,13Q5.9015086,13,5.80491,12.980785000000001Q5.708311,12.96157,5.617317,12.923879Q5.526322,12.886188,5.44443,12.83147Q5.362537,12.776751,5.292893,12.707107Q5.223249,12.637463,5.16853,12.55557Q5.113812,12.473678,5.076121,12.382683Q5.03843,12.291689,5.019215,12.19509Q5,12.0984914,5,12Q5,11.9015086,5.019215,11.80491Q5.03843,11.708311,5.076121,11.617317Q5.113812,11.526322,5.16853,11.44443Q5.223249,11.362537,5.292893,11.292893Q5.362537,11.223249,5.44443,11.16853Q5.526322,11.113812,5.617317,11.076121Q5.708311,11.03843,5.80491,11.019214999999999Q5.9015086,11,6,11Z" fill-rule="evenodd" fill="#000000" fill-opacity="1"/></g><g><path d="M6,15.0001220703125L10,15.0001220703125Q10.09849,15.0001220703125,10.19509,15.019337070312499Q10.29169,15.0385520703125,10.38268,15.0762430703125Q10.47368,15.1139340703125,10.55557,15.1686520703125Q10.63746,15.2233710703125,10.70711,15.2930150703125Q10.77675,15.3626590703125,10.83147,15.4445520703125Q10.88619,15.5264440703125,10.92388,15.6174390703125Q10.96157,15.7084330703125,10.98078,15.8050320703125Q11,15.9016306703125,11,16.0001220703125Q11,16.0986134703125,10.98078,16.1952120703125Q10.96157,16.2918110703125,10.92388,16.3828050703125Q10.88619,16.4738000703125,10.83147,16.5556920703125Q10.77675,16.6375850703125,10.70711,16.7072290703125Q10.63746,16.7768730703125,10.55557,16.8315920703125Q10.47368,16.8863100703125,10.38268,16.9240010703125Q10.29169,16.961692070312502,10.19509,16.9809070703125Q10.09849,17.0001220703125,10,17.0001220703125L6,17.0001220703125Q5.9015086,17.0001220703125,5.80491,16.9809070703125Q5.708311,16.961692070312502,5.617317,16.9240010703125Q5.526322,16.8863100703125,5.44443,16.8315920703125Q5.362537,16.7768730703125,5.292893,16.7072290703125Q5.223249,16.6375850703125,5.16853,16.5556920703125Q5.113812,16.4738000703125,5.076121,16.3828050703125Q5.03843,16.2918110703125,5.019215,16.1952120703125Q5,16.0986134703125,5,16.0001220703125Q5,15.9016306703125,5.019215,15.8050320703125Q5.03843,15.7084330703125,5.076121,15.6174390703125Q5.113812,15.5264440703125,5.16853,15.4445520703125Q5.223249,15.3626590703125,5.292893,15.2930150703125Q5.362537,15.2233710703125,5.44443,15.1686520703125Q5.526322,15.1139340703125,5.617317,15.0762430703125Q5.708311,15.0385520703125,5.80491,15.019337070312499Q5.9015086,15.0001220703125,6,15.0001220703125Z" fill-rule="evenodd" fill="#000000" fill-opacity="1"/></g></g></svg>