<svg xmlns="http://www.w3.org/2000/svg" xmlns:xlink="http://www.w3.org/1999/xlink" fill="none" version="1.1" width="24" height="24" viewBox="0 0 24 24"><defs><clipPath id="master_svg0_732_37303"><rect x="0" y="0" width="24" height="24" rx="0"/></clipPath></defs><g clip-path="url(#master_svg0_732_37303)"><g><path d="M15.749999927520753,6.000000476837158C15.749999927520753,8.071070476837157,14.071069927520751,9.750000476837158,11.99999992752075,9.750000476837158C9.928929927520752,9.750000476837158,8.249999927520753,8.071070476837157,8.249999927520753,6.000000476837158C8.249999927520753,3.9289304768371585,9.928929927520752,2.250000476837158,11.99999992752075,2.250000476837158C14.071069927520751,2.250000476837158,15.749999927520753,3.9289304768371585,15.749999927520753,6.000000476837158ZM4.635627927520752,18.814300476837158C5.302763927520752,15.348800476837159,8.350869927520751,12.740500476837159,11.99999992752075,12.740500476837159C15.649099927520751,12.740500476837159,18.69719992752075,15.348800476837159,19.36439992752075,18.814300476837158C19.514399927520753,19.593700476837157,19.03499992752075,20.342000476837157,18.291299927520754,20.619300476837157C16.282499927520753,21.36860047683716,14.152109927520751,21.75280047683716,12.001079927520752,21.750000476837158C12.00018992752075,21.750000476837158,11.999799927520751,21.750000476837158,11.998909927520753,21.750000476837158C9.784919927520752,21.74990047683716,7.664029927520752,21.35000047683716,5.704769927520752,20.61830047683716C4.961486927520752,20.340700476837156,4.485641827520752,19.593400476837157,4.635627927520752,18.814300476837158" fill="#165DFF" fill-opacity="1"/><path d="M15.181999927520751,2.8180194768371583Q13.863959927520751,1.5000004768371582,11.99999992752075,1.5000004768371582Q10.136039927520752,1.5000004768371582,8.818019927520751,2.8180194768371583Q7.4999999275207525,4.136040476837158,7.4999999275207525,6.000000476837158Q7.4999999275207525,7.863960476837158,8.818019927520751,9.181980476837158Q10.136039927520752,10.500000476837158,11.99999992752075,10.500000476837158Q13.863959927520751,10.500000476837158,15.181999927520751,9.181980476837158Q16.499999927520754,7.863960476837158,16.499999927520754,6.000000476837158Q16.499999927520754,4.136040476837158,15.181999927520751,2.8180194768371583ZM8.99999992752075,6.000000476837158Q8.99999992752075,3.0000014768371583,11.99999992752075,3.000000476837158Q14.999999927520753,3.000000476837158,14.999999927520753,6.000000476837158Q14.999999927520753,9.000000476837158,11.99999992752075,9.000000476837158Q8.99999992752075,9.000000476837158,8.99999992752075,6.000000476837158ZM5.442386927520752,21.32090047683716Q8.599169927520752,22.49980047683716,11.99886992752075,22.500000476837158L11.998909927520753,22.500000476837158L12.000109927520752,22.500000476837158Q15.383399927520752,22.50440047683716,18.55339992752075,21.322100476837157Q20.47309992752075,20.60600047683716,20.10089992752075,18.672500476837158Q19.54609992752075,15.790700476837157,17.28069992752075,13.901800476837158Q14.988499927520753,11.990460476837159,11.99999992752075,11.990460476837159Q9.011509927520752,11.990460476837159,6.719259927520752,13.901800476837158Q4.453925827520752,15.790700476837157,3.899149927520752,18.672500476837158Q3.527019927520752,20.605600476837157,5.442386927520752,21.32090047683716ZM11.998959927520751,21.000000476837158L11.998909927520753,21.000000476837158Q8.870139927520752,20.99980047683716,5.967159927520752,19.91570047683716Q5.239673927520752,19.644000476837157,5.372104927520752,18.956100476837157Q6.424269927520752,13.490500476837159,11.99999992752075,13.490500476837159Q17.575699927520752,13.490500476837159,18.62789992752075,18.956100476837157Q18.76029992752075,19.643900476837157,18.02919992752075,19.916600476837157Q15.113699927520752,21.00400047683716,12.002049927520751,21.000000476837158L11.998959927520751,21.000000476837158Z" fill-rule="evenodd" fill="#165DFF" fill-opacity="1"/></g><g><path d="M13.514434814453125,22.781418671875002L13.514434814453125,21.707898671875Q13.514434993267125,20.820418671875,14.141858814453125,20.192738671875L16.383134814453125,17.951808671875Q16.237784814453125,16.494818671875,17.209764814453123,15.339438671875Q18.280244814453127,14.066960692875,19.943114814453125,14.067138671875L19.944494814453126,14.067139744755Q21.513074814453127,14.069466591875,22.572634814453124,15.226088671875Q23.632234814453128,16.382698671875,23.497404814453127,17.945478671875Q23.362604814453125,19.508258671874998,22.120634814453126,20.466358671875Q20.999994814453125,21.330848671875,19.630014814453126,21.198148671875L18.852454814453125,21.975708671875Q18.850614814453124,21.977558671875002,18.848764814453126,21.979388671875Q18.614314814453124,22.212508671875,18.319114814453126,22.300118671874998Q18.231014814453125,22.597398671875,17.995004814453125,22.833418671875002Q17.759064814453126,23.069348671874998,17.461904814453124,23.157468671875Q17.373794814453124,23.454628671875,17.137854814453124,23.690558671875Q17.090784814453126,23.737638671875,17.041274814453125,23.778828671875Q16.694704814453125,24.067138671875,16.228724814453123,24.067138671875L14.800144814453125,24.067138671875Q13.514434814453125,24.067138671875,13.514434814453125,22.781418671875002Z" fill-rule="evenodd" fill="#FFFFFF" fill-opacity="1"/></g><g><path d="M19.943004814453126,15.067138671875C18.346654814453125,15.066967691875,17.135904814453124,16.506178671875,17.409294814453126,18.078948671875C17.434814814453127,18.227518671875,17.397104814453126,18.352088671875,17.325104814453127,18.424088671875L14.848910814453125,20.899898671875C14.634744814453125,21.114148671875,14.514434859866226,21.404788671875,14.514434814453125,21.707898671875L14.514434814453125,22.781428671875C14.514434814453125,22.939138671875,14.642434814453125,23.067138671875,14.800148814453125,23.067138671875L16.228724814453123,23.067138671875C16.386514814453125,23.067138671875,16.514434814453125,22.939218671875,16.514434814453125,22.781428671875L16.514434814453125,22.209998671875L17.085864814453124,22.209998671875C17.243654814453127,22.209998671875,17.371574814453126,22.082078671875,17.371574814453126,21.924278671875L17.371574814453126,21.352848671875L17.943004814453126,21.352848671875C18.018754814453125,21.352788671875,18.091384814453125,21.322638671874998,18.144914814453124,21.269048671874998L19.157484814453124,20.256468671874998C19.229864814453123,20.184468671875,19.354434814453125,20.146758671875,19.502624814453124,20.172658671875C20.986604814453123,20.428318671875,22.371704814453125,19.359808671875,22.501104814453125,17.859548671875C22.630514814453125,16.359278671875,21.448844814453125,15.069372401875,19.943004814453126,15.067138671875ZM19.943004814453126,16.209998671875C19.785214814453127,16.209998671875,19.657294814453124,16.337918671875,19.657294814453124,16.495708671875C19.657294814453124,16.653508671875,19.785214814453127,16.781428671875,19.943004814453126,16.781428671875C20.416394814453124,16.781428671875,20.800144814453127,17.165178671875,20.800144814453127,17.638568671875C20.800144814453127,17.796358671875,20.928064814453126,17.924278671875,21.085864814453124,17.924278671875C21.243654814453123,17.924278671875,21.371574814453126,17.796358671875,21.371574814453126,17.638568671875C21.371574814453126,16.849588671875,20.731984814453124,16.209998671875,19.943004814453126,16.209998671875Z" fill-rule="evenodd" fill="#165DFF" fill-opacity="1"/></g></g></svg>