<svg xmlns="http://www.w3.org/2000/svg" xmlns:xlink="http://www.w3.org/1999/xlink" fill="none" version="1.1" width="24" height="24" viewBox="0 0 24 24"><defs><clipPath id="master_svg0_3282_40522"><rect x="0" y="0" width="24" height="24" rx="0"/></clipPath></defs><g clip-path="url(#master_svg0_3282_40522)"><g><ellipse cx="8" cy="5" rx="2" ry="2" fill-opacity="0" stroke-opacity="1" stroke="#000000" fill="none" stroke-width="2"/></g><g><path d="M6.5001999999999995,13L10,13Q10.09849,13,10.19509,12.980785000000001Q10.29169,12.96157,10.38268,12.923879Q10.47368,12.886188,10.55557,12.83147Q10.63746,12.776751,10.70711,12.707107Q10.77675,12.637463,10.83147,12.55557Q10.88619,12.473678,10.92388,12.382683Q10.96157,12.291689,10.98078,12.19509Q11,12.0984914,11,12Q11,11.9015086,10.98078,11.80491Q10.96157,11.708311,10.92388,11.617317Q10.88619,11.526322,10.83147,11.44443Q10.77675,11.362537,10.70711,11.292893Q10.63746,11.223249,10.55557,11.16853Q10.47368,11.113812,10.38268,11.076121Q10.29169,11.03843,10.19509,11.019214999999999Q10.09849,11,10,11L6.5001999999999995,11Q4.58106,11,3.295922,12.274283Q1.99982,13.55944,2,15.50009Q2.0001759999999997,17.44068,3.296035,18.72569Q4.5811,20,6.5001999999999995,20L14,20Q14.0985,20,14.1951,19.98078Q14.2917,19.961570000000002,14.3827,19.92388Q14.4737,19.88619,14.5556,19.83147Q14.6375,19.77675,14.7071,19.70711Q14.7767,19.63746,14.8315,19.55557Q14.8862,19.47368,14.9239,19.38268Q14.9616,19.29169,14.9808,19.19509Q15,19.098489999999998,15,19Q15,18.901510000000002,14.9808,18.80491Q14.9616,18.70831,14.9239,18.61732Q14.8862,18.52632,14.8315,18.44443Q14.7767,18.36254,14.7071,18.29289Q14.6375,18.22325,14.5556,18.16853Q14.4737,18.11381,14.3827,18.07612Q14.2917,18.038429999999998,14.1951,18.01921Q14.0985,18,14,18L6.5001999999999995,18Q5.40461,18,4.70429,17.30555Q4.0001,16.60725,4,15.49991Q3.999899,14.392759999999999,4.70413,13.69448Q5.40452,13,6.5001999999999995,13Z" fill-rule="evenodd" fill="#000000" fill-opacity="1"/></g><g><path d="M10,4L17.499850000000002,4Q19.41899,4,20.7041,5.274288Q22.0002,6.55945,22,8.5001Q21.9998,10.44068,20.704,11.72568Q19.41894,13,17.499850000000002,13L10.000149727,13Q9.9016583,13,9.805059,12.98078Q9.708461,12.96157,9.617466,12.92388Q9.526472,12.88619,9.44458,12.83147Q9.362687,12.77675,9.293043,12.70711Q9.223399,12.63746,9.16868,12.55557Q9.113961,12.47368,9.07627,12.38268Q9.038579,12.29169,9.019365,12.19509Q9.00015,12.09849,9.00015,12Q9.00015,11.90151,9.019365,11.80491Q9.038579,11.70831,9.07627,11.61732Q9.113961,11.52632,9.16868,11.44443Q9.223399,11.36254,9.293043,11.29289Q9.362687,11.22325,9.44458,11.16853Q9.526472,11.11381,9.617466,11.07612Q9.708461,11.03843,9.805059,11.019210000000001Q9.9016583,11,10.000149727,11L17.499850000000002,11Q18.59542,11,19.29571,10.30555Q19.99989,9.60726,20,8.4999Q20.0001,7.39276,19.29589,6.69447Q18.59551,6,17.499850000000002,6L10,6Q9.9015086,6,9.80491,5.980785Q9.708311,5.96157,9.617317,5.923879Q9.526322,5.886188,9.44443,5.83147Q9.362537,5.776751,9.292893,5.707107Q9.223249,5.637463,9.16853,5.55557Q9.113812,5.473678,9.076121,5.382683Q9.03843,5.291689,9.019214999999999,5.19509Q9,5.0984914,9,5Q9,4.9015086,9.019214999999999,4.80491Q9.03843,4.708311,9.076121,4.617317Q9.113812,4.526322,9.16853,4.44443Q9.223249,4.362537,9.292893,4.292893Q9.362537,4.223249,9.44443,4.16853Q9.526322,4.113812,9.617317,4.076121Q9.708311,4.03843,9.80491,4.019215Q9.9015086,4,10,4Z" fill-rule="evenodd" fill="#000000" fill-opacity="1"/></g><g><path d="M3,4L6,4Q6.09849,4,6.19509,4.019215Q6.29169,4.03843,6.382680000000001,4.076121Q6.47368,4.113812,6.5555699999999995,4.16853Q6.63746,4.223249,6.70711,4.292893Q6.77675,4.362537,6.8314699999999995,4.44443Q6.88619,4.526322,6.9238800000000005,4.617317Q6.96157,4.708311,6.98078,4.80491Q7,4.9015086,7,5Q7,5.0984914,6.98078,5.19509Q6.96157,5.291689,6.9238800000000005,5.382683Q6.88619,5.473678,6.8314699999999995,5.55557Q6.77675,5.637463,6.70711,5.707107Q6.63746,5.776751,6.5555699999999995,5.83147Q6.47368,5.886188,6.382680000000001,5.923879Q6.29169,5.96157,6.19509,5.980785Q6.09849,6,6,6L3,6Q2.9015086,6,2.80491,5.980785Q2.708311,5.96157,2.617317,5.923879Q2.526322,5.886188,2.44443,5.83147Q2.362537,5.776751,2.292893,5.707107Q2.223249,5.637463,2.16853,5.55557Q2.1138120000000002,5.473678,2.076121,5.382683Q2.03843,5.291689,2.019215,5.19509Q2,5.0984914,2,5Q2,4.9015086,2.019215,4.80491Q2.03843,4.708311,2.076121,4.617317Q2.1138120000000002,4.526322,2.16853,4.44443Q2.223249,4.362537,2.292893,4.292893Q2.362537,4.223249,2.44443,4.16853Q2.526322,4.113812,2.617317,4.076121Q2.708311,4.03843,2.80491,4.019215Q2.9015086,4,3,4Z" fill-rule="evenodd" fill="#000000" fill-opacity="1"/></g><g><path d="M18,18L21,18Q21.098489999999998,18,21.19509,18.019215Q21.29169,18.038429999999998,21.38268,18.076121Q21.47368,18.113812,21.55557,18.16853Q21.63746,18.223249,21.70711,18.292893Q21.77675,18.362537,21.83147,18.44443Q21.88619,18.526322,21.92388,18.617317Q21.961570000000002,18.708311,21.98078,18.80491Q22,18.9015086,22,19Q22,19.0984914,21.98078,19.19509Q21.961570000000002,19.291689,21.92388,19.382683Q21.88619,19.473678,21.83147,19.55557Q21.77675,19.637463,21.70711,19.707107Q21.63746,19.776751,21.55557,19.83147Q21.47368,19.886188,21.38268,19.923879Q21.29169,19.961570000000002,21.19509,19.980785Q21.098489999999998,20,21,20L18,20Q17.9015086,20,17.80491,19.980785Q17.708311,19.961570000000002,17.617317,19.923879Q17.526322,19.886188,17.44443,19.83147Q17.362537,19.776751,17.292893,19.707107Q17.223249,19.637463,17.16853,19.55557Q17.113812,19.473678,17.076121,19.382683Q17.038429999999998,19.291689,17.019215,19.19509Q17,19.0984914,17,19Q17,18.9015086,17.019215,18.80491Q17.038429999999998,18.708311,17.076121,18.617317Q17.113812,18.526322,17.16853,18.44443Q17.223249,18.362537,17.292893,18.292893Q17.362537,18.223249,17.44443,18.16853Q17.526322,18.113812,17.617317,18.076121Q17.708311,18.038429999999998,17.80491,18.019215Q17.9015086,18,18,18Z" fill-rule="evenodd" fill="#000000" fill-opacity="1"/></g><g><ellipse cx="16" cy="19" rx="2" ry="2" fill-opacity="0" stroke-opacity="1" stroke="#000000" fill="none" stroke-width="2"/></g></g></svg>