<svg xmlns="http://www.w3.org/2000/svg" xmlns:xlink="http://www.w3.org/1999/xlink" fill="none" version="1.1" width="24" height="24" viewBox="0 0 24 24"><defs><clipPath id="master_svg0_3288_30254"><rect x="0" y="0" width="24" height="24" rx="0"/></clipPath></defs><g clip-path="url(#master_svg0_3288_30254)"><g><path d="M4,19.0001220703125L20.0002,19.0001220703125Q20.0986,19.0001220703125,20.1952,18.9809220703125Q20.2918,18.9617220703125,20.3828,18.9240220703125Q20.4738,18.8863220703125,20.5557,18.8316220703125Q20.6376,18.7768220703125,20.7073,18.7072220703125Q20.7769,18.6376220703125,20.8316,18.5557220703125Q20.8863,18.4738220703125,20.924,18.3828220703125Q20.9617,18.2918220703125,20.9809,18.1952220703125Q21.0002,18.0986220703125,21.0002,18.0001220703125L21.0002,14.0214220703125Q21.0002,13.4001220703125,20.5608,12.9608220703125Q20.1214,12.5214220703125,19.5002,12.5214220703125L15.1315,12.5214220703125Q15.1304,12.3561620703125,15.1304,12.1397220703125Q15.1304,12.0637520703125,15.6382,11.5199420703125Q17.5683,9.453172070312501,17.5683,6.9265220703125Q17.5683,4.0980820703125005,15.7848,2.6535080703125Q14.3609,1.5001220703125,12.16,1.5001220703125Q9.94007,1.5001220703125,8.44133,2.6327840703125Q6.51105,4.0915720703125,6.51105,6.9265220703125Q6.51105,9.5495620703125,8.54521,11.7440120703125Q8.86332,12.0871820703125,8.94684,12.2061420703125Q8.95532,12.2182020703125,8.961780000000001,12.2278020703125Q8.96144,12.3931820703125,8.95953,12.5214220703125L4.501507,12.5214220703125Q3.8810729999999998,12.5221220703125,3.442195,12.9607220703125Q3.003318,13.3993220703125,3.002305,14.0208220703125L3,17.9995220703125L3,18.0001220703125Q3,18.0986220703125,3.019215,18.1952220703125Q3.03843,18.2918220703125,3.076121,18.3828220703125Q3.1138120000000002,18.4738220703125,3.16853,18.5557220703125Q3.223249,18.6376220703125,3.292893,18.7072220703125Q3.362537,18.7768220703125,3.44443,18.8316220703125Q3.526322,18.8863220703125,3.617317,18.9240220703125Q3.708311,18.9617220703125,3.80491,18.9809220703125Q3.9015086,19.0001220703125,4,19.0001220703125ZM19.0002,17.0001220703125L5.00058,17.0001220703125L5.00202,14.5214220703125L9.50355,14.5214220703125Q10.59526,14.5214220703125,10.872679999999999,13.4495220703125Q10.96186,13.1049220703125,10.96185,12.1550720703125L10.96185,12.1397220703125Q10.96185,11.4090920703125,10.011980000000001,10.3843720703125Q8.511050000000001,8.7651820703125,8.511050000000001,6.9265220703125Q8.511050000000001,5.0870020703125,9.647179999999999,4.2283720703125Q10.61081,3.5001220703125,12.16,3.5001220703125Q13.65249,3.5001220703125,14.526,4.2076520703125Q15.5683,5.0518820703125,15.5683,6.9265220703125Q15.5683,8.083702070312501,15.1217,8.927042070312499Q14.8578,9.4252820703125,14.1765,10.1548920703125Q13.13035,11.2750920703125,13.13035,12.1397220703125Q13.13035,13.2362220703125,13.21077,13.5483220703125Q13.4615,14.5214220703125,14.5206,14.5214220703125L19.0002,14.5214220703125L19.0002,17.0001220703125Z" fill-rule="evenodd" fill="#000000" fill-opacity="1"/></g><g><path d="M4,20L20,20Q20.0985,20,20.1951,20.019215Q20.2917,20.038429999999998,20.3827,20.076121Q20.4737,20.113812,20.5556,20.16853Q20.6375,20.223249,20.7071,20.292893Q20.7767,20.362537,20.8315,20.44443Q20.8862,20.526322,20.9239,20.617317Q20.9616,20.708311,20.9808,20.80491Q21,20.9015086,21,21Q21,21.0984914,20.9808,21.19509Q20.9616,21.291689,20.9239,21.382683Q20.8862,21.473678,20.8315,21.55557Q20.7767,21.637463,20.7071,21.707107Q20.6375,21.776751,20.5556,21.83147Q20.4737,21.886188,20.3827,21.923879Q20.2917,21.961570000000002,20.1951,21.980785Q20.0985,22,20,22L4,22Q3.9015086,22,3.80491,21.980785Q3.708311,21.961570000000002,3.617317,21.923879Q3.526322,21.886188,3.44443,21.83147Q3.362537,21.776751,3.292893,21.707107Q3.223249,21.637463,3.16853,21.55557Q3.1138120000000002,21.473678,3.076121,21.382683Q3.03843,21.291689,3.019215,21.19509Q3,21.0984914,3,21Q3,20.9015086,3.019215,20.80491Q3.03843,20.708311,3.076121,20.617317Q3.1138120000000002,20.526322,3.16853,20.44443Q3.223249,20.362537,3.292893,20.292893Q3.362537,20.223249,3.44443,20.16853Q3.526322,20.113812,3.617317,20.076121Q3.708311,20.038429999999998,3.80491,20.019215Q3.9015086,20,4,20Z" fill-rule="evenodd" fill="#000000" fill-opacity="1"/></g></g></svg>