<svg xmlns="http://www.w3.org/2000/svg" xmlns:xlink="http://www.w3.org/1999/xlink" fill="none" version="1.1" width="24" height="24" viewBox="0 0 24 24"><defs><clipPath id="master_svg0_3590_30165"><rect x="0" y="0" width="24" height="24" rx="0"/></clipPath></defs><g clip-path="url(#master_svg0_3590_30165)"><g><path d="M16.1196,17.530414539527893C16.084,17.499514539527894,16.0506,17.466114539527894,16.0197,17.43051453952789L5.82466,7.235474539527893L2.34463,3.7554445395278933C2.12573,3.5655045395278933,2.000000238419,3.289944539527893,2.000000238419,3.000134539527893C2.000000238419,2.447854539527893,2.44772,2.000134139527893,3,2.000134139527893C3.28981,2.000134139527893,3.5653699999999997,2.125864539527893,3.7553099999999997,2.344764539527893L6.31381,4.903264539527893C6.95824,3.994334539527893,7.80225,3.2763845395278928,8.84586,2.749404539527893C10.31822,2.005914139527893,11.86063,1.8077945395278932,13.4731,2.155034539527893C15.0856,2.502273539527893,16.4097,3.317694539527893,17.4456,4.601304539527893C18.4814,5.884914539527893,18.9987,7.351444539527893,18.9975,9.000874539527892L18.9975,9.750134539527892C18.9945,11.799054539527893,19.6791,13.583614539527893,21.0514,15.103714539527893C21.2287,15.300114539527893,21.3207,15.558814539527893,21.3072,15.823014539527893C21.2937,16.087214539527892,21.1758,16.335314539527893,20.9794,16.512514539527892C20.8852,16.597614539527893,20.7756,16.663914539527894,20.6565,16.70791453952789C20.0248,16.941114539527895,19.3857,17.148014539527892,18.7391,17.32861453952789L21.6554,20.244814539527894C21.8743,20.434714539527892,22,20.710314539527893,22,21.000114539527893C22,21.55241453952789,21.5523,22.000114539527893,21,22.000114539527893C20.7102,22.000114539527893,20.4346,21.874414539527894,20.2447,21.655514539527893L16.1196,17.530414539527893ZM18.6545,15.275814539527893C17.5501,13.646114539527893,16.9994,11.804184539527894,17.002499999999998,9.750134539527892L17.002499999999998,8.999404539527893C17.0045,6.304094539527893,15.688,4.672734539527893,13.0531,4.105324539527893C10.64688,3.587154539527893,8.87752,4.330194539527893,7.74501,6.334464539527893L17.0968,15.686314539527894C17.621299999999998,15.567814539527893,18.1405,15.430914539527894,18.6545,15.275814539527893ZM6.988,10.230134539527892C6.988,10.272224539527894,6.98534,10.314264539527892,6.98005,10.356014539527893C6.87293,12.177814539527892,6.32728,13.817614539527893,5.3431,15.275514539527894C6.59943,15.655114539527894,7.88225,15.924414539527893,9.191559999999999,16.08331453952789C9.23772,16.085514539527892,9.283660000000001,16.091014539527894,9.32907,16.09961453952789C10.50824,16.23571453952789,11.69088,16.28131453952789,12.877,16.236214539527893C12.9136,16.232114539527892,12.9503,16.230114539527893,12.987,16.230114539527893C13.5393,16.230114539527893,13.987,16.677814539527894,13.987,17.230114539527893C13.987,17.782414539527892,13.5393,18.230114539527893,12.987,18.230114539527893L12.9558,18.229614539527894C11.94574,18.268114539527893,10.93801,18.246114539527895,9.93261,18.16361453952789C9.88991,19.001214539527894,10.35558,19.589314539527894,11.32963,19.927914539527894C12.557,20.354614539527894,13.397,19.969914539527892,13.8496,18.773614539527895C13.9735,18.346214539527892,14.365,18.052114539527892,14.81,18.052114539527892C15.3623,18.052114539527892,15.81,18.499814539527893,15.81,19.052114539527892C15.81,19.194414539527894,15.7796,19.335014539527894,15.7209,19.464614539527894C15.3444,20.457014539527894,14.674,21.18341453952789,13.7095,21.64391453952789C12.7209,22.115914539527893,11.70926,22.172014539527893,10.67457,21.812314539527893C9.639859999999999,21.452614539527893,8.88119,20.78111453952789,8.39856,19.79771453952789C8.09771,19.184714539527892,7.95833,18.561014539527893,7.98042,17.926614539527893C6.39825,17.67131453952789,4.85233,17.265014539527893,3.34265,16.70791453952789C3.2234,16.663914539527894,3.1136600000000003,16.597514539527893,3.0193399999999997,16.512314539527893C2.610538,16.143014539527893,2.5785080000000002,15.512314539527893,2.947788,15.103514539527893C4.19725,13.720314539527893,4.8773599999999995,12.100814539527892,4.98811,10.245114539527894L4.9879999999999995,10.230134539527892C4.9879999999999995,9.677854539527893,5.43572,9.230134539527892,5.9879999999999995,9.230134539527892C6.54028,9.230134539527892,6.988,9.677854539527893,6.988,10.230134539527892Z" fill="#000000" fill-opacity="1"/></g></g></svg>