<svg xmlns="http://www.w3.org/2000/svg" xmlns:xlink="http://www.w3.org/1999/xlink" fill="none" version="1.1" width="24" height="24" viewBox="0 0 24 24"><defs><clipPath id="master_svg0_3590_30167"><rect x="0" y="0" width="24" height="24" rx="0"/></clipPath></defs><g clip-path="url(#master_svg0_3590_30167)"><g><path d="M20.65728804283142,16.7101C19.14728804283142,17.2675,17.60098804283142,17.6739,16.01838804283142,17.9292C16.04908804283142,18.7851,15.78668804283142,19.5937,15.231188042831421,20.355C14.432288042831422,21.4498,13.35528804283142,21.9972,11.99998804283142,21.9972C10.64473804283142,21.9972,9.56768804283142,21.4498,8.76881804283142,20.355C8.213268042831421,19.5937,7.950858042831421,18.7851,7.9815880428314205,17.929000000000002C6.395558042831421,17.673099999999998,4.848888042831421,17.2668,3.341558042831421,16.7101C3.092768042831421,16.6182,2.890658042831421,16.4312,2.779707742831421,16.1904C2.668757742831421,15.9495,2.658037742831421,15.6744,2.7499177428314208,15.4256C2.794018042831421,15.3062,2.860508042831421,15.1963,2.9458280428314207,15.1018C4.318048042831421,13.5823,5.002768042831421,11.79878,4.99998804283142,9.75135L4.99998804283142,9C4.99998804283142,7.06701,5.683408042831421,5.41709,7.050238042831421,4.05025C8.41706804283142,2.6834189999999998,10.06698804283142,1.999999046326,11.99998804283142,1.999999046326C13.93298804283142,1.999999046326,15.58288804283142,2.6834189999999998,16.94968804283142,4.05025C18.31658804283142,5.41709,18.999988042831422,7.06701,18.999988042831422,9L18.999988042831422,9.75C18.996888042831422,11.79827,19.681388042831422,13.5822,21.053288042831422,15.1019C21.42338804283142,15.5119,21.39098804283142,16.144199999999998,20.98108804283142,16.5143C20.88658804283142,16.599600000000002,20.77668804283142,16.6661,20.65728804283142,16.7101ZM14.74158804283142,16.0887C16.07188804283142,15.931,17.37498804283142,15.6596,18.65068804283142,15.2744C17.547188042831422,13.6449,16.996888042831422,11.80347,16.99998804283142,9.75L16.99998804283142,9C16.99998804283142,7.61929,16.51178804283142,6.44078,15.535488042831421,5.46447C14.55918804283142,4.488160000000001,13.380688042831421,4,11.99998804283142,4C10.619278042831422,4,9.44076804283142,4.488160000000001,8.46445804283142,5.46447C7.488148042831421,6.44078,6.999988042831421,7.61929,6.999988042831421,9L6.999988042831421,9.74864C7.002778042831421,11.80301,6.452278042831421,13.645,5.348508042831421,15.2745C6.62282804283142,15.6591,7.926918042831421,15.9306,9.260778042831422,16.089C11.08669804283142,16.305500000000002,12.912788042831421,16.305500000000002,14.73918804283142,16.089L14.74158804283142,16.0887ZM11.99998804283142,19.9972C12.67758804283142,19.9972,13.216088042831421,19.7235,13.61558804283142,19.1761C13.847888042831421,18.8578,13.97768804283142,18.5228,14.004988042831421,18.1713C12.668318042831421,18.2782,11.33166804283142,18.2782,9.995018042831422,18.1713C10.02228804283142,18.5228,10.152088042831421,18.8578,10.384398042831421,19.1761C10.783838042831421,19.7235,11.322368042831421,19.9972,11.99998804283142,19.9972Z" fill="#000000" fill-opacity="1"/></g><g><path d="M12.9959716796875,7.05419921875L12.9959716796875,10.80419921875C12.9959716796875,11.35648921875,12.5482516796875,11.80419921875,11.9959716796875,11.80419921875C11.4436916796875,11.80419921875,10.9959716796875,11.35648921875,10.9959716796875,10.80419921875L10.9959716796875,7.05419921875C10.9959716796875,6.50191921875,11.4436916796875,6.05419921875,11.9959716796875,6.05419921875C12.5482516796875,6.05419921875,12.9959716796875,6.50191921875,12.9959716796875,7.05419921875ZM10.9959716796875,13.80419921875C10.9959716796875,13.25191921875,11.4436916796875,12.80419921875,11.9959716796875,12.80419921875L12.0039716796875,12.80419921875C12.5562616796875,12.80419921875,13.0039716796875,13.25191921875,13.0039716796875,13.80419921875L13.0039716796875,13.81219921875C13.0039716796875,14.36448921875,12.5562616796875,14.81219921875,12.0039716796875,14.81219921875L11.9959716796875,14.81219921875C11.4436916796875,14.81219921875,10.9959715604785,14.36448921875,10.9959715604785,13.81219921875L10.9959716796875,13.80419921875Z" fill="#000000" fill-opacity="1"/></g></g></svg>