<svg xmlns="http://www.w3.org/2000/svg" xmlns:xlink="http://www.w3.org/1999/xlink" fill="none" version="1.1" width="24" height="24" viewBox="0 0 24 24"><defs><clipPath id="master_svg0_2145_33482"><rect x="0" y="0" width="24" height="24" rx="0"/></clipPath></defs><g clip-path="url(#master_svg0_2145_33482)"><g><path d="M16.018399963760373,17.9292Q18.392299963760376,17.5462,20.657299963760376,16.7101Q20.838099963760374,16.6434,20.981099963760375,16.5143Q21.054199963760375,16.4483,21.112999963760377,16.369300000000003Q21.171899963760374,16.290300000000002,21.214099963760376,16.2013Q21.256399963760376,16.1124,21.280499963760377,16.0169Q21.304699963760378,15.9214,21.309699963760377,15.823Q21.314699963760376,15.7247,21.300499963760377,15.6272Q21.286199963760374,15.5298,21.253199963760377,15.437Q21.220199963760376,15.3442,21.169699963760376,15.2596Q21.119299963760376,15.175,21.053299963760377,15.1019Q18.995399963760377,12.82242,18.999999963760374,9.75L18.999999963760374,9Q18.999999963760374,6.10051,16.949699963760374,4.05025Q14.899499963760375,2,11.999999963760375,2Q9.100499963760376,2,7.0502499637603755,4.05025Q4.999999963760376,6.10051,4.999999963760376,9L4.999999963760376,9.75135Q5.004169963760376,12.82249,2.945834963760376,15.1018Q2.816682963760376,15.2448,2.749924963760376,15.4256Q2.681019963760376,15.6122,2.6887579637603762,15.8109Q2.696500963760376,16.009700000000002,2.779715963760376,16.1904Q2.862931963760376,16.371000000000002,3.0089529637603762,16.5061Q3.154973963760376,16.641199999999998,3.341568963760376,16.7101Q5.602559963760376,17.545099999999998,7.981599963760376,17.929000000000002Q7.935499963760376,19.2131,8.768829963760375,20.355Q9.967129963760376,21.9972,11.999999963760375,21.9972Q14.032899963760377,21.9972,15.231199963760377,20.355Q16.064399963760376,19.2131,16.018399963760373,17.9292ZM9.995029963760377,18.171300000000002Q10.035939963760377,18.6986,10.384409963760376,19.1761Q10.983569963760376,19.9972,11.999999963760375,19.9972Q13.016429963760377,19.9972,13.615589963760376,19.1761Q13.964099963760376,18.6986,14.004999963760376,18.171300000000002Q11.999999963760375,18.3316,9.995029963760377,18.171300000000002ZM14.739199963760376,16.089L14.739399963760375,16.088900000000002L14.741399963760376,16.0887L14.741599963760375,16.0887Q16.737099963760375,15.8522,18.650699963760374,15.2744Q16.995399963760377,12.83022,16.999999963760374,9.75L16.999999963760374,9Q16.999999963760374,6.928929999999999,15.535499963760376,5.46447Q14.071099963760377,4,11.999999963760375,4Q9.928929963760375,4,8.464469963760376,5.46447Q6.999999963760375,6.928929999999999,6.999999963760375,9L6.999999963760375,9.74864Q7.004179963760376,12.8302,5.348519963760376,15.2745Q7.259999963760376,15.8514,9.260789963760377,16.089Q11.999669963760375,16.413800000000002,14.738599963760375,16.089L14.739199963760376,16.089L14.739199963760376,16.089Z" fill-rule="evenodd" fill="#000000" fill-opacity="1"/></g></g></svg>