<svg xmlns="http://www.w3.org/2000/svg" xmlns:xlink="http://www.w3.org/1999/xlink" fill="none" version="1.1" width="24" height="24" viewBox="0 0 24 24"><defs><clipPath id="master_svg0_1600_29421"><rect x="0" y="0" width="24" height="24" rx="0"/></clipPath></defs><g clip-path="url(#master_svg0_1600_29421)"><g><path d="M6.304001878776551,16.500016450881958L17.69596187877655,16.500016450881958C17.94596187877655,16.35001645088196,18.21596187877655,16.23001645088196,18.49996187877655,16.145016450881958L18.49996187877655,13.999016450881959C18.49996187877655,13.446716450881958,18.05226187877655,12.999016450881959,17.49996187877655,12.999016450881959L6.50000187877655,12.999016450881959C5.94771187877655,12.999016450881959,5.50000187877655,13.446716450881958,5.50000187877655,13.999016450881959L5.50000187877655,16.145016450881958C5.7850018787765505,16.23001645088196,6.05500187877655,16.35001645088196,6.304001878776551,16.500016450881958ZM3.5000018787765503,16.145016450881958L3.5000018787765503,13.999016450881959C3.5000018787765503,12.342116450881958,4.84314187877655,10.998996450881958,6.50000187877655,10.998996450881958L10.999961878776551,10.998996450881958L10.999961878776551,8.872996450881958C8.30182187877655,8.176336450881958,7.12501187877655,5.003236450881958,8.71643187877655,2.7156764508819577C10.30785187877655,0.42812845088195806,13.69216187877655,0.42812845088195806,15.28356187877655,2.7156764508819577C16.874961878776553,5.003236450881958,15.698161878776551,8.176336450881958,12.999961878776551,8.872996450881958L12.999961878776551,10.998996450881958L17.49996187877655,10.998996450881958C19.15686187877655,10.998996450881958,20.49996187877655,12.342116450881958,20.49996187877655,13.999016450881959L20.49996187877655,16.145016450881958C22.68426187877655,16.796116450881957,23.67336187877655,19.327916450881958,22.50896187877655,21.287216450881957C21.34456187877655,23.24651645088196,18.64786187877655,23.58801645088196,17.03196187877655,21.980616450881957C15.41596187877655,20.37331645088196,15.74296187877655,17.67491645088196,17.69596187877655,16.500016450881958L6.304001878776551,16.500016450881958C8.25706187877655,17.67491645088196,8.58401187877655,20.37331645088196,6.96805187877655,21.980616450881957C5.35209187877655,23.58801645088196,2.6554418787765504,23.24651645088196,1.4910378787765504,21.287216450881957C0.3266348787765503,19.327916450881958,1.3157628787765503,16.796116450881957,3.5000018787765503,16.145016450881958ZM11.999961878776551,6.998996450881958C13.10456187877655,6.998996450881958,13.999961878776551,6.103566450881958,13.999961878776551,4.9989964508819575C13.999961878776551,3.894426450881958,13.10456187877655,2.998996450881958,11.999961878776551,2.998996450881958C10.89543187877655,2.998996450881958,10.00000187877655,3.894426450881958,10.00000187877655,4.9989964508819575C10.00000187877655,6.103566450881958,10.89543187877655,6.998996450881958,11.999961878776551,6.998996450881958ZM19.49996187877655,21.000016450881958C20.32846187877655,21.000016450881958,20.99996187877655,20.328416450881956,20.99996187877655,19.500016450881958C20.99996187877655,18.67161645088196,20.32846187877655,18.000016450881958,19.49996187877655,18.000016450881958C18.67156187877655,18.000016450881958,17.99996187877655,18.67161645088196,17.99996187877655,19.500016450881958C17.99996187877655,20.328416450881956,18.67156187877655,21.000016450881958,19.49996187877655,21.000016450881958ZM4.50000187877655,21.000016450881958C5.32843187877655,21.000016450881958,6.00000187877655,20.328416450881956,6.00000187877655,19.500016450881958C6.00000187877655,18.67161645088196,5.32843187877655,18.000016450881958,4.50000187877655,18.000016450881958C3.6715718787765503,18.000016450881958,3.0000018787765503,18.67161645088196,3.0000018787765503,19.500016450881958C3.0000018787765503,20.328416450881956,3.6715718787765503,21.000016450881958,4.50000187877655,21.000016450881958Z" fill="#000000" fill-opacity="1"/></g></g></svg>