<svg xmlns="http://www.w3.org/2000/svg" xmlns:xlink="http://www.w3.org/1999/xlink" fill="none" version="1.1" width="24" height="24" viewBox="0 0 24 24"><defs><clipPath id="master_svg0_987_09306"><rect x="0" y="0" width="24" height="24" rx="0"/></clipPath></defs><g clip-path="url(#master_svg0_987_09306)"><g><path d="M5.75,3Q5.75,2.9015086,5.76921,2.80491Q5.78843,2.708311,5.8261199999999995,2.617317Q5.86381,2.526322,5.9185300000000005,2.44443Q5.97325,2.362537,6.04289,2.292893Q6.11254,2.223249,6.1944300000000005,2.16853Q6.27632,2.1138120000000002,6.367319999999999,2.076121Q6.45831,2.03843,6.55491,2.019215Q6.65151,2,6.75,2Q6.84849,2,6.94509,2.019215Q7.04169,2.03843,7.13268,2.076121Q7.22368,2.1138120000000002,7.30557,2.16853Q7.38746,2.223249,7.45711,2.292893Q7.52675,2.362537,7.58147,2.44443Q7.63619,2.526322,7.67388,2.617317Q7.71157,2.708311,7.73078,2.80491Q7.75,2.9015086,7.75,3L7.75,4.25L16.25,4.25L16.25,3Q16.25,2.9015086,16.269199999999998,2.80491Q16.2884,2.708311,16.3261,2.617317Q16.363799999999998,2.526322,16.4185,2.44443Q16.4732,2.362537,16.5429,2.292893Q16.6125,2.223249,16.6944,2.16853Q16.7763,2.1138120000000002,16.8673,2.076121Q16.9583,2.03843,17.0549,2.019215Q17.1515,2,17.25,2Q17.3485,2,17.4451,2.019215Q17.5417,2.03843,17.6327,2.076121Q17.7237,2.1138120000000002,17.8056,2.16853Q17.8875,2.223249,17.9571,2.292893Q18.026699999999998,2.362537,18.0815,2.44443Q18.136200000000002,2.526322,18.1739,2.617317Q18.2116,2.708311,18.230800000000002,2.80491Q18.25,2.9015086,18.25,3L18.25,4.25L18.75,4.25Q20.0962,4.25,21.0481,5.2019Q22,6.15381,22,7.5L22,18.75Q22,20.0962,21.0481,21.0481Q20.0962,22,18.75,22L5.25,22Q3.903807,22,2.9519028,21.0481Q2,20.0962,2,18.75L2,7.5Q2,6.15381,2.9519027,5.2019Q3.903806,4.25,5.25,4.25L5.75,4.25L5.75,3ZM6.75,6.25L5.25,6.25Q4.7322299999999995,6.25,4.3661200000000004,6.6161200000000004Q4,6.9822299999999995,4,7.5L4,8.238959999999999Q4.5755099999999995,8,5.25,8L18.75,8Q19.4245,8,20,8.238959999999999L20,7.5Q20,6.25,18.75,6.25L6.75,6.25ZM20,11.25Q20,10,18.75,10L5.25,10Q4.7322299999999995,10,4.3661200000000004,10.366119999999999Q4,10.732230000000001,4,11.25L4,18.75Q4,19.2678,4.3661200000000004,19.6339Q4.7322299999999995,20,5.25,20L18.75,20Q20,20,20,18.75L20,11.25Z" fill-rule="evenodd" fill="#171717" fill-opacity="1"/></g><g><path d="M12.62103271484375,11.85760498046875L12.62103271484375,11.86560059046875Q12.62103271484375,11.96409198046875,12.640242714843751,12.06069098046875Q12.65946271484375,12.15728998046875,12.69715271484375,12.24828398046875Q12.73484271484375,12.33927798046875,12.78956271484375,12.42117098046875Q12.84428271484375,12.50306298046875,12.91392271484375,12.57270698046875Q12.98357271484375,12.64235098046875,13.06546271484375,12.69706998046875Q13.14735271484375,12.75178898046875,13.23835271484375,12.78947998046875Q13.32934271484375,12.82717098046875,13.42594271484375,12.84638598046875Q13.52254271484375,12.86560498046875,13.62103271484375,12.86560498046875L13.62903271484375,12.86560498046875Q13.72752271484375,12.86560498046875,13.82411271484375,12.84638598046875Q13.92071271484375,12.82717098046875,14.01171271484375,12.78947998046875Q14.102702714843751,12.75178898046875,14.184592714843749,12.69706998046875Q14.26649271484375,12.64235098046875,14.33613271484375,12.57270698046875Q14.405782714843749,12.50306298046875,14.460492714843749,12.42117098046875Q14.51521271484375,12.33927798046875,14.55290271484375,12.24828398046875Q14.590602714843751,12.15728998046875,14.60981271484375,12.06069098046875Q14.62903271484375,11.96409198046875,14.62903271484375,11.86560059046875L14.62903271484375,11.85760498046875Q14.62903271484375,11.75911358046875,14.60981271484375,11.66251498046875Q14.590602714843751,11.56591598046875,14.55290271484375,11.47492198046875Q14.51521271484375,11.38392698046875,14.460492714843749,11.30203498046875Q14.405782714843749,11.22014198046875,14.33613271484375,11.15049798046875Q14.26649271484375,11.08085398046875,14.184592714843749,11.02613498046875Q14.102702714843751,10.97141698046875,14.01171271484375,10.93372598046875Q13.92071271484375,10.89603498046875,13.82411271484375,10.876819980468749Q13.72752271484375,10.85760498046875,13.62903271484375,10.85760498046875L13.62103271484375,10.85760498046875Q13.52254271484375,10.85760498046875,13.42594271484375,10.876819980468749Q13.32934271484375,10.89603498046875,13.23835271484375,10.93372598046875Q13.14735271484375,10.97141698046875,13.06546271484375,11.02613498046875Q12.98357271484375,11.08085398046875,12.91392271484375,11.15049798046875Q12.84428271484375,11.22014198046875,12.78956271484375,11.30203498046875Q12.73484271484375,11.38392698046875,12.69715271484375,11.47492198046875Q12.65946271484375,11.56591598046875,12.640242714843751,11.66251498046875Q12.62103271484375,11.75911358046875,12.62103271484375,11.85760498046875ZM17.87903271484375,11.86560059046875L17.87903271484375,11.85760498046875Q17.87903271484375,11.75911358046875,17.859832714843748,11.66251498046875Q17.84063271484375,11.56591598046875,17.80293271484375,11.47492198046875Q17.765232714843748,11.38392698046875,17.71053271484375,11.30203498046875Q17.65573271484375,11.22014198046875,17.58613271484375,11.15049798046875Q17.51653271484375,11.08085398046875,17.43463271484375,11.02613498046875Q17.35273271484375,10.97141698046875,17.261732714843752,10.93372598046875Q17.17073271484375,10.89603498046875,17.07412271484375,10.876819980468749Q16.97752271484375,10.85760498046875,16.87903271484375,10.85760498046875L16.87103271484375,10.85760498046875Q16.772542714843752,10.85760498046875,16.67594271484375,10.876819980468749Q16.57934271484375,10.89603498046875,16.48835271484375,10.93372598046875Q16.39735271484375,10.97141698046875,16.31546271484375,11.02613498046875Q16.23357271484375,11.08085398046875,16.16392271484375,11.15049798046875Q16.09428271484375,11.22014198046875,16.03956271484375,11.30203498046875Q15.98484271484375,11.38392698046875,15.94715271484375,11.47492198046875Q15.90946271484375,11.56591598046875,15.89024271484375,11.66251498046875Q15.87103271484375,11.75911358046875,15.87103271484375,11.85760498046875L15.87103271484375,11.86560059046875Q15.87103271484375,11.96409198046875,15.89024271484375,12.06069098046875Q15.90946271484375,12.15728998046875,15.94715271484375,12.24828398046875Q15.98484271484375,12.33927798046875,16.03956271484375,12.42117098046875Q16.09428271484375,12.50306298046875,16.16392271484375,12.57270698046875Q16.23357271484375,12.64235098046875,16.31546271484375,12.69706998046875Q16.39735271484375,12.75178898046875,16.48835271484375,12.78947998046875Q16.57934271484375,12.82717098046875,16.67594271484375,12.84638598046875Q16.772542714843752,12.86560498046875,16.87103271484375,12.86560498046875L16.87903271484375,12.86560498046875Q16.97752271484375,12.86560498046875,17.07412271484375,12.84638598046875Q17.17073271484375,12.82717098046875,17.261732714843752,12.78947998046875Q17.35273271484375,12.75178898046875,17.43463271484375,12.69706998046875Q17.51653271484375,12.64235098046875,17.58613271484375,12.57270698046875Q17.65573271484375,12.50306298046875,17.71053271484375,12.42117098046875Q17.765232714843748,12.33927798046875,17.80293271484375,12.24828398046875Q17.84063271484375,12.15728998046875,17.859832714843748,12.06069098046875Q17.87903271484375,11.96409198046875,17.87903271484375,11.86560059046875ZM6.12103271484375,14.88830498046875L6.12103271484375,14.89630498046875Q6.12103271484375,14.99479498046875,6.14024771484375,15.091394980468749Q6.15946271484375,15.18799498046875,6.19715371484375,15.27898498046875Q6.23484471484375,15.36997498046875,6.28956271484375,15.45187498046875Q6.34428171484375,15.53376498046875,6.41392571484375,15.60340498046875Q6.48356971484375,15.67305498046875,6.56546271484375,15.72777498046875Q6.64735471484375,15.78248498046875,6.73834971484375,15.820184980468749Q6.82934371484375,15.85787498046875,6.92594271484375,15.87708498046875Q7.02254131484375,15.89630498046875,7.12103271484375,15.89630498046875L7.12902832484375,15.89630498046875Q7.2275197148437496,15.89630498046875,7.32411871484375,15.87708498046875Q7.42071771484375,15.85787498046875,7.51171171484375,15.820184980468749Q7.60270571484375,15.78248498046875,7.68459871484375,15.72777498046875Q7.76649071484375,15.67305498046875,7.83613471484375,15.60340498046875Q7.90577871484375,15.53376498046875,7.96049771484375,15.45187498046875Q8.01521671484375,15.36997498046875,8.05290771484375,15.27898498046875Q8.09059871484375,15.18799498046875,8.10981371484375,15.091394980468749Q8.12903271484375,14.99479498046875,8.12903271484375,14.89630498046875L8.12903271484375,14.88830498046875Q8.12903271484375,14.78981498046875,8.10981371484375,14.693214980468749Q8.09059871484375,14.59661498046875,8.05290771484375,14.505624980468749Q8.01521671484375,14.41462498046875,7.96049771484375,14.33273498046875Q7.90577871484375,14.25084498046875,7.83613471484375,14.18119498046875Q7.76649071484375,14.11155498046875,7.68459871484375,14.05683498046875Q7.60270571484375,14.00211498046875,7.51171171484375,13.964424980468749Q7.42071771484375,13.92673498046875,7.32411871484375,13.90752498046875Q7.2275197148437496,13.88830498046875,7.12902832484375,13.88830498046875L7.12103271484375,13.88830498046875Q7.02254131484375,13.88830498046875,6.92594271484375,13.90752498046875Q6.82934371484375,13.92673498046875,6.73834971484375,13.964424980468749Q6.64735471484375,14.00211498046875,6.56546271484375,14.05683498046875Q6.48356971484375,14.11155498046875,6.41392571484375,14.18119498046875Q6.34428171484375,14.25084498046875,6.28956271484375,14.33273498046875Q6.23484471484375,14.41462498046875,6.19715371484375,14.505624980468749Q6.15946271484375,14.59661498046875,6.14024771484375,14.693214980468749Q6.12103271484375,14.78981498046875,6.12103271484375,14.88830498046875ZM9.37103271484375,14.88830498046875L9.37103271484375,14.89630498046875Q9.37103271484375,14.99479498046875,9.390242714843751,15.091394980468749Q9.40946271484375,15.18799498046875,9.44715271484375,15.27898498046875Q9.48484271484375,15.36997498046875,9.53956271484375,15.45187498046875Q9.59428271484375,15.53376498046875,9.66392271484375,15.60340498046875Q9.73357271484375,15.67305498046875,9.81546271484375,15.72777498046875Q9.89735271484375,15.78248498046875,9.98835271484375,15.820184980468749Q10.07934271484375,15.85787498046875,10.17594271484375,15.87708498046875Q10.27254271484375,15.89630498046875,10.37103271484375,15.89630498046875L10.37903271484375,15.89630498046875Q10.47752271484375,15.89630498046875,10.57412271484375,15.87708498046875Q10.67071271484375,15.85787498046875,10.76171271484375,15.820184980468749Q10.85270271484375,15.78248498046875,10.93460271484375,15.72777498046875Q11.01649271484375,15.67305498046875,11.08613271484375,15.60340498046875Q11.155782714843749,15.53376498046875,11.210492714843749,15.45187498046875Q11.26521271484375,15.36997498046875,11.30290271484375,15.27898498046875Q11.340602714843751,15.18799498046875,11.35981271484375,15.091394980468749Q11.37902271484375,14.99479498046875,11.37903271484375,14.89630498046875L11.37903271484375,14.88830498046875Q11.37902271484375,14.78981498046875,11.35981271484375,14.693214980468749Q11.340602714843751,14.59661498046875,11.30290271484375,14.505624980468749Q11.26521271484375,14.41462498046875,11.210492714843749,14.33273498046875Q11.155782714843749,14.25084498046875,11.08613271484375,14.18119498046875Q11.01649271484375,14.11155498046875,10.93460271484375,14.05683498046875Q10.85270271484375,14.00211498046875,10.76171271484375,13.964424980468749Q10.67071271484375,13.92673498046875,10.57412271484375,13.90752498046875Q10.47752271484375,13.88830498046875,10.37903271484375,13.88830498046875L10.37103271484375,13.88830498046875Q10.27254271484375,13.88830498046875,10.17594271484375,13.90752498046875Q10.07934271484375,13.92673498046875,9.98835271484375,13.964424980468749Q9.89735271484375,14.00211498046875,9.81546271484375,14.05683498046875Q9.73357271484375,14.11155498046875,9.66392271484375,14.18119498046875Q9.59428271484375,14.25084498046875,9.53956271484375,14.33273498046875Q9.48484271484375,14.41462498046875,9.44715271484375,14.505624980468749Q9.40946271484375,14.59661498046875,9.390242714843751,14.693214980468749Q9.37103271484375,14.78981498046875,9.37103271484375,14.88830498046875ZM12.62103271484375,14.88830498046875L12.62103271484375,14.89630498046875Q12.62103271484375,14.99479498046875,12.640242714843751,15.091394980468749Q12.65946271484375,15.18799498046875,12.69715271484375,15.27898498046875Q12.73484271484375,15.36997498046875,12.78956271484375,15.45187498046875Q12.84428271484375,15.53376498046875,12.91392271484375,15.60340498046875Q12.98357271484375,15.67305498046875,13.06546271484375,15.72777498046875Q13.14735271484375,15.78248498046875,13.23835271484375,15.820184980468749Q13.32934271484375,15.85787498046875,13.42594271484375,15.87708498046875Q13.52254271484375,15.89630498046875,13.62103271484375,15.89630498046875L13.62903271484375,15.89630498046875Q13.72752271484375,15.89630498046875,13.82411271484375,15.87708498046875Q13.92071271484375,15.85787498046875,14.01171271484375,15.820184980468749Q14.102702714843751,15.78248498046875,14.184592714843749,15.72777498046875Q14.26649271484375,15.67305498046875,14.33613271484375,15.60340498046875Q14.405782714843749,15.53376498046875,14.460492714843749,15.45187498046875Q14.51521271484375,15.36997498046875,14.55290271484375,15.27898498046875Q14.590602714843751,15.18799498046875,14.60981271484375,15.091394980468749Q14.62903271484375,14.99479498046875,14.62903271484375,14.89630498046875L14.62903271484375,14.88830498046875Q14.62903271484375,14.78981498046875,14.60981271484375,14.693214980468749Q14.590602714843751,14.59661498046875,14.55290271484375,14.505624980468749Q14.51521271484375,14.41462498046875,14.460492714843749,14.33273498046875Q14.405782714843749,14.25084498046875,14.33613271484375,14.18119498046875Q14.26649271484375,14.11155498046875,14.184592714843749,14.05683498046875Q14.102702714843751,14.00211498046875,14.01171271484375,13.964424980468749Q13.92071271484375,13.92673498046875,13.82411271484375,13.90752498046875Q13.72752271484375,13.88830498046875,13.62903271484375,13.88830498046875L13.62103271484375,13.88830498046875Q13.52254271484375,13.88830498046875,13.42594271484375,13.90752498046875Q13.32934271484375,13.92673498046875,13.23835271484375,13.964424980468749Q13.14735271484375,14.00211498046875,13.06546271484375,14.05683498046875Q12.98357271484375,14.11155498046875,12.91392271484375,14.18119498046875Q12.84428271484375,14.25084498046875,12.78956271484375,14.33273498046875Q12.73484271484375,14.41462498046875,12.69715271484375,14.505624980468749Q12.65946271484375,14.59661498046875,12.640242714843751,14.693214980468749Q12.62103271484375,14.78981498046875,12.62103271484375,14.88830498046875ZM17.87903271484375,14.88830498046875Q17.87903271484375,14.78981498046875,17.859832714843748,14.693214980468749Q17.84063271484375,14.59661498046875,17.80293271484375,14.505624980468749Q17.765232714843748,14.41462498046875,17.71053271484375,14.33273498046875Q17.65573271484375,14.25084498046875,17.58613271484375,14.18119498046875Q17.51653271484375,14.11155498046875,17.43463271484375,14.05683498046875Q17.35273271484375,14.00211498046875,17.261732714843752,13.964424980468749Q17.17073271484375,13.92673498046875,17.07412271484375,13.90752498046875Q16.97752271484375,13.88830498046875,16.87903271484375,13.88830498046875L16.87103271484375,13.88830498046875Q16.772542714843752,13.88830498046875,16.67594271484375,13.90752498046875Q16.57934271484375,13.92673498046875,16.48835271484375,13.964424980468749Q16.39735271484375,14.00211498046875,16.31546271484375,14.05683498046875Q16.23357271484375,14.11155498046875,16.16392271484375,14.18119498046875Q16.09428271484375,14.25084498046875,16.03956271484375,14.33273498046875Q15.98484271484375,14.41462498046875,15.94715271484375,14.505624980468749Q15.90946271484375,14.59661498046875,15.89024271484375,14.693214980468749Q15.87103271484375,14.78981498046875,15.87103271484375,14.88830498046875L15.87103271484375,14.89630498046875Q15.87103271484375,14.99479498046875,15.89024271484375,15.091394980468749Q15.90946271484375,15.18799498046875,15.94715271484375,15.27898498046875Q15.98484271484375,15.36997498046875,16.03956271484375,15.45187498046875Q16.09428271484375,15.53376498046875,16.16392271484375,15.60340498046875Q16.23357271484375,15.67305498046875,16.31546271484375,15.72777498046875Q16.39735271484375,15.78248498046875,16.48835271484375,15.820184980468749Q16.57934271484375,15.85787498046875,16.67594271484375,15.87708498046875Q16.772542714843752,15.89630498046875,16.87103271484375,15.89630498046875L16.87903271484375,15.89630498046875Q16.97752271484375,15.89630498046875,17.07412271484375,15.87708498046875Q17.17073271484375,15.85787498046875,17.261732714843752,15.820184980468749Q17.35273271484375,15.78248498046875,17.43463271484375,15.72777498046875Q17.51653271484375,15.67305498046875,17.58613271484375,15.60340498046875Q17.65573271484375,15.53376498046875,17.71053271484375,15.45187498046875Q17.765232714843748,15.36997498046875,17.80293271484375,15.27898498046875Q17.84063271484375,15.18799498046875,17.859832714843748,15.091394980468749Q17.87903271484375,14.99479498046875,17.87903271484375,14.89630498046875L17.87903271484375,14.88830498046875ZM6.12103271484375,17.87408498046875Q6.12103271484375,17.97257498046875,6.14024771484375,18.069174980468752Q6.15946271484375,18.16577498046875,6.19715371484375,18.256764980468752Q6.23484471484375,18.34776498046875,6.28956271484375,18.42965498046875Q6.34428171484375,18.51154498046875,6.41392571484375,18.58119498046875Q6.48356971484375,18.65083498046875,6.56546271484375,18.70555498046875Q6.64735471484375,18.76027498046875,6.73834971484375,18.79796498046875Q6.82934371484375,18.83565498046875,6.92594271484375,18.85486498046875Q7.02254131484375,18.87408498046875,7.12103271484375,18.87408498046875L7.12902832484375,18.87408498046875Q7.2275197148437496,18.87408498046875,7.32411871484375,18.85486498046875Q7.42071771484375,18.83565498046875,7.51171171484375,18.79796498046875Q7.60270571484375,18.76027498046875,7.68459871484375,18.70555498046875Q7.76649071484375,18.65083498046875,7.83613471484375,18.58119498046875Q7.90577871484375,18.51154498046875,7.96049771484375,18.42965498046875Q8.01521671484375,18.34776498046875,8.05290771484375,18.256764980468752Q8.09059871484375,18.16577498046875,8.10981371484375,18.069174980468752Q8.12903271484375,17.97257498046875,8.12903271484375,17.87408498046875L8.12903271484375,17.86608498046875Q8.12903271484375,17.76759498046875,8.10981371484375,17.67099498046875Q8.09059871484375,17.57439498046875,8.05290771484375,17.483404980468748Q8.01521671484375,17.39241498046875,7.96049771484375,17.31051498046875Q7.90577871484375,17.22862498046875,7.83613471484375,17.15898498046875Q7.76649071484375,17.08933498046875,7.68459871484375,17.03461498046875Q7.60270571484375,16.97989498046875,7.51171171484375,16.942204980468752Q7.42071771484375,16.90451498046875,7.32411871484375,16.88530498046875Q7.2275197148437496,16.86608498046875,7.12902832484375,16.86608498046875L7.12103271484375,16.86608498046875Q7.02254131484375,16.86608498046875,6.92594271484375,16.88530498046875Q6.82934371484375,16.90451498046875,6.73834971484375,16.942204980468752Q6.64735471484375,16.97989498046875,6.56546271484375,17.03461498046875Q6.48356971484375,17.08933498046875,6.41392571484375,17.15898498046875Q6.34428171484375,17.22862498046875,6.28956271484375,17.31051498046875Q6.23484471484375,17.39241498046875,6.19715371484375,17.483404980468748Q6.15946271484375,17.57439498046875,6.14024771484375,17.67099498046875Q6.12103271484375,17.76759498046875,6.12103271484375,17.86608498046875L6.12103271484375,17.87408498046875ZM11.37903271484375,17.87408498046875L11.37903271484375,17.86608498046875Q11.37902271484375,17.76759498046875,11.35981271484375,17.67099498046875Q11.340602714843751,17.57439498046875,11.30290271484375,17.483404980468748Q11.26521271484375,17.39241498046875,11.210492714843749,17.31051498046875Q11.155782714843749,17.22862498046875,11.08613271484375,17.15898498046875Q11.01649271484375,17.08933498046875,10.93460271484375,17.03461498046875Q10.85270271484375,16.97989498046875,10.76171271484375,16.942204980468752Q10.67071271484375,16.90451498046875,10.57412271484375,16.88530498046875Q10.47752271484375,16.86608498046875,10.37903271484375,16.86608498046875L10.37103271484375,16.86608498046875Q10.27254271484375,16.86608498046875,10.17594271484375,16.88530498046875Q10.07934271484375,16.90451498046875,9.98835271484375,16.942204980468752Q9.89735271484375,16.97989498046875,9.81546271484375,17.03461498046875Q9.73357271484375,17.08933498046875,9.66392271484375,17.15898498046875Q9.59428271484375,17.22862498046875,9.53956271484375,17.31051498046875Q9.48484271484375,17.39241498046875,9.44715271484375,17.483404980468748Q9.40946271484375,17.57439498046875,9.390242714843751,17.67099498046875Q9.37103271484375,17.76759498046875,9.37103271484375,17.86608498046875L9.37103271484375,17.87408498046875Q9.37103271484375,17.97257498046875,9.390242714843751,18.069174980468752Q9.40946271484375,18.16577498046875,9.44715271484375,18.256764980468752Q9.48484271484375,18.34776498046875,9.53956271484375,18.42965498046875Q9.59428271484375,18.51154498046875,9.66392271484375,18.58119498046875Q9.73357271484375,18.65083498046875,9.81546271484375,18.70555498046875Q9.89735271484375,18.76027498046875,9.98835271484375,18.79796498046875Q10.07934271484375,18.83565498046875,10.17594271484375,18.85486498046875Q10.27254271484375,18.87408498046875,10.37103271484375,18.87408498046875L10.37903271484375,18.87408498046875Q10.47752271484375,18.87408498046875,10.57412271484375,18.85486498046875Q10.67071271484375,18.83565498046875,10.76171271484375,18.79796498046875Q10.85270271484375,18.76027498046875,10.93460271484375,18.70555498046875Q11.01649271484375,18.65083498046875,11.08613271484375,18.58119498046875Q11.155782714843749,18.51154498046875,11.210492714843749,18.42965498046875Q11.26521271484375,18.34776498046875,11.30290271484375,18.256764980468752Q11.340602714843751,18.16577498046875,11.35981271484375,18.069174980468752Q11.37902271484375,17.97257498046875,11.37903271484375,17.87408498046875ZM12.62103271484375,17.86608498046875L12.62103271484375,17.87408498046875Q12.62103271484375,17.97257498046875,12.640242714843751,18.069174980468752Q12.65946271484375,18.16577498046875,12.69715271484375,18.256764980468752Q12.73484271484375,18.34776498046875,12.78956271484375,18.42965498046875Q12.84428271484375,18.51154498046875,12.91392271484375,18.58119498046875Q12.98357271484375,18.65083498046875,13.06546271484375,18.70555498046875Q13.14735271484375,18.76027498046875,13.23835271484375,18.79796498046875Q13.32934271484375,18.83565498046875,13.42594271484375,18.85486498046875Q13.52254271484375,18.87408498046875,13.62103271484375,18.87408498046875L13.62903271484375,18.87408498046875Q13.72752271484375,18.87408498046875,13.82411271484375,18.85486498046875Q13.92071271484375,18.83565498046875,14.01171271484375,18.79796498046875Q14.102702714843751,18.76027498046875,14.184592714843749,18.70555498046875Q14.26649271484375,18.65083498046875,14.33613271484375,18.58119498046875Q14.405782714843749,18.51154498046875,14.460492714843749,18.42965498046875Q14.51521271484375,18.34776498046875,14.55290271484375,18.256764980468752Q14.590602714843751,18.16577498046875,14.60981271484375,18.069174980468752Q14.62903271484375,17.97257498046875,14.62903271484375,17.87408498046875L14.62903271484375,17.86608498046875Q14.62903271484375,17.76759498046875,14.60981271484375,17.67099498046875Q14.590602714843751,17.57439498046875,14.55290271484375,17.483404980468748Q14.51521271484375,17.39241498046875,14.460492714843749,17.31051498046875Q14.405782714843749,17.22862498046875,14.33613271484375,17.15898498046875Q14.26649271484375,17.08933498046875,14.184592714843749,17.03461498046875Q14.102702714843751,16.97989498046875,14.01171271484375,16.942204980468752Q13.92071271484375,16.90451498046875,13.82411271484375,16.88530498046875Q13.72752271484375,16.86608498046875,13.62903271484375,16.86608498046875L13.62103271484375,16.86608498046875Q13.52254271484375,16.86608498046875,13.42594271484375,16.88530498046875Q13.32934271484375,16.90451498046875,13.23835271484375,16.942204980468752Q13.14735271484375,16.97989498046875,13.06546271484375,17.03461498046875Q12.98357271484375,17.08933498046875,12.91392271484375,17.15898498046875Q12.84428271484375,17.22862498046875,12.78956271484375,17.31051498046875Q12.73484271484375,17.39241498046875,12.69715271484375,17.483404980468748Q12.65946271484375,17.57439498046875,12.640242714843751,17.67099498046875Q12.62103271484375,17.76759498046875,12.62103271484375,17.86608498046875Z" fill-rule="evenodd" fill="#171717" fill-opacity="1"/></g></g></svg>