<svg xmlns="http://www.w3.org/2000/svg" xmlns:xlink="http://www.w3.org/1999/xlink" fill="none" version="1.1" width="24" height="24" viewBox="0 0 24 24"><defs><clipPath id="master_svg0_3590_30251"><rect x="0" y="0" width="24" height="24" rx="0"/></clipPath></defs><g clip-path="url(#master_svg0_3590_30251)"><g><g><path d="M18.99983598461151,2.0000271797180176C20.65673598461151,2.0000271797180176,21.99983598461151,3.3431771797180176,21.99983598461151,5.000027179718018L21.99983598461151,19.000027179718018C21.99983598461151,20.656827179718018,20.65673598461151,22.000027179718018,18.99983598461151,22.000027179718018L4.999935984611511,22.000027179718018C3.3430759846115112,22.000027179718018,1.9999369382855112,20.656827179718018,1.9999369382855112,19.000027179718018L1.9999369382855112,5.000027179718018C1.9999369382855112,3.3431771797180176,3.3430759846115112,2.0000271797180176,4.999935984611511,2.0000271797180176L18.99983598461151,2.0000271797180176ZM6.999945984611511,6.882937179718017C6.447655984611512,6.882937179718017,5.999935984611511,7.330657179718018,5.999935984611511,7.882937179718017C5.999935984611511,8.435217179718018,6.447655984611512,8.882927179718017,6.999945984611511,8.882927179718017L16.99993598461151,8.882927179718017C17.552235984611514,8.882927179718017,17.99993598461151,8.435217179718018,17.99993598461151,7.882937179718017C17.99993598461151,7.330657179718018,17.552235984611514,6.882937179718017,16.99993598461151,6.882937179718017L6.999945984611511,6.882937179718017ZM6.999945984611511,11.500037179718017C6.447655984611512,11.500037179718017,5.999935984611511,11.947747179718018,5.999935984611511,12.500027179718018C5.999935984611511,13.052327179718018,6.447655984611512,13.500027179718018,6.999945984611511,13.500027179718018L12.999935984611511,13.500027179718018C13.552235984611512,13.500027179718018,13.999935984611511,13.052327179718018,13.999935984611511,12.500027179718018C13.999935984611511,11.947747179718018,13.552235984611512,11.500037179718017,12.999935984611511,11.500037179718017L6.999945984611511,11.500037179718017Z" fill="#000000" fill-opacity="1"/></g></g></g></svg>