<svg xmlns="http://www.w3.org/2000/svg" xmlns:xlink="http://www.w3.org/1999/xlink" fill="none" version="1.1" width="24" height="24" viewBox="0 0 24 24"><defs><clipPath id="master_svg0_1696_34444"><rect x="0" y="0" width="24" height="24" rx="0"/></clipPath></defs><g clip-path="url(#master_svg0_1696_34444)"><g><path d="M2.9999995384216307,2C3.265219538421631,2,3.519569538421631,2.10536,3.707109538421631,2.29289L6.378089538421631,4.96388C8.105449538421631,3.98489,9.97941953842163,3.49693,11.999999538421632,3.5C14.57519953842163,3.5,16.88689953842163,4.2752300000000005,18.935099538421632,5.82569C20.94439953842163,7.34678,22.30719953842163,9.30903,23.023399538421632,11.71244C23.07899953842163,11.89902,23.07889953842163,12.0978,23.02309953842163,12.2843C22.34089953842163,14.5673,21.10129953842163,16.4359,19.30419953842163,17.89L21.70709953842163,20.2929C21.89459953842163,20.4804,21.99999953842163,20.7348,21.99999953842163,21C21.99999953842163,21.5523,21.552299538421632,22,20.99999953842163,22C20.73479953842163,22,20.48039953842163,21.8946,20.29289953842163,21.7071L17.06539953842163,18.4796L17.06389953842163,18.4781L13.416199538421631,14.8304L13.414899538421631,14.8291L13.413899538421632,14.8281L13.412599538421631,14.8268L9.17340953842163,10.58762L9.17190953842163,10.58612L9.170899538421631,10.5851L5.520889538421631,6.93511L2.2928895384216306,3.70711C2.105359538421631,3.51957,1.999999538421631,3.2652200000000002,1.999999538421631,3C1.999999538421631,2.447723,2.447719538421631,2.00000309944,2.9999995384216307,2ZM14.82909953842163,9.171890000000001C15.61019953842163,9.95299,16.00079953842163,10.89586,16.00079953842163,12.0005C16.00079953842163,12.7556,15.81829953842163,13.4352,15.45329953842163,14.0391L17.880099538421632,16.465899999999998C19.370899538421632,15.3075,20.416499538421633,13.8181,21.01699953842163,11.9978C20.40489953842163,10.14268,19.308599538421632,8.61685,17.72789953842163,7.42031C16.036799538421633,6.1401,14.127499538421631,5.5,11.999999538421632,5.5C10.52413953842163,5.4977599999999995,9.14341953842163,5.8123000000000005,7.857849538421631,6.44363L9.96135953842163,8.54715C10.56562953842163,8.18234,11.24529953842163,8,12.00049953842163,8.000119999999999C13.105199538421632,8.0003,14.048099538421631,8.390889999999999,14.82909953842163,9.171890000000001ZM4.979999538421631,8.222999999999999C4.979999538421631,8.45975,4.89600953842163,8.68881,4.742959538421631,8.86944C3.952189538421631,9.80275,3.3652395384216307,10.84647,2.982129538421631,12.0006C3.5941595384216307,13.8563,4.690649538421631,15.3826,6.271579538421631,16.5794C7.9628895384216305,17.8598,9.87235953842163,18.5,11.999999538421632,18.5C12.88389953842163,18.5,13.747699538421632,18.3809,14.59119953842163,18.1426C14.67959953842163,18.1177,14.77109953842163,18.105,14.862999538421631,18.105C15.41529953842163,18.105,15.862999538421631,18.5527,15.862999538421631,19.105C15.862999538421631,19.5526,15.565499538421632,19.9457,15.13479953842163,20.0674C14.113499538421632,20.3558,13.068599538421632,20.5,11.999999538421632,20.5C9.42458953842163,20.5,7.112729538421631,19.7247,5.064419538421631,18.1741C3.054609538421631,16.6526,1.691669538421631,14.6897,0.9755997384216308,12.2854C0.9200797384216308,12.099,0.9201297384216308,11.90045,0.9757497384216308,11.71406C1.433879538421631,10.17877,2.180739538421631,8.79988,3.216329538421631,7.57739C3.407039538421631,7.35231,3.6860795384216307,7.223,3.9799995384216307,7.223C4.532289538421631,7.223,4.979999538421631,7.67071,4.979999538421631,8.222999999999999ZM13.414899538421631,10.58611C12.74839953842163,9.91956,12.081499538421632,9.72419,11.41419953842163,10.00001L14.000699538421632,12.5865C14.27699953842163,11.9197,14.081699538421631,11.2529,13.414899538421631,10.58611Z" fill="#000000" fill-opacity="1"/></g></g></svg>