<svg xmlns="http://www.w3.org/2000/svg" xmlns:xlink="http://www.w3.org/1999/xlink" fill="none" version="1.1" width="24" height="24" viewBox="0 0 24 24"><defs><clipPath id="master_svg0_2007_29821"><rect x="0" y="0" width="24" height="24" rx="0"/></clipPath></defs><g clip-path="url(#master_svg0_2007_29821)"><g><path d="M2,8C2,7.44772,2.44772,7,3,7C3.3729,7,3.71483,7.20749,3.88701,7.53826C4.13927,8.02286,4.5253499999999995,8.47819,5.04526,8.90427C5.82137,9.54035,6.8004,10.04319,7.98237,10.41278C9.23432,10.80426,10.57353,11,12,11C13.4265,11,14.7657,10.80426,16.0176,10.41278C17.1996,10.04319,18.1786,9.54035,18.9547,8.90426C19.4746,8.47815,19.8607,8.02282,20.113,7.53827C20.2852,7.20749,20.6271,6.999999761581,21,6.999999761581C21.5523,6.999999761581,22,7.44772,22,8C22,8.16076,21.9612,8.31914,21.8868,8.4621L21.8858,8.46403C21.5074,9.19008,20.953,9.852450000000001,20.2225,10.45114C19.2462,11.251290000000001,18.0435,11.874780000000001,16.6145,12.321629999999999C15.1682,12.77388,13.6301,13,12,13C10.36993,13,8.83176,12.77388,7.38548,12.321629999999999C5.95646,11.874780000000001,4.7538,11.251280000000001,3.7775,10.45113C3.04638,9.85195,2.491552,9.18882,2.112992,8.46175C2.0387618,8.31915,2.00000181049,8.16076,2,8Z" fill="#000000" fill-opacity="1"/></g><g><path d="M14.488750457763672,11C14.941360457763672,11,15.337540457763671,11.304,15.454680457763672,11.74119L16.489930457763673,15.604890000000001C16.51254045776367,15.6893,16.524000457763673,15.776309999999999,16.524000457763673,15.8637C16.524000457763673,16.41598,16.076280457763673,16.8637,15.524000457763671,16.8637C15.071390457763671,16.8637,14.675210457763672,16.5597,14.558070457763671,16.12251L13.522820457763672,12.25881C13.500200457763672,12.1744,13.488750472664872,12.08739,13.488750472664872,12C13.488750472664872,11.44772,13.936470457763672,11,14.488750457763672,11Z" fill="#000000" fill-opacity="1"/></g><g><path d="M22.50515018310547,13.505199774169922C22.50515018310547,14.057489774169923,22.057430183105467,14.505199774169922,21.505150183105467,14.505199774169922C21.239930183105468,14.505199774169922,20.98558018310547,14.399839774169923,20.79804018310547,14.212309774169922L17.96964018310547,11.383909774169922C17.78210018310547,11.196369774169922,17.67675048112847,10.942019774169921,17.67675048112847,10.676799774169922C17.67675048112847,10.124519774169922,18.12447018310547,9.676799476146922,18.67675018310547,9.676799476146922C18.941970183105468,9.676799476146922,19.19632018310547,9.782159774169921,19.383980183105468,9.969809774169923L22.21226018310547,12.798089774169922C22.39979018310547,12.985629774169922,22.50515018310547,13.239979774169921,22.50515018310547,13.505199774169922Z" fill="#000000" fill-opacity="1"/></g><g><path d="M6.3284500271606445,10.6766996383667C6.3284500271606445,10.941919638366699,6.223090027160644,11.196269638366699,6.035560027160645,11.3837996383667L3.2073700271606445,14.212019638366698C3.0195900271606444,14.399789638366698,2.7652400271606448,14.5051496383667,2.5000200271606445,14.5051496383667C1.9477400271606444,14.5051496383667,1.5000200271606445,14.057429638366699,1.5000200271606445,13.5051496383667C1.5000200271606445,13.2399296383667,1.6053800271606444,12.9855796383667,1.7929100271606444,12.798049638366699L4.621340027160644,9.969599638366699C4.808880027160645,9.782059638366698,5.063230027160644,9.6766994893547,5.3284500271606445,9.6766994893547C5.880730027160644,9.6766994893547,6.3284500271606445,10.1244196383667,6.3284500271606445,10.6766996383667Z" fill="#000000" fill-opacity="1"/></g><g><path d="M10.499149612426757,12.000049591064453C10.499149612426757,12.087439591064452,10.487699612426757,12.174449591064453,10.465079612426758,12.258859591064454L9.429829612426758,16.122609591064453C9.312689612426757,16.559799591064454,8.916509612426758,16.863799591064453,8.463899612426758,16.863799591064453C7.911619612426758,16.863799591064453,7.463899612426758,16.416089591064452,7.463899612426758,15.863799591064453C7.463899612426758,15.776409591064454,7.475349612426758,15.689399591064454,7.497969612426758,15.604989591064452L8.533189612426758,11.741369591064453C8.650359612426758,11.304049591064453,9.046539612426757,11.000049471855453,9.499149612426757,11.000049471855453C10.051439612426758,11.000049471855453,10.499149612426757,11.447769591064453,10.499149612426757,12.000049591064453Z" fill="#000000" fill-opacity="1"/></g></g></svg>