<svg xmlns="http://www.w3.org/2000/svg" xmlns:xlink="http://www.w3.org/1999/xlink" fill="none" version="1.1" width="24" height="24" viewBox="0 0 24 24"><defs><clipPath id="master_svg0_1696_34454"><rect x="0" y="0" width="24" height="24" rx="0"/></clipPath></defs><g clip-path="url(#master_svg0_1696_34454)"><g><path d="M12.00002220249176,20.500000476837158C9.49097220249176,20.500000476837158,7.22740220249176,19.76060047683716,5.20930220249176,18.28170047683716C3.2330822024917603,16.83360047683716,1.8591022024917603,14.952400476837159,1.0873622024917602,12.638360476837159C0.9463124024917603,12.214450476837158,0.9462424024917603,11.790760476837159,1.0871422024917603,11.367290476837159C1.8566222024917602,9.052170476837158,3.2298422024917604,7.169800476837159,5.20680220249176,5.720190476837159C7.22537220249176,4.240060476837158,9.48977220249176,3.500000476837158,12.00002220249176,3.500000476837158C14.50912220249176,3.500000476837158,16.77262220249176,4.239430476837159,18.79062220249176,5.718280476837158C20.76682220249176,7.166530476837158,22.14052220249176,9.047710476837159,22.91172220249176,11.361840476837159C23.05462220249176,11.784590476837158,23.05432220249176,12.209290476837158,22.910722202491762,12.635960476837159C22.14262220249176,14.948800476837159,20.77002220249176,16.83010047683716,18.79312220249176,18.27980047683716C16.774622202491763,19.759900476837156,14.51032220249176,20.500000476837158,12.00002220249176,20.500000476837158ZM12.00002220249176,18.500000476837158C14.07382220249176,18.500000476837158,15.94392220249176,17.889000476837158,17.610422202491762,16.66700047683716C19.244522202491762,15.468700476837158,20.37942220249176,13.912300476837158,21.01522220249176,11.998040476837158L21.014322202491762,11.994160476837159C20.37742220249176,10.082920476837158,19.24212220249176,8.52869047683716,17.60842220249176,7.331470476837158C15.942322202491761,6.110490476837159,14.07282220249176,5.500000476837158,12.00002220249176,5.500000476837158C9.92623220249176,5.500000476837158,8.05604220249176,6.111020476837158,6.389452202491761,7.333060476837158C4.75528220249176,8.531330476837159,3.62041220249176,10.086540476837158,2.9848522024917603,11.998710476837159C2.98401220249176,12.001240476837157,2.98394220249176,12.003550476837159,2.98463220249176,12.005640476837158C3.6220622024917604,13.917000476837158,4.75767220249176,15.471300476837158,6.39145220249176,16.66850047683716C8.05768220249176,17.889500476837156,9.927212202491761,18.500000476837158,12.00002220249176,18.500000476837158Z" fill="#000000" fill-opacity="1"/></g><g><path d="M12,8C13.104569999999999,8,14.04738,8.39052,14.82843,9.17157C15.60948,9.95262,16,10.895430000000001,16,12C16,13.104569999999999,15.60948,14.04738,14.82843,14.82843C14.04738,15.60948,13.104569999999999,16,12,16C10.895430000000001,16,9.95262,15.60948,9.17157,14.82843C8.39052,14.04738,8.000000119209,13.104569999999999,8.000000119209,12C8.000000119209,10.895430000000001,8.39052,9.95262,9.17157,9.17157C9.95262,8.39052,10.895430000000001,8.000000119209,12,8ZM12,10C11.44771,10,10.97631,10.195260000000001,10.58579,10.58579C10.195260000000001,10.97631,10,11.44771,10,12C10,12.55229,10.195260000000001,13.02369,10.58579,13.41421C10.97631,13.804739999999999,11.44771,14,12,14C12.55229,14,13.02369,13.804739999999999,13.41421,13.41421C13.804739999999999,13.02369,14,12.55229,14,12C14,11.44771,13.804739999999999,10.97631,13.41421,10.58579C13.02369,10.195260000000001,12.55229,10,12,10Z" fill="#000000" fill-opacity="1"/></g></g></svg>