<svg xmlns="http://www.w3.org/2000/svg" xmlns:xlink="http://www.w3.org/1999/xlink" fill="none" version="1.1" width="24" height="24" viewBox="0 0 24 24"><defs><clipPath id="master_svg0_3590_30390"><rect x="0" y="0" width="24" height="24" rx="0"/></clipPath></defs><g clip-path="url(#master_svg0_3590_30390)"><g><path d="M2.585789,21.4143220703125Q3.171573,22.0001220703125,4,22.0001220703125L14.5,22.0001220703125Q15.3284,22.0001220703125,15.9142,21.4143220703125Q16.5,20.828522070312502,16.5,20.0001220703125L16.5,16.5001220703125Q16.5,15.6716820703125,15.9142,15.0859020703125Q15.3284,14.5001220703125,14.5,14.5001220703125L9.5,14.5001220703125L9.5,9.5001220703125Q9.5,8.6716830703125,8.91422,8.0859020703125Q8.32844,7.5001220703125,7.5,7.5001220703125L4,7.5001220703125Q3.171573,7.5001220703125,2.58579,8.0858990703125Q2,8.6716830703125,2,9.5001220703125L2,20.0001220703125Q2,20.828522070312502,2.585789,21.4143220703125ZM14.5,20.0001220703125L4,20.0001220703125L4,9.5001220703125L7.5,9.5001220703125L7.5,14.5001220703125Q7.5,15.3285620703125,8.08578,15.9143420703125Q8.67156,16.5001220703125,9.5,16.5001220703125L14.5,16.5001220703125L14.5,20.0001220703125Z" fill-rule="evenodd" fill="#000000" fill-opacity="1"/></g><g><path d="M21.4143220703125,2.58579Q20.828522070312502,2,20.0001220703125,2L9.5001220703125,2Q8.6716830703125,2,8.0858990703125,2.58579Q7.5001220703125,3.171573,7.5001220703125,4L7.5001220703125,7.5Q7.5001220703125,8.32844,8.0859020703125,8.91422Q8.6716830703125,9.5,9.5001220703125,9.5L14.5001220703125,9.5L14.5001220703125,14.5Q14.5001220703125,15.3284,15.0859020703125,15.9142Q15.6716820703125,16.5,16.5001220703125,16.5L20.0001220703125,16.5Q20.828522070312502,16.5,21.4143220703125,15.9142Q22.0001220703125,15.3284,22.0001220703125,14.5L22.0001220703125,4Q22.0001220703125,3.171575,21.4143220703125,2.58579ZM9.5001220703125,4L20.0001220703125,4L20.0001220703125,14.5L16.5001220703125,14.5L16.5001220703125,9.5Q16.5001220703125,8.67156,15.9143420703125,8.08578Q15.3285620703125,7.5,14.5001220703125,7.5L9.5001220703125,7.5L9.5001220703125,4Z" fill-rule="evenodd" fill="#000000" fill-opacity="1"/></g></g></svg>