<svg xmlns="http://www.w3.org/2000/svg" xmlns:xlink="http://www.w3.org/1999/xlink" fill="none" version="1.1" width="24" height="24" viewBox="0 0 24 24"><defs><clipPath id="master_svg0_3590_30465"><rect x="0" y="0" width="24" height="24" rx="4.732394218444824"/></clipPath></defs><g clip-path="url(#master_svg0_3590_30465)"><rect x="0" y="0" width="24" height="24" rx="4.732394218444824" fill="#FFF6D3" fill-opacity="1"/><g><path d="M15.663399523162841,8.834969291992188L15.663399523162841,9.744259291992186L19.999999523162842,9.744259291992186L19.999999523162842,10.915849291992188L10.574859523162843,10.915849291992188L10.574859523162843,9.744259291992186L14.229499523162842,9.744259291992186L14.229499523162842,8.834969291992188L11.186879523162842,8.834969291992188L11.186879523162842,7.680879291992188L14.229499523162842,7.680879291992188L14.229499523162842,6.754099291992187L11.012019523162841,6.754099291992187L11.012019523162841,5.565029291992188L14.229499523162842,5.565029291992188L14.229499523162842,4.1311492919921875L15.663399523162841,4.183608491992188L15.663399523162841,5.565029291992188L19.38799952316284,5.565029291992188L19.38799952316284,6.754099291992187L15.663399523162841,6.754099291992187L15.663399523162841,7.680879291992188L18.98579952316284,7.680879291992188L18.98579952316284,8.834969291992188L15.663399523162841,8.834969291992188ZM8.40655952316284,12.891809291992187L8.87868952316284,12.454649291992187Q9.315849523162843,12.909289291992188,9.910379523162842,13.669949291992188Q10.504919523162842,14.430649291992188,10.837159523162843,14.990149291992187L9.787979523162843,16.02184929199219Q9.228419523162842,15.042649291992188,8.40655952316284,13.993439291992187L8.40655952316284,19.868849291992188L6.972679523162842,19.868849291992188L6.972679523162842,14.168349291992188Q6.220759523162842,15.742049291992188,5.066669523162842,17.263349291992185L3.999999523162842,16.161749291992187Q5.923499523162842,13.888529291992187,6.797809523162842,11.318039291992188L4.681966523162842,11.318039291992188L4.681966523162842,9.901639291992186L6.972679523162842,9.901639291992186L6.972679523162842,4.201094291992187L8.40655952316284,4.271040291992188L8.40655952316284,9.901639291992186L10.19015952316284,9.901639291992186L10.19015952316284,11.318039291992188L8.40655952316284,11.318039291992188L8.40655952316284,12.891809291992187ZM5.538799523162842,9.272129291992186Q5.363929523162842,8.537709291992186,5.040439523162842,7.4797792919921875Q4.716939523162842,6.421859291992187,4.472130523162842,5.8448092919921875L5.626229523162841,5.407649291992188Q5.871039523162842,5.984699291992188,6.220759523162842,7.0688592919921875Q6.570489523162841,8.153009291992188,6.727869523162841,8.852459291992187L5.538799523162842,9.272129291992186ZM10.837159523162843,5.774869291992188Q10.067759523162842,8.292899291992187,9.648089523162842,9.254649291992187L8.546449523162842,8.799999291992187Q8.843719523162843,8.065579291992186,9.167209523162843,7.077599291992188Q9.490709523162842,6.089619291992188,9.648089523162842,5.4251392919921875L10.837159523162843,5.774869291992188ZM11.151909523162843,19.728949291992187L11.151909523162843,11.860109291992188L18.723499523162843,11.860109291992188L18.723499523162843,18.03274929199219Q18.723499523162843,18.697249291992186,18.53989952316284,19.038249291992187Q18.35629952316284,19.37924929199219,17.954099523162842,19.536649291992187Q17.55189952316284,19.693949291992187,16.78249952316284,19.746449291992185L15.890699523162843,19.81634929199219L15.453599523162842,18.574849291992187L16.397799523162842,18.504949291992187Q16.799999523162843,18.469949291992187,16.98359952316284,18.40004929199219Q17.167199523162843,18.33004929199219,17.228399523162842,18.181449291992188Q17.289599523162842,18.03274929199219,17.289599523162842,17.718049291992187L17.289599523162842,17.24594929199219L12.550819523162842,17.24594929199219L12.550819523162842,19.728949291992187L11.151909523162843,19.728949291992187ZM17.289599523162842,13.975959291992188L17.289599523162842,13.084159291992188L12.550819523162842,13.084159291992188L12.550819523162842,13.975959291992188L17.289599523162842,13.975959291992188ZM12.550819523162842,15.147549291992188L12.550819523162842,16.056849291992187L17.289599523162842,16.056849291992187L17.289599523162842,15.147549291992188L12.550819523162842,15.147549291992188Z" fill="#CC6402" fill-opacity="1"/></g></g></svg>