<svg xmlns="http://www.w3.org/2000/svg" xmlns:xlink="http://www.w3.org/1999/xlink" fill="none" version="1.1" width="24" height="24" viewBox="0 0 24 24"><defs><clipPath id="master_svg0_3282_40515"><rect x="0" y="0" width="24" height="24" rx="0"/></clipPath></defs><g clip-path="url(#master_svg0_3282_40515)"><g><path d="M3.5,1.99993896484375L3.5,21.99993896484375Q3.5,22.15463896484375,3.546742,22.30213896484375Q3.5934850000000003,22.44953896484375,3.6826,22.57603896484375Q3.739338,22.65653896484375,3.810692,22.72443896484375Q3.882046,22.79233896484375,3.965274,22.84493896484375Q4.048502,22.89763896484375,4.140405,22.93303896484375Q4.232308,22.96843896484375,4.329355,22.98523896484375Q4.4264013,23.00203896484375,4.5248623,22.99963896484375Q4.623323,22.99713896484375,4.719415,22.97553896484375Q4.815506,22.95393896484375,4.905535,22.91403896484375Q4.995564,22.87403896484375,5.076071,22.81733896484375L12,17.93763896484375L18.9239,22.81733896484375Q19.0504,22.90643896484375,19.1978,22.95323896484375Q19.3453,22.99993896484375,19.5,22.99993896484375Q19.5985,22.99993896484375,19.6951,22.98073896484375Q19.7917,22.96153896484375,19.8827,22.92383896484375Q19.9737,22.88613896484375,20.0556,22.83143896484375Q20.1375,22.77663896484375,20.2071,22.70703896484375Q20.276699999999998,22.63743896484375,20.3315,22.55553896484375Q20.386200000000002,22.47363896484375,20.4239,22.38263896484375Q20.4616,22.29163896484375,20.480800000000002,22.19503896484375Q20.5,22.09843896484375,20.5,21.99993896484375L20.5,1.99993896484375Q20.5,1.90144756484375,20.480800000000002,1.80484896484375Q20.4616,1.7082499648437501,20.4239,1.61725596484375Q20.386200000000002,1.52626096484375,20.3315,1.44436896484375Q20.276699999999998,1.36247596484375,20.2071,1.2928319648437498Q20.1375,1.22318796484375,20.0556,1.16846896484375Q19.9737,1.11375096484375,19.8827,1.07605996484375Q19.7917,1.03836896484375,19.6951,1.01915396484375Q19.5985,0.99993896484375,19.5,0.99993896484375L4.5,0.99993896484375Q4.4015086,0.99993896484375,4.30491,1.01915396484375Q4.208311,1.03836896484375,4.117317,1.07605996484375Q4.026322,1.11375096484375,3.94443,1.16846896484375Q3.862537,1.22318796484375,3.792893,1.2928319648437498Q3.723249,1.36247596484375,3.66853,1.44436896484375Q3.6138120000000002,1.52626096484375,3.576121,1.61725596484375Q3.53843,1.7082499648437501,3.519215,1.80484896484375Q3.5,1.90144756484375,3.5,1.99993896484375ZM5.5,20.07173896484375L11.42393,15.89683896484375Q11.48678,15.85253896484375,11.55566,15.81833896484375Q11.62455,15.78423896484375,11.69784,15.76093896484375Q11.771139999999999,15.73773896484375,11.84712,15.72603896484375Q11.923110000000001,15.71423896484375,12,15.71423896484375Q12.076889999999999,15.71423896484375,12.15288,15.72603896484375Q12.228860000000001,15.73773896484375,12.30216,15.76093896484375Q12.37545,15.78423896484375,12.44434,15.81833896484375Q12.51322,15.85253896484375,12.57607,15.89683896484375L18.5,20.07173896484375L18.5,2.99993896484375L5.5,2.99993896484375L5.5,20.07173896484375Z" fill-rule="evenodd" fill="#000000" fill-opacity="1"/></g><g><path d="M3.5,7.99993896484375L3.5,1.99993896484375Q3.5,1.90144756484375,3.519215,1.80484896484375Q3.53843,1.7082499648437501,3.576121,1.61725596484375Q3.6138120000000002,1.52626096484375,3.66853,1.44436896484375Q3.723249,1.36247596484375,3.792893,1.2928319648437498Q3.862537,1.22318796484375,3.94443,1.16846896484375Q4.026322,1.11375096484375,4.117317,1.07605996484375Q4.208311,1.03836896484375,4.30491,1.01915396484375Q4.4015086,0.99993896484375,4.5,0.99993896484375L19.5,0.99993896484375Q19.5985,0.99993896484375,19.6951,1.01915396484375Q19.7917,1.03836896484375,19.8827,1.07605996484375Q19.9737,1.11375096484375,20.0556,1.16846896484375Q20.1375,1.22318796484375,20.2071,1.2928319648437498Q20.276699999999998,1.36247596484375,20.3315,1.44436896484375Q20.386200000000002,1.52626096484375,20.4239,1.61725596484375Q20.4616,1.7082499648437501,20.480800000000002,1.80484896484375Q20.5,1.90144756484375,20.5,1.99993896484375L20.5,7.99993896484375Q20.5,8.09842896484375,20.480800000000002,8.19502896484375Q20.4616,8.29162896484375,20.4239,8.38261896484375Q20.386200000000002,8.47361896484375,20.3315,8.55550896484375Q20.276699999999998,8.63739896484375,20.2071,8.70704896484375Q20.1375,8.77668896484375,20.0556,8.83140896484375Q19.9737,8.88612896484375,19.8827,8.92381896484375Q19.7917,8.96150896484375,19.6951,8.98071896484375Q19.5985,8.99993896484375,19.5,8.99993896484375L4.5,8.99993896484375Q4.4015086,8.99993896484375,4.30491,8.98071896484375Q4.208311,8.96150896484375,4.117317,8.92381896484375Q4.026322,8.88612896484375,3.94443,8.83140896484375Q3.862537,8.77668896484375,3.792893,8.70704896484375Q3.723249,8.63739896484375,3.66853,8.55550896484375Q3.6138120000000002,8.47361896484375,3.576121,8.38261896484375Q3.53843,8.29162896484375,3.519215,8.19502896484375Q3.5,8.09842896484375,3.5,7.99993896484375ZM5.5,2.99993896484375L5.5,6.99993896484375L18.5,6.99993896484375L18.5,2.99993896484375L5.5,2.99993896484375Z" fill="#000000" fill-opacity="1"/></g></g></svg>