<svg xmlns="http://www.w3.org/2000/svg" xmlns:xlink="http://www.w3.org/1999/xlink" fill="none" version="1.1" width="24" height="24" viewBox="0 0 24 24"><defs><clipPath id="master_svg0_1161_23004"><rect x="0" y="0" width="24" height="24" rx="0"/></clipPath></defs><g clip-path="url(#master_svg0_1161_23004)"><g><path d="M12.303996484375,7.31509220703125C12.696396484375,6.93611220703125,13.320096484375,6.94152220703125,13.705896484375,7.32726220703125C14.091596484375,7.71300220703125,14.096996484375,8.336712207031251,13.717996484375,8.72909220703125L8.130036484375001,14.31706220703125C7.550176484375,14.89696220703125,7.550176484375,15.83716220703125,8.130036484375001,16.41706220703125L8.140036484374999,16.42806220703125C8.726696484375001,17.00966220703125,9.673126484375,17.00736220703125,10.257036484375,16.42306220703125L17.686996484375,8.99308220703125C19.053996484375,7.62622220703125,19.053996484375,5.40995220703125,17.686996484375,4.0430922070312505L17.650996484375,4.00609220703125C16.284196484375002,2.63908220703125,14.067896484375,2.63908220703125,12.700996484375,4.00609220703125L4.923036484375,11.78306220703125C2.767916484375,13.93946220703125,2.768296484375,17.43436220703125,4.923886484375,19.59026220703125C7.079476484375,21.74606220703125,10.574426484375,21.74696220703125,12.730996484375,19.59206220703125L19.800996484375,12.52206220703125C20.191596484375,12.13176220703125,20.824496484375,12.13176220703125,21.215096484375,12.52206220703125C21.605596484375,12.91236220703125,21.605996484375,13.54526220703125,21.215996484375,13.93606220703125L14.145996484375,21.00606220703125C11.208986484375,23.94346220703125,6.446866484375,23.94366220703125,3.509536484375,21.00656220703125C0.572211484375,18.06956220703125,0.571986484375,13.30746220703125,3.509036484375,10.37009220703125L11.287036484375,2.59208220703125C13.434896484375,0.44432020703124997,16.917196484374998,0.44432020703124997,19.064996484375,2.59208220703125L19.101996484375,2.62909220703125C21.249796484375,4.7769522070312505,21.249796484375,8.25922220703125,19.101996484375,10.40709220703125L11.671996484375,17.83706220703125C10.309746484375,19.20006220703125,8.101936484374999,19.20546220703125,6.733036484375,17.84906220703125L6.727036484375,17.84306220703125L6.715036484375,17.83106220703125C5.354416484375,16.47016220703125,5.354416484375,14.26396220703125,6.715036484375,12.90306220703125L12.303996484375,7.31509220703125Z" fill="#171717" fill-opacity="1"/></g></g></svg>