<svg xmlns="http://www.w3.org/2000/svg" xmlns:xlink="http://www.w3.org/1999/xlink" fill="none" version="1.1" width="24" height="24" viewBox="0 0 24 24"><defs><clipPath id="master_svg0_2007_29834"><rect x="0" y="0" width="24" height="24" rx="0"/></clipPath></defs><g clip-path="url(#master_svg0_2007_29834)"><g><path d="M2,20L2,13Q2,11.757359,2.87868,10.87868Q3.757359,10,5,10L19,10Q20.2426,10,21.1213,10.87868Q22,11.757361,22,13L22,20Q22,21.2426,21.1213,22.121299999999998Q20.2426,23,19,23L5,23Q3.7573600000000003,23,2.87868,22.121299999999998Q2,21.2426,2,20ZM4,20Q4,20.41421,4.29289,20.70711Q4.58579,21,5,21L19,21Q19.4142,21,19.7071,20.70711Q20,20.41421,20,20L20,13Q20,12.58579,19.7071,12.29289Q19.4142,12,19,12L5,12Q4.58579,12,4.29289,12.29289Q4,12.58579,4,13L4,20Z" fill="#000000" fill-opacity="1"/></g><g><path d="M16,7L16,11Q16,11.09849,16.01921,11.19509Q16.038429999999998,11.29169,16.07612,11.38268Q16.11381,11.47368,16.16853,11.55557Q16.22325,11.63746,16.29289,11.70711Q16.36254,11.77675,16.44443,11.83147Q16.52632,11.88619,16.61732,11.92388Q16.70831,11.96157,16.80491,11.98078Q16.901510000000002,12,17,12Q17.0985,12,17.1951,11.98078Q17.2917,11.96157,17.3827,11.92388Q17.4737,11.88619,17.5556,11.83147Q17.6375,11.77675,17.7071,11.70711Q17.776699999999998,11.63746,17.8315,11.55557Q17.886200000000002,11.47368,17.9239,11.38268Q17.9616,11.29169,17.980800000000002,11.19509Q18,11.09849,18,11L18,7Q18,4.5147200000000005,16.24263,2.757358Q14.48527,1,12,1Q9.51473,1,7.75737,2.757358Q6,4.5147200000000005,6.000001,7L6,11Q6,11.09849,6.019215,11.19509Q6.03843,11.29169,6.076121,11.38268Q6.113812,11.47368,6.16853,11.55557Q6.223249,11.63746,6.292893,11.70711Q6.362537,11.77675,6.44443,11.83147Q6.526322,11.88619,6.617317,11.92388Q6.708311,11.96157,6.80491,11.98078Q6.9015086,12,7,12Q7.0984914,12,7.19509,11.98078Q7.291689,11.96157,7.382683,11.92388Q7.473678,11.88619,7.55557,11.83147Q7.637463,11.77675,7.707107,11.70711Q7.776751,11.63746,7.83147,11.55557Q7.886188,11.47368,7.923879,11.38268Q7.96157,11.29169,7.980785,11.19509Q8,11.09849,8,11L8,7Q8,5.34315,9.17158,4.17157Q10.343160000000001,3,12,3Q13.656839999999999,3,14.828420000000001,4.17157Q16,5.34315,16,7Z" fill-rule="evenodd" fill="#000000" fill-opacity="1"/></g><g><path d="M11,15Q11,14.9015086,11.019214999999999,14.80491Q11.03843,14.708311,11.076121,14.617317Q11.113812,14.526322,11.16853,14.44443Q11.223249,14.362537,11.292893,14.292893Q11.362537,14.223249,11.44443,14.16853Q11.526322,14.113812,11.617317,14.076121Q11.708311,14.03843,11.80491,14.019214999999999Q11.9015086,14,12,14Q12.0984914,14,12.19509,14.019214999999999Q12.291689,14.03843,12.382683,14.076121Q12.473678,14.113812,12.55557,14.16853Q12.637463,14.223249,12.707107,14.292893Q12.776751,14.362537,12.83147,14.44443Q12.886188,14.526322,12.923879,14.617317Q12.96157,14.708311,12.980785000000001,14.80491Q13,14.9015086,13,15L13,18Q13,18.098489999999998,12.980785000000001,18.19509Q12.96157,18.29169,12.923879,18.38268Q12.886188,18.47368,12.83147,18.55557Q12.776751,18.63746,12.707107,18.70711Q12.637463,18.77675,12.55557,18.83147Q12.473678,18.88619,12.382683,18.92388Q12.291689,18.961570000000002,12.19509,18.98078Q12.0984914,19,12,19Q11.9015086,19,11.80491,18.98078Q11.708311,18.961570000000002,11.617317,18.92388Q11.526322,18.88619,11.44443,18.83147Q11.362537,18.77675,11.292893,18.70711Q11.223249,18.63746,11.16853,18.55557Q11.113812,18.47368,11.076121,18.38268Q11.03843,18.29169,11.019214999999999,18.19509Q11,18.098489999999998,11,18L11,15Z" fill-rule="evenodd" fill="#000000" fill-opacity="1"/></g></g></svg>