<svg xmlns="http://www.w3.org/2000/svg" xmlns:xlink="http://www.w3.org/1999/xlink" fill="none" version="1.1" width="24" height="24" viewBox="0 0 24 24"><defs><clipPath id="master_svg0_2145_32810"><rect x="0" y="0" width="24" height="24" rx="0"/></clipPath></defs><g clip-path="url(#master_svg0_2145_32810)"><g><path d="M4.835899761581421,8.425780238418579C4.4185997615814205,8.14759023841858,4.091629761581421,7.787400238418579,3.8549797615814207,7.345210238418579C3.6183297615814207,6.903020238418579,3.499999701976821,6.431160238418579,3.499999701976821,5.9296302384185795L3.499999701976821,4.000000238418579C3.499999701976821,3.171570238418579,3.7928897615814208,2.464470238418579,4.378679761581421,1.8786802384185792C4.964469761581421,1.292890238418579,5.671569761581421,1.0000004768375792,6.499999761581421,1.0000004768375792L7.999999761581421,1.0000004768375792L7.999999761581421,9.250000238418579L6.072219761581421,9.250000238418579L4.835899761581421,8.425780238418579Z" fill="#000000" fill-opacity="1"/></g><g><path d="M10,1L14,1L14,9.25L10,9.25L10,1Z" fill="#000000" fill-opacity="1"/></g><g><path d="M17.5,1C18.32843,1,19.03553,1.2928899999999999,19.62132,1.8786800000000001C20.20711,2.46447,20.5,3.17157,20.5,4L20.5,5.92963C20.5,6.43116,20.38167,6.90302,20.14502,7.34521C19.90837,7.7874,19.5814,8.147590000000001,19.1641,8.42578L17.92778,9.25L15.999999880791,9.25L15.999999880791,1L17.5,1Z" fill="#000000" fill-opacity="1"/></g><g><path d="M12,23C9.65279,23,7.64933,22.1701,5.989599999999999,20.5104C4.32987,18.8507,3.500000238419,16.8472,3.500000238419,14.5C3.500000238419,11.96687,4.44436,9.855080000000001,6.33307,8.164629999999999C7.94536,6.72154,9.83433,6,12,6C14.1657,6,16.0546,6.72154,17.6669,8.16462C19.5556,9.855080000000001,20.5,11.96687,20.5,14.5C20.5,16.8472,19.6701,18.8507,18.0104,20.5104C16.3507,22.1701,14.3472,23,12,23ZM11.99862,10.56531C11.58405,10.566379999999999,11.28556,10.75306,11.10317,11.12536L10.3743,12.61312L8.708739999999999,12.85462C8.29888,12.91405,8.02979,13.140640000000001,7.90146,13.534410000000001C7.77313,13.92817,7.85703,14.26981,8.15317,14.55933L9.361550000000001,15.7407L9.075949999999999,17.3649C9.003779999999999,17.775399999999998,9.13636,18.102899999999998,9.473690000000001,18.3476C9.81102,18.5923,10.163540000000001,18.6166,10.53127,18.4205L11.99977,17.637700000000002L13.46947,18.421C13.8369,18.6169,14.1893,18.5927,14.5265,18.348399999999998C14.8637,18.104100000000003,14.9965,17.7768,14.9249,17.3666L14.6412,15.74071L15.8483,14.55844C16.144,14.26893,16.227600000000002,13.927489999999999,16.0994,13.534099999999999C15.9712,13.14071,15.7024,12.914159999999999,15.2929,12.85446L13.6376,12.613109999999999L12.89694,11.120750000000001C12.71263,10.74939,12.41319,10.56424,11.99862,10.56531Z" fill="#000000" fill-opacity="1"/></g></g></svg>