<svg xmlns="http://www.w3.org/2000/svg" xmlns:xlink="http://www.w3.org/1999/xlink" fill="none" version="1.1" width="24" height="24" viewBox="0 0 24 24"><defs><clipPath id="master_svg0_2145_32351"><rect x="0" y="0" width="24" height="24" rx="0"/></clipPath></defs><g clip-path="url(#master_svg0_2145_32351)"><g><path d="M17.0703,7.417949880790711L18.0547,6.761679880790711C18.351599999999998,6.56376988079071,18.5,6.28641988079071,18.5,5.929629880790711L18.5,3.9999998807907104C18.5,3.7238598807907106,18.4024,3.4881598807907106,18.2071,3.2928898807907103C18.0118,3.0976298807907106,17.7761,2.9999998807907104,17.5,2.9999998807907104L6.5,2.9999998807907104C6.22386,2.9999998807907104,5.988160000000001,3.0976298807907106,5.79289,3.2928898807907103C5.5976300000000005,3.4881598807907106,5.5,3.7238598807907106,5.5,3.9999998807907104L5.5,5.929629880790711C5.5,6.28641988079071,5.648429999999999,6.56376988079071,5.9453,6.761679880790711L6.9297,7.417949880790711C7.2079,7.60341988079071,7.375,7.915649880790711,7.375,8.24999988079071C7.375,8.80227988079071,6.92728,9.24999988079071,6.375,9.24999988079071C6.17758,9.24999988079071,5.98457,9.191559880790711,5.8203,9.082049880790711L4.8359000000000005,8.42577988079071C3.9453,7.83204988079071,3.500000119209,6.9999998807907104,3.500000119209,5.929629880790711L3.500000119209,3.9999998807907104C3.500000119209,3.1715698807907104,3.79289,2.4644698807907104,4.37868,1.8786798807907106C4.96447,1.2928898807907103,5.67157,1.0000001192097105,6.5,1.0000001192097105L17.5,1.0000001192097105C18.328400000000002,1.0000001192097105,19.0355,1.2928898807907103,19.6213,1.8786798807907106C20.2071,2.4644698807907104,20.5,3.1715698807907104,20.5,3.9999998807907104L20.5,5.929629880790711C20.5,6.9999998807907104,20.0547,7.83204988079071,19.164099999999998,8.42577988079071L18.1801,9.08175988079071C18.0154,9.191559880790711,17.822400000000002,9.24999988079071,17.625,9.24999988079071C17.072699999999998,9.24999988079071,16.625,8.80227988079071,16.625,8.24999988079071C16.625,7.915649880790711,16.792099999999998,7.60341988079071,17.0703,7.417949880790711Z" fill="#000000" fill-opacity="1"/></g><g><path d="M12.000000238418579,23C9.652790238418579,23,7.649330238418579,22.1701,5.9896002384185785,20.5104C4.329870238418579,18.8507,3.500000476837579,16.8472,3.500000476837579,14.5C3.500000476837579,11.96687,4.444360238418579,9.855080000000001,6.333070238418579,8.164629999999999C7.945360238418579,6.72154,9.834330238418579,6,12.000000238418579,6C14.165700238418578,6,16.05460023841858,6.72154,17.666900238418577,8.16462C19.555600238418577,9.855080000000001,20.50000023841858,11.96687,20.50000023841858,14.5C20.50000023841858,16.8472,19.67010023841858,18.8507,18.01040023841858,20.5104C16.35070023841858,22.1701,14.34720023841858,23,12.000000238418579,23ZM12.000000238418579,21C13.79490023841858,21,15.327000238418579,20.3654,16.59620023841858,19.0962C17.86540023841858,17.826999999999998,18.50000023841858,16.2949,18.50000023841858,14.5C18.50000023841858,12.56289,17.77770023841858,10.947849999999999,16.33310023841858,9.65488C15.10050023841858,8.55163,13.65610023841858,8,12.000000238418579,8C10.34389023841858,8,8.89953023841858,8.55162,7.666930238418579,9.654869999999999C6.222310238418579,10.947849999999999,5.500000238418579,12.56289,5.500000238418579,14.5C5.500000238418579,16.2949,6.134600238418579,17.826999999999998,7.403810238418579,19.0962C8.67302023841858,20.3654,10.205080238418578,21,12.000000238418579,21Z" fill="#000000" fill-opacity="1"/></g><g><path d="M12.89694457977295,11.120719006958009L13.63760457977295,12.613079006958008L15.29293457977295,12.854429006958007C15.702364579772949,12.914129006958008,15.971194579772948,13.140679006958008,16.09942457977295,13.534069006958008C16.22764457977295,13.927459006958008,16.14395457977295,14.268899006958009,15.848344579772949,14.558409006958009L14.641154579772948,15.740679006958008L14.924934579772948,17.36656900695801C14.996534579772948,17.77677900695801,14.86372457977295,18.104029006958008,14.52651457977295,18.348329006958007C14.189294579772948,18.592629006958006,13.83694457977295,18.616849006958006,13.46947457977295,18.42098900695801L11.99977457977295,17.637659006958007L10.53127457977295,18.420509006958007C10.16354457977295,18.61654900695801,9.81102457977295,18.592229006958007,9.47369457977295,18.34754900695801C9.136364579772948,18.10286900695801,9.00378457977295,17.775319006958007,9.075954579772949,17.36489900695801L9.36155457977295,15.740669006958008L8.15317457977295,14.559299006958007C7.857034879772949,14.269779006958007,7.773134879772949,13.928139006958007,7.901464879772949,13.534379006958009C8.029794579772949,13.140609006958009,8.298884579772949,12.914019006958007,8.708744579772949,12.854589006958008L10.37430457977295,12.613089006958008L11.103174579772949,11.125330006958007C11.285564579772949,10.753030006958008,11.58405457977295,10.566349866958008,11.99862457977295,10.565279841423008C12.413194579772949,10.564209836958009,12.71263457977295,10.749360006958009,12.89694457977295,11.120719006958009ZM12.41045457977295,13.514609006958008L12.00410457977295,12.695839006958007L11.605244579772949,13.509999006958008C11.450444579772949,13.825979006958008,11.19893457977295,14.009209006958008,10.85071457977295,14.059699006958008L9.92513457977295,14.193909006958007L10.59874457977295,14.852459006958007C10.85019457977295,15.098289006958009,10.945464579772949,15.394359006958009,10.884564579772949,15.740689006958007L10.73096457977295,16.61421900695801L11.529324579772949,16.188619006958007C11.842914579772948,16.021449006958008,12.15650457977295,16.02142900695801,12.470104579772949,16.188579006958008L13.27117457977295,16.61553900695801L13.11826457977295,15.739459006958008C13.05795457977295,15.393949006958007,13.153094579772949,15.098489006958008,13.40367457977295,14.853079006958009L14.07757457977295,14.193089006958008L13.16192457977295,14.059579006958007C12.816254579772949,14.009179006958007,12.56576457977295,13.827519006958008,12.41045457977295,13.514609006958008Z" fill="#000000" fill-opacity="1"/></g><g><path d="M8,3.125C8,2.57272,8.44772,2.125,9,2.125C9.55228,2.125,10,2.57272,10,3.125L10,7.125C10,7.67728,9.55228,8.125,9,8.125C8.44772,8.125,8,7.67728,8,7.125L8,3.125Z" fill="#000000" fill-opacity="1"/></g><g><path d="M14,3.125C14,2.57272,14.44772,2.125,15,2.125C15.55228,2.125,16,2.57272,16,3.125L16,7.125C16,7.67728,15.55228,8.125,15,8.125C14.44772,8.125,14,7.67728,14,7.125L14,3.125Z" fill="#000000" fill-opacity="1"/></g></g></svg>