<svg xmlns="http://www.w3.org/2000/svg" xmlns:xlink="http://www.w3.org/1999/xlink" fill="none" version="1.1" width="24" height="24" viewBox="0 0 24 24"><defs><clipPath id="master_svg0_1600_37806"><rect x="0" y="0" width="24" height="24" rx="0"/></clipPath></defs><g clip-path="url(#master_svg0_1600_37806)"><g><path d="M19.7466,4.7394659765625Q16.5307,1.7916259765625,12,1.7916259765625Q7.46932,1.7916269765625001,4.25345,4.7394659765625Q1,7.7217559765625,1,11.9582959765625Q1,16.0173259765625,4.0215,18.9572259765625Q4.293559999999999,19.2219259765625,4.25697,19.4077259765625Q4.05588,20.4193259765625,3.38861,21.2057259765625Q3.2139800000000003,21.4115259765625,3.16662,21.6773259765625Q3.14934,21.7742259765625,3.15131,21.8727259765625Q3.15328,21.9712259765625,3.17442,22.0674259765625Q3.19556,22.1636259765625,3.23507,22.2538259765625Q3.2745699999999998,22.3440259765625,3.3309100000000003,22.4248259765625Q3.38726,22.5056259765625,3.4582800000000002,22.5738259765625Q3.5293,22.6420259765625,3.61227,22.6951259765625Q3.69524,22.7482259765625,3.78697,22.7841259765625Q3.8787000000000003,22.8199259765625,3.97567,22.8372259765625Q4.2770399999999995,22.8909259765625,4.5774,22.9199259765625Q7.1736,23.1818259765625,9.3463,21.8271259765625Q10.65374,22.1266259765625,12,22.1249259765625Q16.5307,22.1249259765625,19.7466,19.1771259765625Q23,16.1948259765625,23,11.9582959765625Q23,7.7217559765625,19.7466,4.7394659765625ZM5.60489,6.2137859765625Q8.24728,3.7916259765625,12,3.7916259765625Q15.7527,3.7916259765625,18.3951,6.2137859765625Q21,8.601565976562501,21,11.9582959765625Q21,15.3150259765625,18.3951,17.7028259765625Q15.7527,20.1249259765625,12,20.1249259765625Q10.68756,20.1265259765625,9.42157,19.7850259765625Q9.31537,19.7564259765625,9.20548,19.7515259765625Q9.095600000000001,19.7466259765625,8.98728,19.7657259765625Q8.87895,19.7848259765625,8.77738,19.8270259765625Q8.675799999999999,19.8693259765625,8.58583,19.9325259765625Q7.32872,20.8167259765625,5.87257,20.9410259765625Q6.09975,20.3955259765625,6.21859,19.7977259765625Q6.46536,18.5446259765625,5.41627,17.5238259765625Q3,15.1728259765625,3,11.9582959765625Q3,8.601565976562501,5.60489,6.2137859765625ZM8.83507,10.9565559765625Q8.42014,10.5416259765625,7.83333,10.5416259765625Q7.24653,10.5416259765625,6.8316,10.9565559765625Q6.41667,11.3714859765625,6.41667,11.9582959765625Q6.41667,13.3749259765625,7.83333,13.3749259765625Q8.42014,13.3749259765625,8.83507,12.9600259765625Q9.25,12.5450959765625,9.25,11.9582959765625Q9.25,11.3714859765625,8.83507,10.9565559765625ZM13.4167,11.9582959765625Q13.4167,10.5416259765625,12,10.5416259765625Q10.58333,10.5416259765625,10.58333,11.9582959765625Q10.58333,13.3749259765625,12,13.3749259765625Q12.5868,13.3749259765625,13.0017,12.9600259765625Q13.4167,12.5450959765625,13.4167,11.9582959765625ZM17.5833,11.9582959765625Q17.5833,10.5416259765625,16.1667,10.5416259765625Q14.75,10.5416259765625,14.75,11.9582959765625Q14.75,13.3749259765625,16.1667,13.3749259765625Q17.5833,13.3749259765625,17.5833,11.9582959765625Z" fill-rule="evenodd" fill="#000000" fill-opacity="1"/></g></g></svg>