<svg xmlns="http://www.w3.org/2000/svg" xmlns:xlink="http://www.w3.org/1999/xlink" fill="none" version="1.1" width="24" height="24" viewBox="0 0 24 24"><defs><clipPath id="master_svg0_1600_37810"><rect x="0" y="0" width="24" height="24" rx="0"/></clipPath></defs><g clip-path="url(#master_svg0_1600_37810)"><g><path d="M12,1.7916259765625Q14.2213,1.7916259765625,16.253700000000002,2.5796809765625Q18.2237,3.3435559765625,19.7466,4.739465976562499Q21.2788,6.1439659765625,22.122,7.9713659765625Q23,9.8738959765625,23,11.9583259765625Q23,14.0427259765625,22.122,15.9452259765625Q21.2788,17.7726259765625,19.7466,19.1771259765625Q18.2237,20.5730259765625,16.253700000000002,21.3369259765625Q14.2213,22.1249259765625,12,22.1249259765625Q10.65373,22.1266259765625,9.3463,21.8271259765625Q7.17359,23.1818259765625,4.5774,22.9199259765625Q4.2770399999999995,22.8909259765625,3.97567,22.8372259765625C3.43195,22.7403259765625,3.06973,22.2210259765625,3.16662,21.6773259765625C3.19764,21.5032259765625,3.27423,21.3405259765625,3.3886,21.2057259765625Q4.05588,20.4193259765625,4.25697,19.4077259765625Q4.293559999999999,19.2219259765625,4.0215,18.9572259765625Q2.5934600000000003,17.5677259765625,1.812668,15.8006259765625Q0.999999880791,13.9613259765625,1,11.9583259765625Q1,9.8738959765625,1.877954,7.9713659765625Q2.72124,6.1439659765625,4.25345,4.739465976562499Q5.77628,3.3435559765625,7.74629,2.5796799765625Q9.77865,1.7916259765625,12,1.7916259765625ZM7.83333,10.5416259765625Q8.42014,10.5416259765625,8.83507,10.9565559765625Q9.25,11.3714859765625,9.25,11.9583259765625Q9.25,12.5451259765625,8.83507,12.9600259765625Q8.42014,13.3749259765625,7.83333,13.3749259765625Q7.24653,13.3749259765625,6.8316,12.9600259765625Q6.41667,12.5451259765625,6.41667,11.9583259765625Q6.41667,11.3714859765625,6.8316,10.9565559765625Q7.24653,10.5416259765625,7.83333,10.5416259765625ZM12,10.5416259765625Q12.5868,10.5416259765625,13.0017,10.9565559765625Q13.4167,11.3714859765625,13.4167,11.9583259765625Q13.4167,12.5451259765625,13.0017,12.9600259765625Q12.5868,13.3749259765625,12,13.3749259765625Q11.4132,13.3749259765625,10.99827,12.9600259765625Q10.58333,12.5451259765625,10.58333,11.9583259765625Q10.58333,11.3714859765625,10.99827,10.9565559765625Q11.4132,10.5416259765625,12,10.5416259765625ZM16.1667,10.5416259765625Q16.753500000000003,10.5416259765625,17.1684,10.9565559765625Q17.5833,11.3714859765625,17.5833,11.9583259765625Q17.5833,12.5451259765625,17.1684,12.9600259765625Q16.753500000000003,13.3749259765625,16.1667,13.3749259765625Q15.5799,13.3749259765625,15.1649,12.9600259765625Q14.75,12.5451259765625,14.75,11.9583259765625Q14.75,11.3714859765625,15.1649,10.9565559765625Q15.5799,10.5416259765625,16.1667,10.5416259765625Z" fill-rule="evenodd" fill="#000000" fill-opacity="1"/></g></g></svg>