<svg xmlns="http://www.w3.org/2000/svg" xmlns:xlink="http://www.w3.org/1999/xlink" fill="none" version="1.1" width="24" height="24" viewBox="0 0 24 24"><defs><clipPath id="master_svg0_3472_29896"><rect x="0" y="0" width="24" height="24" rx="0"/></clipPath></defs><g clip-path="url(#master_svg0_3472_29896)"><g><path d="M7.1507,4.759247Q7.23284,4.688838,7.29803,4.6024899999999995Q7.36321,4.516142,7.40842,4.41785Q7.45362,4.319559,7.47676,4.213874Q7.4999,4.108189,7.4999,4Q7.4999,3.9015086,7.48068,3.80491Q7.46147,3.708311,7.42378,3.617317Q7.38609,3.526322,7.33137,3.44443Q7.27665,3.362537,7.20701,3.292893Q7.13736,3.223249,7.05547,3.16853Q6.97358,3.1138120000000002,6.88258,3.076121Q6.791589999999999,3.03843,6.694990000000001,3.019215Q6.59839,3,6.4999,3Q6.32086,3,6.152950000000001,3.0621169999999998Q5.98503,3.124235,5.8491,3.2407529999999998L2.349198,6.24075Q2.32005,6.26574,2.292903,6.29288Q2.223258,6.36253,2.168538,6.44442Q2.113818,6.5263100000000005,2.076126,6.6173Q2.038434,6.7082999999999995,2.019218,6.8049Q2.000002,6.90149,2,6.99999Q2,7.09848,2.019212,7.19508Q2.038425,7.2916799999999995,2.076115,7.38267Q2.113805,7.473660000000001,2.168523,7.55556Q2.22324,7.637449999999999,2.292883,7.7071000000000005L5.79247,11.20678L5.7927800000000005,11.2071Q5.93344,11.34775,6.11721,11.42388Q6.30098,11.5,6.4999,11.5Q6.59839,11.5,6.694990000000001,11.48078Q6.791589999999999,11.46157,6.88258,11.42388Q6.97358,11.38619,7.05547,11.33147Q7.13736,11.27675,7.20701,11.20711Q7.27665,11.13746,7.33137,11.05557Q7.38609,10.97368,7.42378,10.88268Q7.46147,10.79169,7.48068,10.69509Q7.4999,10.59849,7.4999,10.5Q7.4999,10.30109,7.42378,10.11732Q7.34766,9.93356,7.20702,9.7929L4.47067,7.0564800000000005L7.1507,4.759247Z" fill-rule="evenodd" fill="#000000" fill-opacity="1"/></g><g><path d="M14.4969,19L5.9992,19Q5.90071,19,5.80411,19.019199999999998Q5.70751,19.0384,5.6165199999999995,19.0761Q5.52552,19.113799999999998,5.443630000000001,19.1685Q5.36174,19.2232,5.29209,19.2929Q5.22245,19.3625,5.167730000000001,19.4444Q5.11301,19.5263,5.07532,19.6173Q5.03763,19.7083,5.018409999999999,19.8049Q4.9992,19.9015,4.9992,20Q4.9992,20.0985,5.018409999999999,20.1951Q5.03763,20.2917,5.07532,20.3827Q5.11301,20.4737,5.167730000000001,20.5556Q5.22245,20.6375,5.29209,20.7071Q5.36174,20.776699999999998,5.443630000000001,20.8315Q5.52552,20.886200000000002,5.6165199999999995,20.9239Q5.70751,20.9616,5.80411,20.980800000000002Q5.90071,21,5.9992,21L14.4969,21Q17.650399999999998,21,19.8832,18.681800000000003Q22.1173,16.36216,21.9944,13.211030000000001Q21.8781,10.22877,19.6795,8.1143Q17.481,6,14.4969,6L3.0003452,6L3,6Q2.9015086,6,2.80491,6.019215Q2.708311,6.03843,2.617317,6.076121Q2.526322,6.113812,2.44443,6.16853Q2.362537,6.223249,2.292893,6.292893Q2.223249,6.362537,2.16853,6.44443Q2.1138120000000002,6.526322,2.076121,6.617317Q2.03843,6.708311,2.019215,6.80491Q2,6.9015086,2,7Q2,7.0984914,2.019215,7.19509Q2.03843,7.291689,2.076121,7.382683Q2.1138120000000002,7.473678,2.16853,7.55557Q2.223249,7.637463,2.292893,7.707107Q2.362537,7.776751,2.44443,7.83147Q2.526322,7.886188,2.617317,7.923879Q2.708311,7.96157,2.80491,7.980785Q2.9015086,8,3,8L3.000345334,8L14.4969,7.999999Q16.6753,7.999999,18.293100000000003,9.55585Q19.9111,11.11181,19.996,13.288969999999999Q20.0856,15.58854,18.442700000000002,17.2943Q16.7999,19,14.4969,19Z" fill-rule="evenodd" fill="#000000" fill-opacity="1"/></g></g></svg>