<svg xmlns="http://www.w3.org/2000/svg" xmlns:xlink="http://www.w3.org/1999/xlink" fill="none" version="1.1" width="24" height="24" viewBox="0 0 24 24"><defs><clipPath id="master_svg0_1161_22759"><rect x="0" y="0" width="24" height="24" rx="0"/></clipPath></defs><g clip-path="url(#master_svg0_1161_22759)"><g><rect x="4.5" y="9" width="15" height="12" rx="4" fill-opacity="0" stroke-opacity="1" stroke="#000000" fill="none" stroke-width="2"/></g><g><path d="M11,5Q11,4.9015086,11.019214999999999,4.80491Q11.03843,4.708311,11.076121,4.617317Q11.113812,4.526322,11.16853,4.44443Q11.223249,4.362537,11.292893,4.292893Q11.362537,4.223249,11.44443,4.16853Q11.526322,4.113812,11.617317,4.076121Q11.708311,4.03843,11.80491,4.019215Q11.9015086,4,12,4Q12.0984914,4,12.19509,4.019215Q12.291689,4.03843,12.382683,4.076121Q12.473678,4.113812,12.55557,4.16853Q12.637463,4.223249,12.707107,4.292893Q12.776751,4.362537,12.83147,4.44443Q12.886188,4.526322,12.923879,4.617317Q12.96157,4.708311,12.980785000000001,4.80491Q13,4.9015086,13,5L13,9Q13,9.09849,12.980785000000001,9.19509Q12.96157,9.29169,12.923879,9.38268Q12.886188,9.47368,12.83147,9.55557Q12.776751,9.63746,12.707107,9.70711Q12.637463,9.77675,12.55557,9.83147Q12.473678,9.88619,12.382683,9.92388Q12.291689,9.96157,12.19509,9.98078Q12.0984914,10,12,10Q11.9015086,10,11.80491,9.98078Q11.708311,9.96157,11.617317,9.92388Q11.526322,9.88619,11.44443,9.83147Q11.362537,9.77675,11.292893,9.70711Q11.223249,9.63746,11.16853,9.55557Q11.113812,9.47368,11.076121,9.38268Q11.03843,9.29169,11.019214999999999,9.19509Q11,9.09849,11,9L11,5Z" fill-rule="evenodd" fill="#000000" fill-opacity="1"/></g><g><path d="M1,13Q1,12.9015086,1.019215,12.80491Q1.03843,12.708311,1.076121,12.617317Q1.113812,12.526322,1.16853,12.44443Q1.223249,12.362537,1.2928929999999998,12.292893Q1.362537,12.223249,1.44443,12.16853Q1.526322,12.113812,1.617317,12.076121Q1.7083110000000001,12.03843,1.80491,12.019214999999999Q1.9015086,12,2,12Q2.0984914,12,2.19509,12.019214999999999Q2.291689,12.03843,2.382683,12.076121Q2.473678,12.113812,2.55557,12.16853Q2.637463,12.223249,2.707107,12.292893Q2.776751,12.362537,2.83147,12.44443Q2.8861879999999998,12.526322,2.923879,12.617317Q2.96157,12.708311,2.980785,12.80491Q3,12.9015086,3,13L3,17Q3,17.098489999999998,2.980785,17.19509Q2.96157,17.29169,2.923879,17.38268Q2.8861879999999998,17.47368,2.83147,17.55557Q2.776751,17.63746,2.707107,17.70711Q2.637463,17.77675,2.55557,17.83147Q2.473678,17.88619,2.382683,17.92388Q2.291689,17.961570000000002,2.19509,17.98078Q2.0984914,18,2,18Q1.9015086,18,1.80491,17.98078Q1.7083110000000001,17.961570000000002,1.617317,17.92388Q1.526322,17.88619,1.44443,17.83147Q1.362537,17.77675,1.2928929999999998,17.70711Q1.223249,17.63746,1.16853,17.55557Q1.113812,17.47368,1.076121,17.38268Q1.03843,17.29169,1.019215,17.19509Q1,17.098489999999998,1,17L1,13Z" fill-rule="evenodd" fill="#000000" fill-opacity="1"/></g><g><path d="M21,13Q21,12.9015086,21.019215,12.80491Q21.038429999999998,12.708311,21.076121,12.617317Q21.113812,12.526322,21.16853,12.44443Q21.223249,12.362537,21.292893,12.292893Q21.362537,12.223249,21.44443,12.16853Q21.526322,12.113812,21.617317,12.076121Q21.708311,12.03843,21.80491,12.019214999999999Q21.9015086,12,22,12Q22.0984914,12,22.19509,12.019214999999999Q22.291689,12.03843,22.382683,12.076121Q22.473678,12.113812,22.55557,12.16853Q22.637463,12.223249,22.707107,12.292893Q22.776751,12.362537,22.83147,12.44443Q22.886188,12.526322,22.923879,12.617317Q22.961570000000002,12.708311,22.980785,12.80491Q23,12.9015086,23,13L23,17Q23,17.098489999999998,22.980785,17.19509Q22.961570000000002,17.29169,22.923879,17.38268Q22.886188,17.47368,22.83147,17.55557Q22.776751,17.63746,22.707107,17.70711Q22.637463,17.77675,22.55557,17.83147Q22.473678,17.88619,22.382683,17.92388Q22.291689,17.961570000000002,22.19509,17.98078Q22.0984914,18,22,18Q21.9015086,18,21.80491,17.98078Q21.708311,17.961570000000002,21.617317,17.92388Q21.526322,17.88619,21.44443,17.83147Q21.362537,17.77675,21.292893,17.70711Q21.223249,17.63746,21.16853,17.55557Q21.113812,17.47368,21.076121,17.38268Q21.038429999999998,17.29169,21.019215,17.19509Q21,17.098489999999998,21,17L21,13Z" fill-rule="evenodd" fill="#000000" fill-opacity="1"/></g><g><path d="M16.4990234375,14.5L16.4990234375,15.5Q16.4990234375,15.59849,16.4798084375,15.69509Q16.460593437500002,15.79169,16.4229024375,15.88268Q16.3852114375,15.97368,16.3304934375,16.05557Q16.2757744375,16.13746,16.2061304375,16.20711Q16.1364864375,16.27675,16.0545934375,16.33147Q15.9727014375,16.38619,15.8817064375,16.42388Q15.7907124375,16.461570000000002,15.6941134375,16.48079Q15.5975148375,16.5,15.4990234375,16.5Q15.4005320375,16.5,15.3039334375,16.48079Q15.2073344375,16.461570000000002,15.1163404375,16.42388Q15.0253454375,16.38619,14.9434534375,16.33147Q14.8615604375,16.27675,14.7919164375,16.20711Q14.7222724375,16.13746,14.6675534375,16.05557Q14.6128354375,15.97368,14.5751444375,15.88268Q14.5374534375,15.79169,14.518238437499999,15.69509Q14.4990234375,15.59849,14.4990234375,15.5L14.4990234375,14.5Q14.4990234375,14.4015086,14.518238437499999,14.30491Q14.5374534375,14.208311,14.5751444375,14.117317Q14.6128354375,14.026322,14.6675534375,13.94443Q14.7222724375,13.862537,14.7919164375,13.792893Q14.8615604375,13.723249,14.9434534375,13.66853Q15.0253454375,13.613812,15.1163404375,13.576121Q15.2073344375,13.53843,15.3039334375,13.519214999999999Q15.4005320375,13.5,15.4990234375,13.5Q15.5975148375,13.5,15.6941134375,13.519214999999999Q15.7907124375,13.53843,15.8817064375,13.576121Q15.9727014375,13.613812,16.0545934375,13.66853Q16.1364864375,13.723249,16.2061304375,13.792893Q16.2757744375,13.862537,16.3304934375,13.94443Q16.3852114375,14.026322,16.4229024375,14.117317Q16.460593437500002,14.208311,16.4798084375,14.30491Q16.4990234375,14.4015086,16.4990234375,14.5Z" fill-rule="evenodd" fill="#000000" fill-opacity="1"/></g><g><path d="M9.4990234375,14.5L9.4990234375,15.5Q9.4990234375,15.59849,9.479808437500001,15.69509Q9.4605934375,15.79169,9.4229024375,15.88268Q9.3852114375,15.97368,9.3304934375,16.05557Q9.2757744375,16.13746,9.2061304375,16.20711Q9.1364864375,16.27675,9.0545934375,16.33147Q8.9727014375,16.38619,8.8817064375,16.42388Q8.7907124375,16.461570000000002,8.6941134375,16.48079Q8.5975148375,16.5,8.4990234375,16.5Q8.4005320375,16.5,8.3039334375,16.48079Q8.2073344375,16.461570000000002,8.1163404375,16.42388Q8.0253454375,16.38619,7.9434534375,16.33147Q7.8615604375,16.27675,7.7919164375,16.20711Q7.7222724375,16.13746,7.6675534375,16.05557Q7.6128354375,15.97368,7.5751444375,15.88268Q7.5374534375,15.79169,7.5182384375,15.69509Q7.4990234375,15.59849,7.4990234375,15.5L7.4990234375,14.5Q7.4990234375,14.4015086,7.5182384375,14.30491Q7.5374534375,14.208311,7.5751444375,14.117317Q7.6128354375,14.026322,7.6675534375,13.94443Q7.7222724375,13.862537,7.7919164375,13.792893Q7.8615604375,13.723249,7.9434534375,13.66853Q8.0253454375,13.613812,8.1163404375,13.576121Q8.2073344375,13.53843,8.3039334375,13.519214999999999Q8.4005320375,13.5,8.4990234375,13.5Q8.5975148375,13.5,8.6941134375,13.519214999999999Q8.7907124375,13.53843,8.8817064375,13.576121Q8.9727014375,13.613812,9.0545934375,13.66853Q9.1364864375,13.723249,9.2061304375,13.792893Q9.2757744375,13.862537,9.3304934375,13.94443Q9.3852114375,14.026322,9.4229024375,14.117317Q9.4605934375,14.208311,9.479808437500001,14.30491Q9.4990234375,14.4015086,9.4990234375,14.5Z" fill-rule="evenodd" fill="#000000" fill-opacity="1"/></g><g><ellipse cx="12" cy="4" rx="1" ry="1" fill-opacity="0" stroke-opacity="1" stroke="#000000" fill="none" stroke-width="2"/></g></g></svg>