<svg xmlns="http://www.w3.org/2000/svg" xmlns:xlink="http://www.w3.org/1999/xlink" fill="none" version="1.1" width="24" height="24" viewBox="0 0 24 24"><defs><clipPath id="master_svg0_3282_40695"><rect x="0" y="0" width="24" height="24" rx="0"/></clipPath></defs><g clip-path="url(#master_svg0_3282_40695)"><g><path d="M2,4.12782L2,9.51435Q2.000001,14.0865,4.67375,17.7953Q7.34749,21.5041,11.68527,22.949Q11.83915,23.0003,12.00135,23.0003Q12.16354,23.0002,12.31742,22.949Q16.6541,21.504,19.327,17.796Q22,14.0879,22,9.51685L22,4.12782Q22,4.04724,21.9871,3.96769Q21.9742,3.88814,21.9487,3.81169Q21.9232,3.73524,21.8859,3.66385Q21.8485,3.59247,21.8001,3.52799Q21.7518,3.4635100000000003,21.6937,3.4076Q21.6357,3.3517,21.5695,3.30581Q21.5032,3.25992,21.4305,3.22522Q21.3578,3.19053,21.2804,3.1679399999999998L12.2847,0.540117Q12.00443,0.45825000000000005,11.72415,0.540045L2.719846,3.1678699999999997Q2.642472,3.1904500000000002,2.569714,3.22513Q2.496956,3.25981,2.430691,3.3057Q2.364427,3.3515800000000002,2.306367,3.40749Q2.2483079999999998,3.4634,2.199952,3.52788Q2.151596,3.59237,2.114193,3.66377Q2.0767889999999998,3.73516,2.051304,3.81163Q2.0258190000000003,3.8881,2.012909,3.96766Q2,4.047219999999999,2,4.12782ZM6.2961100000000005,16.625700000000002Q4,13.4407,4,9.51435L4,4.8777L12.00417,2.54175L20,4.87749L20,9.51685Q20,13.4422,17.7046,16.6264Q15.5074,19.6744,12.00125,20.9418Q8.494,19.6744,6.2961100000000005,16.625700000000002Z" fill-rule="evenodd" fill="#000000" fill-opacity="1"/></g><g><path d="M10.97509765625,7.4747314453125Q10.97509765625,7.3762400453125,10.994312656249999,7.2796414453125Q11.01352765625,7.1830424453125,11.05121865625,7.0920484453125Q11.08890965625,7.0010534453125,11.14362765625,6.9191614453125Q11.19834665625,6.8372684453125,11.26799065625,6.7676244453125Q11.33763465625,6.6979804453125,11.41952765625,6.6432614453125Q11.50141965625,6.5885434453125,11.59241465625,6.5508524453125Q11.68340865625,6.5131614453125,11.78000765625,6.4939464453125Q11.87660625625,6.4747314453125,11.97509765625,6.4747314453125Q12.07358905625,6.4747314453125,12.17018765625,6.4939464453125Q12.26678665625,6.5131614453125,12.35778065625,6.5508524453125Q12.44877565625,6.5885434453125,12.53066765625,6.6432614453125Q12.61256065625,6.6979804453125,12.68220465625,6.7676244453125Q12.75184865625,6.8372684453125,12.80656765625,6.9191614453125Q12.86128565625,7.0010534453125,12.89897665625,7.0920484453125Q12.93666765625,7.1830424453125,12.955882656250001,7.2796414453125Q12.97509765625,7.3762400453125,12.97509765625,7.4747314453125L12.97509765625,15.4747314453125Q12.97509765625,15.5732214453125,12.955882656250001,15.6698214453125Q12.93666765625,15.7664214453125,12.89897665625,15.8574114453125Q12.86128565625,15.9484114453125,12.80656765625,16.0303014453125Q12.75184865625,16.1121914453125,12.68220465625,16.1818414453125Q12.61256065625,16.2514814453125,12.53066765625,16.3062014453125Q12.44877565625,16.3609214453125,12.35778065625,16.3986114453125Q12.26678665625,16.436301445312502,12.17018765625,16.4555114453125Q12.07358905625,16.4747314453125,11.97509765625,16.4747314453125Q11.87660625625,16.4747314453125,11.78000765625,16.4555114453125Q11.68340865625,16.436301445312502,11.59241465625,16.3986114453125Q11.50141965625,16.3609214453125,11.41952765625,16.3062014453125Q11.33763465625,16.2514814453125,11.26799065625,16.1818414453125Q11.19834665625,16.1121914453125,11.14362765625,16.0303014453125Q11.08890965625,15.9484114453125,11.05121865625,15.8574114453125Q11.01352765625,15.7664214453125,10.994312656249999,15.6698214453125Q10.97509765625,15.5732214453125,10.97509765625,15.4747314453125L10.97509765625,7.4747314453125Z" fill-rule="evenodd" fill="#000000" fill-opacity="1"/></g><g><path d="M7.974609375,10.474853515625L15.974609375,10.474853515625Q16.073099374999998,10.474853515625,16.169699375,10.494068515624999Q16.266299375,10.513283515625,16.357289375,10.550974515625Q16.448289375,10.588665515625,16.530179375,10.643383515625Q16.612069375,10.698102515625,16.681719375,10.767746515625Q16.751359375,10.837390515625,16.806079375,10.919283515625Q16.860799375,11.001175515625,16.898489375,11.092170515625Q16.936179375000002,11.183164515625,16.955389375,11.279763515625Q16.974609375,11.376362115625,16.974609375,11.474853515625Q16.974609375,11.573344915625,16.955389375,11.669943515625Q16.936179375000002,11.766542515625,16.898489375,11.857536515625Q16.860799375,11.948531515625,16.806079375,12.030423515625Q16.751359375,12.112316515625,16.681719375,12.181960515625Q16.612069375,12.251604515625,16.530179375,12.306323515625Q16.448289375,12.361041515625,16.357289375,12.398732515625Q16.266299375,12.436423515625,16.169699375,12.455638515625001Q16.073099374999998,12.474853515625,15.974609375,12.474853515625L7.974609375,12.474853515625Q7.876117975,12.474853515625,7.779519375,12.455638515625001Q7.682920375,12.436423515625,7.591926375,12.398732515625Q7.500931375,12.361041515625,7.419039375,12.306323515625Q7.337146375,12.251604515625,7.267502375,12.181960515625Q7.197858375,12.112316515625,7.143139375,12.030423515625Q7.088421375,11.948531515625,7.050730375,11.857536515625Q7.013039375,11.766542515625,6.993824375,11.669943515625Q6.974609375,11.573344915625,6.974609375,11.474853515625Q6.974609375,11.376362115625,6.993824375,11.279763515625Q7.013039375,11.183164515625,7.050730375,11.092170515625Q7.088421375,11.001175515625,7.143139375,10.919283515625Q7.197858375,10.837390515625,7.267502375,10.767746515625Q7.337146375,10.698102515625,7.419039375,10.643383515625Q7.500931375,10.588665515625,7.591926375,10.550974515625Q7.682920375,10.513283515625,7.779519375,10.494068515624999Q7.876117975,10.474853515625,7.974609375,10.474853515625Z" fill-rule="evenodd" fill="#000000" fill-opacity="1"/></g></g></svg>