<svg xmlns="http://www.w3.org/2000/svg" xmlns:xlink="http://www.w3.org/1999/xlink" fill="none" version="1.1" width="24" height="24" viewBox="0 0 24 24"><defs><clipPath id="master_svg0_5621_193604"><rect x="0" y="0" width="24" height="24" rx="0"/></clipPath></defs><g clip-path="url(#master_svg0_5621_193604)"><g><path d="M12.0000366796875,1.5Q13.8640466796875,1.5,15.1820466796875,2.8180199999999997Q16.5000466796875,4.1360399999999995,16.5000466796875,6Q16.5000466796875,7.86396,15.1820466796875,9.18198Q13.8640466796875,10.5,12.0000366796875,10.5Q10.1360766796875,10.5,8.818056679687501,9.18198Q7.500036679687501,7.86396,7.500036679687501,6Q7.500036679687501,4.1360399999999995,8.818056679687501,2.8180199999999997Q10.1360766796875,1.5,12.0000366796875,1.5ZM11.9989066796875,22.5Q8.5991966796875,22.4998,5.4424266796875,21.3209Q4.6332806796875,21.0187,4.1937246796875,20.2929Q3.7335476796875,19.533,3.8991883796875,18.6725Q4.4539636796875,15.7907,6.7192966796875,13.9018Q9.0115466796875,11.9905,12.0000366796875,11.9905Q14.9885466796875,11.9905,17.2807466796875,13.9018Q17.4438466796875,14.0378,17.5980466796875,14.1789Q16.997746679687502,14.9389,16.998046679687498,16.0001Q16.9978466796875,16.127299999999998,17.008246679687502,16.2541L17.008446679687502,16.2562Q17.0143466796875,16.325699999999998,17.0128466796875,16.374299999999998L13.8174966796875,19.0056Q13.0492766796875,19.6416,13.0025366796875,20.6378Q12.9558066796875,21.6341,13.6611066796875,22.3392Q13.7037866796875,22.3819,13.7475466796875,22.4218Q12.8810766796875,22.5011,12.0001466796875,22.5L11.9989066796875,22.5Z" fill-rule="evenodd" fill="#165DFF" fill-opacity="1"/></g><g><path d="M17.99798,16.001829999999998C17.99763,14.659177,19.29414,13.69756,20.5789,14.0875703C20.78546,14.150143,20.85072,14.41035,20.698140000000002,14.562993L19.43339,15.82736C19.45739,16.00831,19.53853,16.18317,19.67758,16.32221C19.81663,16.46126,19.99148,16.5424,20.17281,16.56602L21.436799999999998,15.30165C21.58944,15.14907,21.84965,15.21433,21.912219999999998,15.42089C22.32321,16.77459,21.23722,18.11541,19.82767,17.99457C19.43987,17.96181,19.1153,18.03267,18.94807,18.23609L16.22429,21.544629999999998C15.75222,22.11506,14.891714,22.15562,14.368088,21.6321C13.844462,21.10859,13.884830000000001,20.24808,14.455165,19.77589L17.76332,17.05173C17.96636,16.88411,18.0376,16.559919999999998,18.00484,16.17212C18.00018,16.115479999999998,17.997889999999998,16.05867,17.99798,16.001829999999998ZM14.994968,20.716070000000002C14.994968,20.55827,15.12289,20.43035,15.28068,20.43035L15.28373,20.43035C15.44152,20.43035,15.56944,20.55827,15.56944,20.716070000000002L15.56944,20.71911C15.56944,20.87691,15.44152,21.00482,15.28373,21.00482L15.28068,21.00482C15.12289,21.00482,14.994968,20.87691,14.994968,20.71911L14.994968,20.716070000000002Z" fill-rule="evenodd" fill="#165DFF" fill-opacity="1"/></g></g></svg>