<svg xmlns="http://www.w3.org/2000/svg" xmlns:xlink="http://www.w3.org/1999/xlink" fill="none" version="1.1" width="24" height="24" viewBox="0 0 24 24"><defs><clipPath id="master_svg0_5621_193847"><rect x="0" y="0" width="24" height="24" rx="0"/></clipPath></defs><g clip-path="url(#master_svg0_5621_193847)"><g><path d="M12.0000366796875,1.5Q13.8640466796875,1.5,15.1820466796875,2.8180199999999997Q16.5000466796875,4.1360399999999995,16.5000466796875,6Q16.5000466796875,7.86396,15.1820466796875,9.18198Q13.8640466796875,10.5,12.0000366796875,10.5Q10.1360766796875,10.5,8.818056679687501,9.18198Q7.500036679687501,7.86396,7.500036679687501,6Q7.500036679687501,4.1360399999999995,8.818056679687501,2.8180199999999997Q10.1360766796875,1.5,12.0000366796875,1.5ZM11.9989066796875,22.5Q8.5991966796875,22.4998,5.4424266796875,21.3209Q4.6332806796875,21.0187,4.1937246796875,20.2929Q3.7335476796875,19.533,3.8991883796875,18.6725Q4.4539636796875,15.7907,6.7192966796875,13.9018Q9.0115466796875,11.9905,12.0000366796875,11.9905Q14.9885466796875,11.9905,17.2807466796875,13.9018Q17.3114466796875,13.9273,17.3418466796875,13.9531Q17.307346679687498,13.9793,17.2737466796875,14.0078Q16.8540466796875,14.3632,16.7635466796875,14.9063L16.7395466796875,15.0498L16.6038466796875,14.9989Q16.0885466796875,14.8053,15.5703466796875,14.991Q15.0522466796875,15.1767,14.7772466796875,15.6533L14.2003466796875,16.652900000000002Q13.9261466796875,17.1291,14.0243466796875,17.6697Q14.1226466796875,18.2104,14.5466466796875,18.5593L14.6596466796875,18.6523L14.5473466796875,18.7448Q14.1225466796875,19.0942,14.0241466796875,19.6353Q13.9258466796875,20.1764,14.2008466796875,20.6531L14.7777466796875,21.6526Q14.9863466796875,22.0132,15.3341466796875,22.207Q13.6938666796875,22.5022,12.0001466796875,22.5L11.9989066796875,22.5Z" fill-rule="evenodd" fill="#165DFF" fill-opacity="1"/></g><g><path d="M18.24335,14.65234375C17.9989,14.65234375,17.79001,14.82923275,17.75001,15.07012175L17.6549,15.63945375C17.62735,15.80567375,17.51623,15.94434375,17.36868,16.02567375C17.33579,16.04434375,17.3029,16.06301375,17.2709,16.08256375C17.12646,16.16967375,16.9509,16.19678375,16.79268,16.13767375L16.25223,15.93501375C16.02322,15.84900375,15.765592999999999,15.94133375,15.643345,16.15323375L15.066901,17.15189375C14.9450341,17.363543749999998,14.99389087,17.63225375,15.182457,17.78745375L15.628679,18.155013750000002C15.758456,18.26212375,15.822901,18.42701375,15.81979,18.595893750000002C15.819095,18.63367375,15.819095,18.67145375,15.81979,18.70923375C15.822901,18.877233750000002,15.758456,19.04301375,15.628679,19.149673749999998L15.182457,19.51723375C14.99365393,19.672483749999998,14.9447788,19.94148375,15.066901,20.15323375L15.643345,21.15189375C15.765698,21.36341375,16.02301,21.45551375,16.25179,21.36967375L16.79268,21.16701375C16.9509,21.10789375,17.12646,21.13501375,17.2709,21.22212375C17.30312,21.24156375,17.33572,21.26038375,17.36868,21.27856375C17.51623,21.36034375,17.62735,21.49901375,17.6549,21.66523375L17.74957,22.23456375C17.79001,22.47545375,17.99846,22.65234375,18.2429,22.65234375L19.395789999999998,22.65234375C19.64023,22.65234375,19.84912,22.47589375,19.88912,22.23456375L19.98379,21.66523375C20.01179,21.49901375,20.1229,21.36034375,20.27001,21.27901375C20.302970000000002,21.26069375,20.33557,21.24172375,20.36779,21.22212375C20.51268,21.13501375,20.68823,21.10790375,20.84601,21.16701375L21.3869,21.36967375C21.61579,21.45543375,21.87313,21.36313375,21.995350000000002,21.15145375L22.57223,20.15278375C22.69401,19.94167375,22.64512,19.67278375,22.45668,19.51723375L22.010460000000002,19.149673749999998C21.88023,19.04256375,21.81579,18.877233750000002,21.81935,18.70923375C21.819969999999998,18.67145375,21.819969999999998,18.63367375,21.81935,18.59590375C21.81579,18.42745375,21.88023,18.26212375,22.010460000000002,18.155013750000002L22.456229999999998,17.78745375C22.64504,17.63220375,22.69391,17.36320375,22.57179,17.15145375L21.99579,16.15278375C21.8734,15.94105375,21.61581,15.84892375,21.3869,15.93501375L20.84601,16.13767375C20.68823,16.19678375,20.51268,16.16967375,20.36823,16.08256375C20.33579,16.06301375,20.303350000000002,16.04390375,20.27046,16.02612375C20.1229,15.94434375,20.01179,15.80567375,19.98379,15.63945475L19.88912,15.07012175C19.84912,14.82923275,19.64023,14.65234375,19.395789999999998,14.65234375L18.24335,14.65234375ZM18.8193,19.986003750000002C19.55568,19.986003750000002,20.152630000000002,19.389053750000002,20.152630000000002,18.652673749999998C20.152630000000002,17.91629375,19.55568,17.31933375,18.8193,17.31933375C18.08292,17.31933375,17.48596,17.91629375,17.48596,18.652673749999998C17.48596,19.389053750000002,18.08292,19.986003750000002,18.8193,19.986003750000002Z" fill-rule="evenodd" fill="#165DFF" fill-opacity="1"/></g></g></svg>