<svg xmlns="http://www.w3.org/2000/svg" xmlns:xlink="http://www.w3.org/1999/xlink" fill="none" version="1.1" width="24" height="24" viewBox="0 0 24 24"><defs><clipPath id="master_svg0_3282_41045"><rect x="0" y="0" width="24" height="24" rx="0"/></clipPath></defs><g clip-path="url(#master_svg0_3282_41045)"><g><path d="M22.607755859375,13.3536720703125Q22.607755859375,12.1987320703125,21.793555859375,11.3796620703125L21.791455859375,11.3775620703125L13.706865859375,3.2930150703125Q13.566205859375,3.1523630703125,13.382435859375,3.0762430703125Q13.198665859375,3.0001220703125,12.999755859375,3.0001220703125L3.999755859375,3.0001220703125Q3.901264459375,3.0001220703125,3.804665859375,3.0193370703125Q3.708066859375,3.0385520703125,3.617072859375,3.0762430703125Q3.526077859375,3.1139340703125002,3.444185859375,3.1686520703125Q3.362292859375,3.2233710703125,3.292648859375,3.2930150703125Q3.223004859375,3.3626590703125,3.168285859375,3.4445520703125Q3.1135678593750002,3.5264440703125,3.075876859375,3.6174390703125Q3.038185859375,3.7084330703125,3.018970859375,3.8050320703125Q2.999755859375,3.9016306703125,2.999755859375,4.0001220703125L2.999755859375,13.0001220703125Q2.999755859375,13.1991820703125,3.0759828593750003,13.3830620703125Q3.152209859375,13.5669420703125,3.293042859375,13.7076220703125L11.376835859375,21.7824220703125Q12.197145859375,22.6036220703125,13.357805859375,22.6036220703125Q14.518555859375,22.6036220703125,15.338455859375,21.7828220703125L21.793555859375,15.3277220703125Q22.607755859375,14.5086220703125,22.607755859375,13.3536720703125ZM20.375055859375,12.7896820703125L20.377155859375,12.7917820703125Q20.934755859375,13.3547220703125,20.375155859375,13.9176620703125L13.924195859375,20.3685220703125Q13.689475859375,20.6036220703125,13.357805859375,20.6036220703125Q13.026175859375,20.6036220703125,12.791775859375,20.3689220703125L4.999755859375,12.5855820703125L4.999755859375,5.0001220703125L12.585545859375,5.0001220703125L20.375055859375,12.7896820703125Z" fill-rule="evenodd" fill="#000000" fill-opacity="1"/></g><g><path d="M10.50018310546875,9.2498779296875Q10.50018310546875,9.3112879296875,10.49416310546875,9.3723979296875Q10.488143105468751,9.4335079296875,10.47616310546875,9.4937379296875Q10.46418310546875,9.5539679296875,10.44636310546875,9.6127379296875Q10.42853310546875,9.6714979296875,10.40503310546875,9.7282279296875Q10.38153310546875,9.7849679296875,10.35258310546875,9.8391279296875Q10.32363310546875,9.8932779296875,10.28952310546875,9.9443379296875Q10.25540310546875,9.995397929687499,10.21644310546875,10.0428679296875Q10.17749310546875,10.0903379296875,10.13406310546875,10.1337579296875Q10.09064310546875,10.1771879296875,10.04317310546875,10.2161379296875Q9.995703105468749,10.2550979296875,9.94464310546875,10.2892179296875Q9.89358310546875,10.3233279296875,9.83943310546875,10.3522779296875Q9.78527310546875,10.3812279296875,9.72853310546875,10.4047279296875Q9.67180310546875,10.4282279296875,9.61304310546875,10.4460579296875Q9.55427310546875,10.4638779296875,9.49404310546875,10.4758579296875Q9.43381310546875,10.487837929687501,9.37270310546875,10.4938579296875Q9.31159310546875,10.4998779296875,9.25018310546875,10.4998779296875Q9.18877310546875,10.4998779296875,9.12766310546875,10.4938579296875Q9.06655310546875,10.487837929687501,9.00632310546875,10.4758579296875Q8.94609110546875,10.4638779296875,8.88732710546875,10.4460579296875Q8.82856310546875,10.4282279296875,8.77182910546875,10.4047279296875Q8.71509510546875,10.3812279296875,8.66093710546875,10.3522779296875Q8.60678010546875,10.3233279296875,8.55572010546875,10.2892179296875Q8.50466110546875,10.2550979296875,8.45719110546875,10.2161379296875Q8.40972210546875,10.1771879296875,8.36629910546875,10.1337579296875Q8.32287710546875,10.0903379296875,8.28392010546875,10.0428679296875Q8.24496310546875,9.995397929687499,8.21084610546875,9.9443379296875Q8.17672910546875,9.8932779296875,8.14778110546875,9.8391279296875Q8.11883410546875,9.7849679296875,8.09533370546875,9.7282279296875Q8.07183360546875,9.6714979296875,8.05400770546875,9.6127379296875Q8.03618170546875,9.5539679296875,8.02420150546875,9.4937379296875Q8.01222130546875,9.4335079296875,8.00620219546875,9.3723979296875Q8.00018310546875,9.3112879296875,8.00018310546875,9.2498779296875Q8.00018310546875,9.1884679296875,8.00620219546875,9.1273579296875Q8.01222130546875,9.0662479296875,8.02420150546875,9.0060179296875Q8.03618170546875,8.9457859296875,8.05400770546875,8.8870219296875Q8.07183360546875,8.8282579296875,8.09533370546875,8.7715239296875Q8.11883410546875,8.7147899296875,8.14778110546875,8.6606319296875Q8.17672910546875,8.6064749296875,8.21084610546875,8.5554149296875Q8.24496310546875,8.5043559296875,8.28392010546875,8.4568859296875Q8.32287710546875,8.4094169296875,8.36629910546875,8.3659939296875Q8.40972210546875,8.3225719296875,8.45719110546875,8.2836149296875Q8.50466110546875,8.2446579296875,8.55572010546875,8.2105409296875Q8.60678010546875,8.1764239296875,8.66093710546875,8.1474759296875Q8.71509510546875,8.1185289296875,8.77182910546875,8.0950285296875Q8.82856310546875,8.0715284296875,8.88732710546875,8.0537025296875Q8.94609110546875,8.0358765296875,9.00632310546875,8.0238963296875Q9.06655310546875,8.0119161296875,9.12766310546875,8.0058970196875Q9.18877310546875,7.9998779296875,9.25018310546875,7.9998779296875Q9.31159310546875,7.9998779296875,9.37270310546875,8.0058970196875Q9.43381310546875,8.0119161296875,9.49404310546875,8.0238963296875Q9.55427310546875,8.0358765296875,9.61304310546875,8.0537025296875Q9.67180310546875,8.0715284296875,9.72853310546875,8.0950285296875Q9.78527310546875,8.1185289296875,9.83943310546875,8.1474759296875Q9.89358310546875,8.1764239296875,9.94464310546875,8.2105409296875Q9.995703105468749,8.2446579296875,10.04317310546875,8.2836149296875Q10.09064310546875,8.3225719296875,10.13406310546875,8.3659939296875Q10.17749310546875,8.4094169296875,10.21644310546875,8.4568859296875Q10.25540310546875,8.5043559296875,10.28952310546875,8.5554149296875Q10.32363310546875,8.6064749296875,10.35258310546875,8.6606319296875Q10.38153310546875,8.7147899296875,10.40503310546875,8.7715239296875Q10.42853310546875,8.8282579296875,10.44636310546875,8.8870219296875Q10.46418310546875,8.9457859296875,10.47616310546875,9.0060179296875Q10.488143105468751,9.0662479296875,10.49416310546875,9.1273579296875Q10.50018310546875,9.1884679296875,10.50018310546875,9.2498779296875Z" fill="#000000" fill-opacity="1"/></g></g></svg>