<svg xmlns="http://www.w3.org/2000/svg" xmlns:xlink="http://www.w3.org/1999/xlink" fill="none" version="1.1" width="24" height="24" viewBox="0 0 24 24"><defs><clipPath id="master_svg0_3591_30152"><rect x="0" y="0" width="24" height="24" rx="0"/></clipPath></defs><g clip-path="url(#master_svg0_3591_30152)"><g><path d="M0,19.2L0,4.8C0,2.14903,2.14903,9.53674e-7,4.8,9.53674e-7L19.2,9.53674e-7C21.851,9.53674e-7,24,2.14903,24,4.8L24,19.2C24,21.851,21.851,24,19.2,24L4.8,24C2.14903,24,9.53674e-7,21.851,0,19.2ZM11.9437,4.64316L8.40372,8.3567C8.32187,8.44256,8.27625,8.55663,8.27625,8.67525C8.27625,8.93015,8.48297,9.13675,8.73787,9.1367L9.96834,9.1367C10.2232,9.1367,10.4299,9.34334,10.4299,9.59824L10.4299,11.9078C10.4299,12.1627,10.6365,12.3693,10.8914,12.3693L13.6606,12.3693C13.9155,12.3693,14.1222,12.1627,14.1222,11.9078L14.1222,9.59824C14.1222,9.34334,14.3288,9.1367,14.5837,9.1367L15.8142,9.1367C15.9328,9.13672,16.0469,9.09107,16.1327,9.00923C16.3172,8.83335,16.3242,8.5412,16.1483,8.3567L12.6111,4.64316C12.606,4.6378,12.6008,4.63257,12.5954,4.62746C12.4117,4.45154,12.1196,4.45861,11.9437,4.64316ZM9.08472,16.3088C9.08472,18.5088,10.0152,19.0553,11.6004,19.0553C13.1924,19.0553,14.1155,18.5088,14.1155,16.3095C14.1155,14.1168,13.1924,13.563,11.6004,13.563C10.0152,13.563,9.08472,14.1168,9.08472,16.3088ZM8.56954,13.9476C8.56954,13.7777,8.43178,13.6399,8.26185,13.6399L4.80769,13.6399C4.63776,13.6399,4.5,13.7777,4.5,13.9476L4.5,14.6707C4.5,14.8406,4.63776,14.9784,4.80769,14.9784L5.46123,14.9784C5.63117,14.9784,5.76892,15.1161,5.76892,15.286L5.76892,18.6707C5.76892,18.8406,5.90668,18.9784,6.07662,18.9784L6.98493,18.9784C7.15486,18.9784,7.29262,18.8406,7.29262,18.6707L7.29262,15.286C7.29262,15.1161,7.43038,14.9784,7.60031,14.9784L8.26185,14.9784C8.43178,14.9784,8.56954,14.8406,8.56954,14.6707L8.56954,13.9476ZM19.2774,15.5396C19.2774,14.163,18.7543,13.6399,17.0694,13.6399L15.3001,13.6399C15.1302,13.6399,14.9924,13.7777,14.9924,13.9476L14.9924,18.6707C14.9924,18.8406,15.1302,18.9784,15.3001,18.9784L16.2158,18.9784C16.3857,18.9784,16.5235,18.8406,16.5235,18.6707L16.5235,17.8319C16.5235,17.662,16.6613,17.5242,16.8312,17.5242L17.0694,17.5242C18.6694,17.5242,19.2774,17.0399,19.2774,15.5396ZM12.5075,16.3095C12.5075,17.4553,12.3309,17.7938,11.6004,17.7938C10.8694,17.7938,10.7001,17.4553,10.7001,16.3095C10.7001,15.1476,10.8694,14.8018,11.6004,14.8018C12.3309,14.8018,12.5075,15.1476,12.5075,16.3095ZM16.8312,14.8171L16.846,14.8171C17.4694,14.8171,17.7155,14.9864,17.7155,15.5784C17.7155,16.1396,17.4848,16.3094,16.846,16.3094L16.8312,16.3094C16.6613,16.3094,16.5235,16.1717,16.5235,16.0017L16.5235,15.1248C16.5235,14.9549,16.6613,14.8171,16.8312,14.8171Z" fill="#FF294D" fill-opacity="1"/></g></g></svg>