<svg xmlns="http://www.w3.org/2000/svg" xmlns:xlink="http://www.w3.org/1999/xlink" fill="none" version="1.1" width="24" height="24" viewBox="0 0 24 24"><defs><clipPath id="master_svg0_3598_30153"><rect x="0" y="0" width="24" height="24" rx="0"/></clipPath></defs><g clip-path="url(#master_svg0_3598_30153)"><g><path d="M7.78925,22.165C7.20702,21.9236,6.64959,21.634,6.11695,21.2961C5.99619,21.3108,5.83777,21.3376,5.6417,21.3765C5.09083,21.486,4.29812,21.682,3.26356,21.9646C3.09101,22.0118,2.9089799999999997,22.0118,2.73644,21.9646C2.2036800000000003,21.8191,1.8898000000000001,21.2692,2.03536,20.7364C2.31801,19.7019,2.5140599999999997,18.9092,2.62351,18.3583C2.6624600000000003,18.1622,2.68924,18.0038,2.70385,17.883C2.36611,17.3505,2.0765000000000002,16.793100000000003,1.83501,16.2107C1.27834,14.8683,0.9999999403954,13.4647,0.9999999403954,12C0.9999999403954,8.962430000000001,2.07394,6.36971,4.22182,4.22182C6.36971,2.07394,8.962430000000001,1.000000715256,12,1.000000715256C15.0376,1.000000715256,17.6303,2.07394,19.7782,4.22182C21.9261,6.36971,23,8.962430000000001,23,12C23,15.0376,21.9261,17.6303,19.7782,19.7782C17.6303,21.9261,15.0376,23,12,23C10.5353,23,9.13172,22.7217,7.78925,22.165ZM10.92334,6.86891C10.43805,6.86891,10.0228,7.21734,9.93849,7.69548L9.72433,8.910029999999999L8.30225,8.910029999999999C7.74997,8.910029999999999,7.30225,9.35775,7.30225,9.91003C7.30225,10.46231,7.74997,10.91003,8.30225,10.91003L9.37168,10.91003L9.00316,13L7.30225,13C6.74997,13,6.30225,13.4477,6.30225,14C6.30225,14.5523,6.74997,15,7.30225,15L8.65051,15L8.48168,15.9574C8.47157,16.0148,8.46649,16.0729,8.46649,16.1311C8.46649,16.6834,8.91421,17.1311,9.46649,17.1311C9.95178,17.1311,10.36703,16.7827,10.4513,16.3047L10.68136,15L12.1505,15L11.9817,15.9574C11.9716,16.0148,11.9665,16.0729,11.9665,16.1311C11.9665,16.6834,12.4142,17.1311,12.9665,17.1311C13.4518,17.1311,13.867,16.7827,13.9513,16.3047L14.1814,15L15.6919,15C16.2442,15,16.6919,14.5523,16.6919,14C16.6919,13.4477,16.2442,13,15.6919,13L14.534,13L14.9025,10.91003L16.6919,10.91003C17.2442,10.91003,17.6919,10.46231,17.6919,9.91003C17.6919,9.35775,17.2442,8.910029999999999,16.6919,8.910029999999999L15.2552,8.910029999999999L15.4082,8.04255C15.4183,7.98522,15.4233,7.92711,15.4233,7.8689C15.4233,7.31663,14.9756,6.86891,14.4233,6.86891C13.9381,6.86891,13.5228,7.21734,13.4385,7.69548L13.2243,8.910029999999999L11.7552,8.910029999999999L11.9082,8.04255C11.9183,7.98522,11.9233,7.92711,11.9233,7.8689C11.9233,7.31663,11.4756,6.86891,10.92334,6.86891ZM11.034,13L11.4025,10.91003L12.8717,10.91003L12.5032,13L11.034,13Z" fill="#000000" fill-opacity="1"/></g></g></svg>