<svg xmlns="http://www.w3.org/2000/svg" xmlns:xlink="http://www.w3.org/1999/xlink" fill="none" version="1.1" width="24" height="24" viewBox="0 0 24 24"><defs><clipPath id="master_svg0_3598_30256"><rect x="0" y="0" width="24" height="24" rx="0"/></clipPath></defs><g clip-path="url(#master_svg0_3598_30256)"><g><path d="M6.11695,21.2961C6.64959,21.634,7.20702,21.9236,7.78925,22.165C9.13172,22.7217,10.5353,23,12,23C13.0797,23,14.1032,22.8643,15.0705,22.593C14.9164,22.4457,14.7827,22.274,14.6695,22.0778L14.2912,21.4226C14.0139,20.9423,13.9247,20.4293,14.0235,19.8836C14.0832,19.5539,14.2031,19.2595,14.383,19.0002C14.2031,18.7411,14.0832,18.4466,14.0235,18.1169C13.9247,17.5711,14.0139,17.0581,14.2912,16.5778L14.6692,15.9232C14.911,15.5039,15.2461,15.1961,15.6744,15L14.1814,15L13.9513,16.3047C13.867,16.7827,13.4518,17.1311,12.9665,17.1311C12.4142,17.1311,11.9665,16.6834,11.9665,16.1311C11.9665,16.0729,11.9716,16.0148,11.9817,15.9574L12.1505,15L10.68136,15L10.4513,16.3047C10.36703,16.7827,9.95178,17.1311,9.46649,17.1311C8.91421,17.1311,8.46649,16.6834,8.46649,16.1311C8.46649,16.0729,8.47157,16.0148,8.48168,15.9574L8.65051,15L7.30225,15C6.74997,15,6.30225,14.5523,6.30225,14C6.30225,13.4477,6.74997,13,7.30225,13L9.00316,13L9.37168,10.91003L8.30225,10.91003C7.74997,10.91003,7.30225,10.46231,7.30225,9.91003C7.30225,9.35775,7.74997,8.910029999999999,8.30225,8.910029999999999L9.72433,8.910029999999999L9.93849,7.69548C10.0228,7.21734,10.43805,6.86891,10.92334,6.86891C11.4756,6.86891,11.9233,7.31663,11.9233,7.8689C11.9233,7.92711,11.9183,7.98522,11.9082,8.04255L11.7552,8.910029999999999L13.2243,8.910029999999999L13.4385,7.69548C13.5228,7.21734,13.9381,6.86891,14.4233,6.86891C14.9756,6.86891,15.4233,7.31663,15.4233,7.8689C15.4233,7.92711,15.4183,7.98522,15.4082,8.04255L15.2552,8.910029999999999L16.6919,8.910029999999999C17.2442,8.910029999999999,17.6919,9.35775,17.6919,9.91003C17.6919,10.46231,17.2442,10.91003,16.6919,10.91003L14.9025,10.91003L14.534,13L15.6919,13C16.2442,13,16.6919,13.4477,16.6919,14C16.6919,14.3357,16.5265,14.6328,16.2727,14.8142C16.4528,14.7835,16.6329,14.7757,16.8128,14.7907C16.9473,14.5054,17.1424,14.2544,17.3979,14.0379C17.8205,13.6799,18.3085,13.5006,18.8621,13.5L19.6211,13.5C20.1759,13.4999,20.6649,13.6791,21.0883,14.0377C21.344,14.2543,21.5391,14.5053,21.6736,14.7906C21.988,14.7643,22.3029,14.8077,22.6182,14.9207C22.623,14.9224,22.6277,14.9242,22.6324,14.9259C22.8775,14.0013,23,13.0261,23,12C23,8.962430000000001,21.9261,6.36971,19.7782,4.22182Q16.5564,1,12,1C8.962430000000001,1,6.36971,2.07394,4.22182,4.22182C2.07394,6.36971,1,8.962430000000001,1,12C1,13.4647,1.27834,14.8683,1.83501,16.2107C2.0765000000000002,16.793100000000003,2.36611,17.3505,2.70385,17.883C2.68924,18.0038,2.6624600000000003,18.1622,2.62351,18.3583Q2.45933,19.1847,2.03536,20.7364C1.8898000000000001,21.2692,2.2036800000000003,21.8191,2.73644,21.9646C2.9089799999999997,22.0118,3.09101,22.0118,3.26356,21.9646C4.29812,21.682,5.09083,21.486,5.6417,21.3765C5.83777,21.3376,5.99619,21.3108,6.11695,21.2961ZM12.5032,13L12.8717,10.91003L11.4025,10.91003L11.034,13L12.5032,13Z" fill-rule="evenodd" fill="#000000" fill-opacity="1"/></g><g><path d="M18.86530158203125,15L19.62140158203125,15C19.99754158203125,14.99991,20.31859158203125,15.27184,20.380381582031248,15.64287L20.45381158203125,16.08267C20.462021582031248,16.13231,20.500581582031252,16.18974,20.575661582031252,16.22544C20.71609158203125,16.29302,20.851191582031248,16.3712,20.97976158203125,16.45928C21.048271582031248,16.506050000000002,21.11720158203125,16.51097,21.16397158203125,16.49333L21.582431582031248,16.33662C21.93457158203125,16.20458,22.33056158203125,16.346519999999998,22.51863158203125,16.6722L22.89689158203125,17.327379999999998C23.08479158203125,17.65354,23.00971158203125,18.06708,22.719251582031248,18.30585L22.37463158203125,18.58974C22.336071582031252,18.62174,22.305301582031248,18.6841,22.31186158203125,18.76615C22.32353158203125,18.9217,22.32353158203125,19.07789,22.31186158203125,19.23344C22.305301582031248,19.3159,22.336071582031252,19.37785,22.37504158203125,19.40985L22.71966158203125,19.69374C23.00994158203125,19.93274,23.08489158203125,20.34657,22.89689158203125,20.6722L22.518221582031252,21.327379999999998C22.33035158203125,21.65282,21.93485158203125,21.79489,21.58284158203125,21.66338L21.16437158203125,21.50667C21.11719158203125,21.48903,21.048271582031248,21.49354,20.97976158203125,21.540309999999998C20.85176158203125,21.6281,20.71678158203125,21.70646,20.575661582031252,21.77415C20.500581582031252,21.810670000000002,20.462021582031248,21.8681,20.45381158203125,21.91733L20.38078158203125,22.357129999999998C20.31884158203125,22.728,19.99760158203125,23,19.62181158203125,23L18.86530158203125,23C18.48909158203125,23,18.16827158203125,22.728,18.10632158203125,22.357129999999998L18.03330158203125,21.917740000000002C18.02509158203125,21.86769,17.98612158203125,21.81026,17.91145158203125,21.77415C17.77032158203125,21.70646,17.635351582031248,21.6281,17.50735158203125,21.540309999999998C17.43884158203125,21.493949999999998,17.36991158203125,21.48903,17.32273158203125,21.50667L16.90468158203125,21.66339C16.55254158203125,21.79542,16.15655158203125,21.653480000000002,15.96848158203125,21.3278L15.59022158203125,20.672620000000002C15.40221188203125,20.346980000000002,15.47717191203125,19.93316,15.76745158203125,19.69415L16.11248158203125,19.41026C16.15104158203125,19.37826,16.18140158203125,19.3159,16.17525158203125,19.23385C16.16356158203125,19.078310000000002,16.16356158203125,18.92211,16.17525158203125,18.76656C16.18181158203125,18.6841,16.15104158203125,18.62215,16.11207158203125,18.59015L15.76746158203125,18.30626C15.47718197203125,18.06726,15.40222198203125,17.65343,15.59023158203125,17.3278L15.96849158203125,16.67262C16.15643158203125,16.34678,16.55245158203125,16.20465,16.90469158203125,16.33662L17.32192158203125,16.49333C17.36951158203125,16.51098,17.43844158203125,16.50646,17.50654158203125,16.45928C17.635251582031252,16.37118,17.770481582031252,16.29301,17.91105158203125,16.22544C17.98572158203125,16.189329999999998,18.02469158203125,16.1319,18.03290158203125,16.08267L18.10592158203125,15.642869C18.16787158203125,15.271999,18.48869158203125,14.99999910593,18.86530158203125,15L18.86530158203125,15ZM19.24314158203125,20.53846C20.09281158203125,20.53846,20.78161158203125,19.84967,20.78161158203125,19C20.78161158203125,18.15033,20.09281158203125,17.46154,19.24314158203125,17.46154C18.39347158203125,17.46154,17.70468158203125,18.15033,17.70468158203125,19C17.70468158203125,19.84967,18.39347158203125,20.53846,19.24314158203125,20.53846Z" fill="#000000" fill-opacity="1"/></g></g></svg>