<svg xmlns="http://www.w3.org/2000/svg" xmlns:xlink="http://www.w3.org/1999/xlink" fill="none" version="1.1" width="24" height="24" viewBox="0 0 24 24"><defs><clipPath id="master_svg0_2007_29840"><rect x="0" y="0" width="24" height="24" rx="0"/></clipPath></defs><g clip-path="url(#master_svg0_2007_29840)"><g><path d="M3.37868,10.902479896240234C3.96447,10.316689896240234,4.67157,10.023799896240234,5.5,10.023799896240234L18.5,10.023799896240234C19.3284,10.023799896240234,20.0355,10.316689896240234,20.6213,10.902479896240234C21.2071,11.488269896240235,21.5,12.195369896240233,21.5,13.023799896240234L21.5,20.023799896240234C21.5,20.852199896240236,21.2071,21.559299896240233,20.6213,22.145099896240232C20.0355,22.730899896240235,19.3284,23.023799896240234,18.5,23.023799896240234L5.5,23.023799896240234C4.67157,23.023799896240234,3.96447,22.730899896240235,3.37868,22.145099896240232C2.79289,21.559299896240233,2.5,20.852199896240236,2.5,20.023799896240234L2.5,13.023799896240234C2.5,12.195369896240233,2.79289,11.488269896240235,3.37868,10.902479896240234ZM5.5,21.023799896240234L18.5,21.023799896240234C18.7761,21.023799896240234,19.0118,20.926199896240234,19.2071,20.730899896240235C19.4024,20.535599896240235,19.5,20.299899896240234,19.5,20.023799896240234L19.5,13.023799896240234C19.5,12.747659896240235,19.4024,12.511959896240235,19.2071,12.316689896240234C19.0118,12.121429896240235,18.7761,12.023799896240234,18.5,12.023799896240234L5.5,12.023799896240234C5.22386,12.023799896240234,4.988160000000001,12.121429896240235,4.79289,12.316689896240234C4.5976300000000005,12.511959896240235,4.5,12.747659896240235,4.5,13.023799896240234L4.5,20.023799896240234C4.5,20.299899896240234,4.5976300000000005,20.535599896240235,4.79289,20.730899896240235C4.988160000000001,20.926199896240234,5.22386,21.023799896240234,5.5,21.023799896240234Z" fill="#000000" fill-opacity="1"/></g><g><path d="M16.020396662139895,6.203990363807678C15.814106662139892,5.198790363807678,15.292946662139892,4.391520363807678,14.456916662139893,3.782180363807678C13.618076662139892,3.1707903638076784,12.679906662139892,2.9169403638076785,11.642396662139893,3.0206303638076784C10.605586662139892,3.124250363807678,9.738446662139893,3.5581003638076782,9.040966662139892,4.322190363807678C8.345956662139892,5.083580363807679,7.9989666621398925,5.976630363807678,7.999996662139893,7.001340363807678L7.999996662139893,11.000020363807678C7.999996662139893,11.552320363807679,7.552286662139893,12.000020363807678,6.999996662139893,12.000020363807678C6.734786662139893,12.000020363807678,6.480426662139893,11.894620363807679,6.292896662139893,11.707120363807679C6.105356662139893,11.519620363807679,6.000006556509892,11.265220363807678,6.000006556509892,11.000020363807678L6.000006556509892,7.003360363807678C5.998446552139892,5.460830363807678,6.519726662139893,4.1176503638076785,7.563846662139893,2.973820363807678C8.605506662139893,1.8326903638076781,9.898726662139893,1.1849303638076782,11.443516662139892,1.0305403638076782C12.987566662139892,0.8762303638076783,14.384706662139893,1.2546803638076782,15.634936662139893,2.165920363807678C16.88759666213989,3.078950363807678,17.669096662139893,4.290530363807678,17.979296662139895,5.800650363807678L17.97959666213989,5.801740363807678C17.993196662139894,5.868060363807678,17.999996662139893,5.935420363807678,17.999996662139893,6.002950363807678C17.999996662139893,6.555230363807678,17.552296662139895,7.002950363807678,16.999996662139893,7.002950363807678C16.52519666213989,7.002950363807678,16.115896662139892,6.669090363807678,16.020396662139895,6.203990363807678Z" fill="#000000" fill-opacity="1"/></g><g><path d="M11,15C11,14.44772,11.44772,14,12,14C12.55228,14,13,14.44772,13,15L13,18C13,18.55228,12.55228,19,12,19C11.44772,19,11,18.55228,11,18L11,15Z" fill="#000000" fill-opacity="1"/></g></g></svg>