<svg xmlns="http://www.w3.org/2000/svg" xmlns:xlink="http://www.w3.org/1999/xlink" fill="none" version="1.1" width="24" height="24" viewBox="0 0 24 24"><defs><clipPath id="master_svg0_1078_19668"><rect x="0" y="0" width="24" height="24" rx="0"/></clipPath></defs><g clip-path="url(#master_svg0_1078_19668)"><g><path d="M15.358799927520751,2.6412434768371584Q13.967519927520751,1.2500004768371582,11.99999992752075,1.2500004768371582Q10.032489927520752,1.2500004768371582,8.641239927520752,2.6412424768371583Q7.2499999275207525,4.032480476837158,7.2499999275207525,6.000000476837158Q7.2499999275207525,7.967510476837158,8.641239927520752,9.358760476837158Q10.032489927520752,10.750000476837158,11.99999992752075,10.750000476837158Q13.967509927520751,10.750000476837158,15.358799927520751,9.358760476837158Q16.749999927520754,7.967510476837158,16.749999927520754,6.000000476837158Q16.749999927520754,4.032490476837158,15.358799927520751,2.6412434768371584ZM10.05545992752075,4.055460476837158Q10.860909927520751,3.250000476837158,11.99999992752075,3.250000476837158Q13.139089927520752,3.250000476837158,13.944539927520752,4.055460476837158Q14.749999927520753,4.860910476837159,14.749999927520753,6.000000476837158Q14.749999927520753,7.139090476837159,13.944539927520752,7.944540476837158Q13.139089927520752,8.750000476837158,11.99999992752075,8.750000476837158Q10.860909927520751,8.750000476837158,10.05545992752075,7.944540476837158Q9.24999992752075,7.139090476837159,9.24999992752075,6.000000476837158Q9.24999992752075,4.860910476837159,10.05545992752075,4.055460476837158ZM11.998639927520752,22.750000476837158L11.99999992752075,22.750000476837158Q16.14649992752075,22.75540047683716,19.91579992752075,21.02700047683716Q19.98169992752075,20.99680047683716,20.04249992752075,20.957400476837158Q20.10329992752075,20.918000476837157,20.157799927520752,20.87030047683716Q20.212299927520753,20.82260047683716,20.259399927520754,20.767500476837156Q20.30639992752075,20.712400476837157,20.34509992752075,20.651100476837158Q20.38369992752075,20.58980047683716,20.413099927520754,20.523600476837156Q20.442399927520754,20.457400476837158,20.46199992752075,20.387600476837157Q20.48149992752075,20.317800476837157,20.490799927520754,20.246000476837157Q20.499999927520754,20.174100476837157,20.498899927520753,20.10170047683716Q20.441999927520754,16.62190047683716,17.961099927520753,14.181200476837159Q15.480199927520752,11.740460476837159,11.99999992752075,11.740460476837159Q8.519769927520752,11.740460476837159,6.038859927520752,14.181200476837159Q3.557958927520752,16.62190047683716,3.501132927520752,20.10170047683716Q3.4999499275207517,20.174100476837157,3.509214927520752,20.245900476837157Q3.5184789275207518,20.317700476837157,3.537996927520752,20.387500476837157Q3.557514927520752,20.45720047683716,3.586878927520752,20.523400476837157Q3.616242927520752,20.58960047683716,3.6548399275207517,20.65090047683716Q3.693437927520752,20.712200476837157,3.740461927520752,20.767300476837157Q3.787486927520752,20.822400476837156,3.841957927520752,20.87010047683716Q3.896428927520752,20.917800476837158,3.957209927520752,20.95720047683716Q4.017989927520752,20.99660047683716,4.083810927520752,21.02680047683716Q7.8370399275207525,22.74970047683716,11.998639927520752,22.750000476837158ZM18.45919992752075,19.480300476837158Q15.369399927520751,20.754600476837158,12.001359927520753,20.750000476837158L11.99999992752075,20.750000476837158Q8.618529927520752,20.750000476837158,5.540809927520752,19.480400476837158Q5.7818599275207525,17.239600476837158,7.441479927520752,15.606900476837158Q9.338649927520752,13.740500476837159,11.99999992752075,13.740500476837159Q14.661399927520751,13.740500476837159,16.55849992752075,15.606900476837158Q18.218099927520754,17.239600476837158,18.45919992752075,19.480300476837158Z" fill-rule="evenodd" fill="#000000" fill-opacity="1"/></g></g></svg>