<svg xmlns="http://www.w3.org/2000/svg" xmlns:xlink="http://www.w3.org/1999/xlink" fill="none" version="1.1" width="24" height="24" viewBox="0 0 24 24"><defs><clipPath id="master_svg0_3282_40793"><rect x="0" y="0" width="24" height="24" rx="0"/></clipPath></defs><g clip-path="url(#master_svg0_3282_40793)"><g><path d="M3.81752971875,2.3178979296875Q2.49951171875,3.6359179296875,2.49951171875,5.4998779296875Q2.49951171875,7.3638379296875,3.81752971875,8.6818579296875Q5.1355517187499995,9.9998779296875,6.99951171875,9.9998779296875Q8.863471718749999,9.9998779296875,10.18149171875,8.6818579296875Q11.49951171875,7.3638379296875,11.49951171875,5.4998779296875Q11.49951171875,3.6359179296875,10.18149171875,2.3178989296875Q8.863471718749999,0.9998779296875,6.99951171875,0.9998779296875Q5.1355517187499995,0.9998779296875,3.81752971875,2.3178979296875ZM5.2317417187499995,7.2676479296875Q4.49951171875,6.5354179296875,4.49951171875,5.4998779296875Q4.49951171875,4.4643479296875,5.2317417187499995,3.7321079296875Q5.96397171875,2.9998779296875,6.99951171875,2.9998779296875Q8.03504171875,2.9998779296875,8.767281718749999,3.7321079296875Q9.49951171875,4.4643479296875,9.49951171875,5.4998779296875Q9.49951171875,6.5354179296875,8.767281718749999,7.2676479296875Q8.035051718750001,7.9998779296875,6.99951171875,7.9998779296875Q5.96397171875,7.9998779296875,5.2317417187499995,7.2676479296875Z" fill-rule="evenodd" fill="#000000" fill-opacity="1"/></g><g><path d="M13.818018,2.3178979296875Q12.5,3.6359179296875,12.5,5.4998779296875Q12.5,7.3638379296875,13.818018,8.6818579296875Q15.13604,9.9998779296875,17,9.9998779296875Q18.86396,9.9998779296875,20.18198,8.6818579296875Q21.5,7.3638379296875,21.5,5.4998779296875Q21.5,3.6359179296875,20.18198,2.3178989296875Q18.86396,0.9998779296875,17,0.9998779296875Q15.13604,0.9998779296875,13.818018,2.3178979296875ZM15.23223,7.2676479296875Q14.5,6.5354179296875,14.5,5.4998779296875Q14.5,4.4643479296875,15.23223,3.7321079296875Q15.964459999999999,2.9998779296875,17,2.9998779296875Q18.03553,2.9998779296875,18.76777,3.7321079296875Q19.5,4.4643479296875,19.5,5.4998779296875Q19.5,6.5354179296875,18.76777,7.2676479296875Q18.03554,7.9998779296875,17,7.9998779296875Q15.964459999999999,7.9998779296875,15.23223,7.2676479296875Z" fill-rule="evenodd" fill="#000000" fill-opacity="1"/></g><g><path d="M11.14385171875,15.0307879296875L11.14444171875,15.031757929687501Q11.21128171875,15.1420079296875,11.30390171875,15.231697929687499Q11.39652171875,15.3213979296875,11.50886171875,15.3846579296875Q11.62120171875,15.4479279296875,11.74592171875,15.4806279296875Q11.87063171875,15.5133279296875,11.99951171875,15.5133279296875Q12.09801171875,15.5133279296875,12.19461171875,15.4941079296875Q12.29121171875,15.4748979296875,12.38221171875,15.4372079296875Q12.47321171875,15.3995179296875,12.55511171875,15.3447979296875Q12.63701171875,15.2900779296875,12.70671171875,15.220437929687499Q12.77631171875,15.1507879296875,12.83101171875,15.0688979296875Q12.88571171875,14.9870079296875,12.92341171875,14.8960079296875Q12.96111171875,14.8050179296875,12.98031171875,14.7084179296875Q12.99951171875,14.6118179296875,12.99951171875,14.5133279296875Q12.99951171875,14.2338679296875,12.85471171875,13.9948979296875Q11.34202171875,11.4998779296875,8.73636171875,11.4998779296875L6.21006171875,11.4998779296875Q4.00075171875,11.4998779296875,2.4678377187500002,13.3202169296875Q0.99951171875,15.0638579296875,0.99951171875,17.4998779296875L0.99951171875,21.9998779296875Q0.99951171875,22.098367929687498,1.01872671875,22.1949679296875Q1.03794171875,22.2915679296875,1.07563271875,22.3825579296875Q1.11332371875,22.4735579296875,1.16804171875,22.5554779296875Q1.22276071875,22.6373779296875,1.2924047187499998,22.7069779296875Q1.36204871875,22.776577929687498,1.44394171875,22.8313779296875Q1.52583371875,22.886077929687502,1.61682871875,22.9237779296875Q1.7078227187500001,22.9614779296875,1.80442171875,22.980677929687502Q1.90102031875,22.9998779296875,1.99951171875,22.9998779296875Q2.09800311875,22.9998779296875,2.19460171875,22.980677929687502Q2.29120071875,22.9614779296875,2.38219471875,22.9237779296875Q2.47318971875,22.886077929687502,2.55508171875,22.8313779296875Q2.63697471875,22.776577929687498,2.70661871875,22.7069779296875Q2.77626271875,22.6373779296875,2.83098171875,22.5554779296875Q2.8856997187499998,22.4735579296875,2.92339071875,22.3825579296875Q2.96108171875,22.2915679296875,2.98029671875,22.1949679296875Q2.99951171875,22.098367929687498,2.99951171875,21.9998779296875L2.99951171875,17.4998779296875Q2.99951171875,15.7937879296875,3.99766171875,14.6084879296875Q4.93122171875,13.4998779296875,6.21006171875,13.4998779296875L8.73636171875,13.4998779296875Q10.21424171875,13.4998779296875,11.14261171875,15.0287379296875Q11.14323171875,15.0297579296875,11.14385171875,15.0307879296875Z" fill-rule="evenodd" fill="#000000" fill-opacity="1"/></g><g><path d="M11.068679,14.8775179296875Q11.317314,15.5133279296875,12.00000953674,15.5133279296875Q12.131949,15.5133279296875,12.259374,15.4791079296875Q12.386798,15.4448879296875,12.500987,15.3787879296875Q12.615175,15.312687929687499,12.708312,15.2192379296875Q12.801449999999999,15.125787929687501,12.867161,15.0113679296875Q12.875495,14.9980879296875,12.888034,14.9791679296875Q12.942268,14.8973179296875,13.01329,14.8038879296875Q13.24556,14.4983379296875,13.52335,14.2434779296875Q14.333870000000001,13.4998779296875,15.18301,13.4998779296875L17.73941,13.4998779296875Q19.0425,13.4998779296875,19.99096,14.6129379296875Q21.00001,15.7970979296875,21.00001,17.4998779296875L21.00001,21.9998779296875Q21.00001,22.098367929687498,21.01922,22.1949679296875Q21.03844,22.2915679296875,21.07613,22.3825579296875Q21.11382,22.4735579296875,21.16854,22.5554779296875Q21.22326,22.6373779296875,21.2929,22.7069779296875Q21.36255,22.776577929687498,21.44444,22.8313779296875Q21.52633,22.886077929687502,21.61732,22.9237779296875Q21.70832,22.9614779296875,21.80492,22.980677929687502Q21.901519999999998,22.9998779296875,22,22.9998779296875Q22.0985,22.9998779296875,22.1951,22.980677929687502Q22.2917,22.9614779296875,22.3827,22.9237779296875Q22.4737,22.886077929687502,22.5556,22.8313779296875Q22.6375,22.776577929687498,22.7071,22.7069779296875Q22.7768,22.6373779296875,22.8315,22.5554779296875Q22.886200000000002,22.4735579296875,22.9239,22.3825579296875Q22.9616,22.2915679296875,22.980800000000002,22.1949679296875Q23,22.098367929687498,23,21.9998779296875L23,21.998497929687503L23,17.4998779296875Q23,15.0605479296875,21.51325,13.3157689296875Q19.96589,11.4998779296875,17.73941,11.4998779296875L15.18301,11.4998779296875Q13.55542,11.4998779296875,12.17129,12.7697309296875Q11.761645,13.1455539296875,11.421087,13.593557929687499Q11.310845,13.7385879296875,11.220814,13.8744579296875Q11.188261,13.9235879296875,11.162456,13.9653879296875Q11.149932,13.9856679296875,11.140012,14.0026279296875Q11.130921,14.0181679296875,11.122988,14.032697929687501Q11.11009,14.0563279296875,11.09862,14.0802279296875Q11.075317,14.1287679296875,11.057376,14.1794379296875Q11.017875,14.2909779296875,11.005493,14.408637929687501Q10.98001,14.6507779296875,11.068679,14.8775179296875ZM12.996345999999999,14.5988279296875Q13.01584,14.3742379296875,12.936615,14.1629379296875Q13.00001,14.3323979296875,13.00001,14.5133279296875Q13.00001,14.556157929687501,12.996345999999999,14.5988279296875ZM12.929201,14.1437279296875Q12.679789,13.5133279296875,12.00000953674,13.5133279296875Q12.0746614,13.5133279296875,12.148486,13.5244079296875Q12.22231,13.5354979296875,12.293671,13.5574179296875Q12.365031,13.579337929687501,12.432346,13.6116179296875Q12.49966,13.6438879296875,12.561437,13.6857979296875Q12.623213,13.7277079296875,12.678082,13.7783279296875Q12.732951,13.8289479296875,12.779695,13.8871579296875Q12.82644,13.9453579296875,12.864025,14.0098579296875Q12.90161,14.0743579296875,12.929201,14.1437279296875Z" fill-rule="evenodd" fill="#000000" fill-opacity="1"/></g><g><path d="M5.50048828125,18.9998779296875L19.00048828125,18.9998779296875Q19.09898828125,18.9998779296875,19.19558828125,19.0190929296875Q19.29218828125,19.038307929687498,19.38318828125,19.0759989296875Q19.47418828125,19.1136899296875,19.55608828125,19.1684079296875Q19.63798828125,19.2231269296875,19.70758828125,19.2927709296875Q19.777188281249998,19.3624149296875,19.83198828125,19.4443079296875Q19.886688281250002,19.5261999296875,19.92438828125,19.6171949296875Q19.96208828125,19.7081889296875,19.981288281250002,19.8047879296875Q20.00048828125,19.9013865296875,20.00048828125,19.9998779296875Q20.00048828125,20.0983693296875,19.981288281250002,20.1949679296875Q19.96208828125,20.2915669296875,19.92438828125,20.3825609296875Q19.886688281250002,20.4735559296875,19.83198828125,20.5554479296875Q19.777188281249998,20.6373409296875,19.70758828125,20.7069849296875Q19.63798828125,20.7766289296875,19.55608828125,20.8313479296875Q19.47418828125,20.8860659296875,19.38318828125,20.9237569296875Q19.29218828125,20.961447929687502,19.19558828125,20.9806629296875Q19.09898828125,20.9998779296875,19.00048828125,20.9998779296875L5.50048828125,20.9998779296875Q5.40199688125,20.9998779296875,5.30539828125,20.9806629296875Q5.20879928125,20.961447929687502,5.11780528125,20.9237569296875Q5.02681028125,20.8860659296875,4.94491828125,20.8313479296875Q4.86302528125,20.7766289296875,4.79338128125,20.7069849296875Q4.72373728125,20.6373409296875,4.66901828125,20.5554479296875Q4.61430028125,20.4735559296875,4.57660928125,20.3825609296875Q4.53891828125,20.2915669296875,4.51970328125,20.1949679296875Q4.50048828125,20.0983693296875,4.50048828125,19.9998779296875Q4.50048828125,19.9013865296875,4.51970328125,19.8047879296875Q4.53891828125,19.7081889296875,4.57660928125,19.6171949296875Q4.61430028125,19.5261999296875,4.66901828125,19.4443079296875Q4.72373728125,19.3624149296875,4.79338128125,19.2927709296875Q4.86302528125,19.2231269296875,4.94491828125,19.1684079296875Q5.02681028125,19.1136899296875,5.11780528125,19.0759989296875Q5.20879928125,19.038307929687498,5.30539828125,19.0190929296875Q5.40199688125,18.9998779296875,5.50048828125,18.9998779296875Z" fill-rule="evenodd" fill="#000000" fill-opacity="1"/></g><g><path d="M17.8568789375,17.4244844609375L18.4765309375,18.0479302609375L19.7160709375,19.2950824609375Q19.7846409375,19.3640724609375,19.8386309375,19.4449824609375Q19.8926209375,19.5258824609375,19.9300009375,19.6156824609375Q19.9673909375,19.7054824609375,19.9867609375,19.8007924609375Q20.0061409375,19.8961124609375,20.0067909375,19.9933824609375Q20.0074309375,20.0906424609375,19.9893209375,20.1862124609375Q19.9712109375,20.2817724609375,19.9350309375,20.3720624609375Q19.8988409375,20.4623424609375,19.8459309375,20.5439624609375Q19.7930309375,20.6255824609375,19.7253809375,20.695482460937498L18.4858309375,21.9762224609375L17.8660299375,22.6166224609375Q17.7247389375,22.7626124609375,17.5376819375,22.8418924609375Q17.3506249375,22.9211724609375,17.1474609375,22.9211724609375Q17.0489695375,22.9211724609375,16.9523709375,22.9019524609375Q16.8557719375,22.8827424609375,16.7647779375,22.8450524609375Q16.6737829375,22.8073624609375,16.5918909375,22.7526424609375Q16.5099979375,22.697922460937498,16.4403539375,22.6282824609375Q16.3707099375,22.5586324609375,16.3159909375,22.4767424609375Q16.2612729375,22.3948524609375,16.2235819375,22.3038524609375Q16.185890937499998,22.2128624609375,16.1666759375,22.1162624609375Q16.1474609375,22.0196624609375,16.1474609375,21.9211724609375Q16.1474609375,21.7265024609375,16.2204849375,21.5460524609375Q16.2935089375,21.3656024609375,16.4288919375,21.2257124609375L16.4291989375,21.2254024609375L17.0486922375,20.5853124609375L17.6061509375,20.0093324609375L17.0579967375,19.4578124609375L16.4383509375,18.8343704609375L16.4381969375,18.8342154609375Q16.2985349375,18.6936974609375,16.2229979375,18.5105434609375Q16.1474609375,18.3273904609375,16.1474609375,18.1292724609375Q16.1474609375,18.0307810609375,16.1666759375,17.9341824609375Q16.185890937499998,17.8375834609375,16.2235819375,17.7465894609375Q16.2612729375,17.6555944609375,16.3159909375,17.5737024609375Q16.3707099375,17.4918094609375,16.4403539375,17.4221654609375Q16.5099979375,17.3525214609375,16.5918909375,17.2978024609375Q16.6737829375,17.2430844609375,16.7647779375,17.2053934609375Q16.8557719375,17.167702460937498,16.9523709375,17.1484874609375Q17.0489695375,17.1292724609375,17.1474609375,17.1292724609375Q17.3471679375,17.1292724609375,17.5315559375,17.2059784609375Q17.7159429375,17.2826854609375,17.8567249375,17.4243294609375L17.8568789375,17.4244844609375Z" fill-rule="evenodd" fill="#000000" fill-opacity="1"/></g><g><path d="M7.869232343749999,18.8247708671875Q8.01060234375,18.6840228671875,8.08715234375,18.4998018671875Q8.16370234375,18.3155808671875,8.16370234375,18.1160888671875Q8.16370234375,18.0175974671875,8.14449234375,17.9209988671875Q8.12527234375,17.8243998671875,8.08758234375,17.7334058671875Q8.049892343749999,17.6424108671875,7.99517234375,17.5605188671875Q7.94045234375,17.4786258671875,7.87081234375,17.4089818671875Q7.801162343750001,17.3393378671875,7.71927234375,17.2846188671875Q7.63738234375,17.2299008671875,7.54638234375,17.1922098671875Q7.45539234375,17.154518867187498,7.35879234375,17.1353038671875Q7.26219234375,17.1160888671875,7.16370234375,17.1160888671875Q6.9653723437499995,17.1160888671875,6.78205234375,17.1917828671875Q6.59873234375,17.2674778671875,6.45817234375,17.4074068671875L5.82858734375,18.0341929671875L4.56938734375,19.2877488671875Q4.49975334375,19.3570688671875,4.4449443437500005,19.4386188671875Q4.39013434375,19.5201588671875,4.35224434375,19.6108188671875Q4.31435534375,19.7014788671875,4.29483534375,19.7977688671875Q4.27531534375,19.8940688671875,4.27491034375,19.9923288671875Q4.27450234375,20.0905788671875,4.29323334375,20.1870388671875Q4.31196134375,20.2834888671875,4.34910334375,20.3744588671875Q4.38624534375,20.465418867187502,4.44038234375,20.5474188671875Q4.4945193437499995,20.6294088671875,4.56358034375,20.6993088671875L5.82276634375,21.9736388671875L6.45236234375,22.6108388671875Q6.59327234375,22.753438867187498,6.77825234375,22.8307188671875Q6.9632323437500006,22.9079888671875,7.16370234375,22.9079888671875Q7.26219234375,22.9079888671875,7.35879234375,22.8887688671875Q7.45539234375,22.8695588671875,7.54638234375,22.8318688671875Q7.63738234375,22.7941788671875,7.71927234375,22.7394588671875Q7.801162343750001,22.684738867187498,7.87081234375,22.6150988671875Q7.94045234375,22.5454488671875,7.99517234375,22.4635588671875Q8.049892343749999,22.3816688671875,8.08758234375,22.2906688671875Q8.12527234375,22.1996788671875,8.14448234375,22.1030788671875Q8.16370234375,22.0064788671875,8.16370234375,21.9079888671875Q8.16370234375,21.7106288671875,8.08872234375,21.5280788671875Q8.01375234375,21.3455188671875,7.87504234375,21.2051388671875L7.87488234375,21.2049788671875L7.24544234375,20.5679388671875L6.68647234375,20.0022488671875L7.23962234375,19.4515788671875L7.869232343749999,18.8247708671875L7.869232343749999,18.8247708671875Z" fill-rule="evenodd" fill="#000000" fill-opacity="1"/></g></g></svg>