<svg xmlns="http://www.w3.org/2000/svg" xmlns:xlink="http://www.w3.org/1999/xlink" fill="none" version="1.1" width="24" height="24" viewBox="0 0 24 24"><defs><clipPath id="master_svg0_3162_30350"><rect x="0" y="0" width="24" height="24" rx="0"/></clipPath></defs><g clip-path="url(#master_svg0_3162_30350)"><g><path d="M12.468589523162843,3.281408238418579Q11.187189523162841,2.000000238418579,9.374999523162842,2.000000238418579Q7.562819523162842,2.000000238418579,6.281409523162842,3.281408238418579Q4.999999523162842,4.562820238418579,4.999999523162842,6.375000238418579Q4.999999523162842,8.187180238418579,6.281409523162842,9.468590238418578Q7.562819523162842,10.750000238418579,9.374999523162842,10.750000238418579Q11.187189523162841,10.750000238418579,12.468589523162843,9.468590238418578Q13.749999523162842,8.187180238418579,13.749999523162842,6.375000238418579Q13.749999523162842,4.562810238418579,12.468589523162843,3.281408238418579ZM6.999999523162842,6.375000238418579Q6.999999523162842,4.000000238418579,9.374999523162842,4.000000238418579Q10.562499523162842,4.000000238418579,11.156249523162842,4.593750238418579Q11.749999523162842,5.187500238418579,11.749999523162842,6.375000238418579Q11.749999523162842,8.750000238418579,9.374999523162842,8.750000238418579Q8.391239523162842,8.750000238418579,7.695619523162842,8.05438023841858Q6.999999523162842,7.358760238418579,6.999999523162842,6.375000238418579ZM16.999999523162842,7.500000238418579Q16.999999523162842,7.401510238418579,17.01919952316284,7.304910238418579Q17.03839952316284,7.208310238418579,17.076099523162842,7.117320238418579Q17.11379952316284,7.026320238418579,17.168499523162843,6.94443023841858Q17.22319952316284,6.862540238418579,17.29289952316284,6.792890238418579Q17.362499523162843,6.723250238418579,17.444399523162843,6.66853023841858Q17.52629952316284,6.613810238418579,17.617299523162842,6.576120238418579Q17.708299523162843,6.538430238418579,17.80489952316284,6.519210238418579Q17.90149952316284,6.500000238418579,17.999999523162842,6.500000238418579Q18.098499523162843,6.500000238418579,18.195099523162842,6.519210238418579Q18.29169952316284,6.538430238418579,18.38269952316284,6.576120238418579Q18.473699523162843,6.613810238418579,18.55559952316284,6.66853023841858Q18.63749952316284,6.723250238418579,18.707099523162842,6.792890238418579Q18.77669952316284,6.862540238418579,18.83149952316284,6.94443023841858Q18.886199523162844,7.026320238418579,18.92389952316284,7.117320238418579Q18.961599523162842,7.208310238418579,18.980799523162844,7.304910238418579Q18.999999523162842,7.401510238418579,18.999999523162842,7.500000238418579L18.999999523162842,9.500000238418579L20.999999523162842,9.500000238418579Q21.098499523162843,9.500000238418579,21.195099523162842,9.51921023841858Q21.29169952316284,9.538430238418579,21.38269952316284,9.576120238418579Q21.473699523162843,9.61381023841858,21.55559952316284,9.66853023841858Q21.63749952316284,9.72325023841858,21.707099523162842,9.792890238418579Q21.776699523162844,9.862540238418578,21.83149952316284,9.94443023841858Q21.88619952316284,10.02632023841858,21.92389952316284,10.117320238418579Q21.961599523162842,10.20831023841858,21.98079952316284,10.304910238418579Q21.999999523162842,10.40151023841858,21.999999523162842,10.500000238418579Q21.999999523162842,10.598490238418579,21.98079952316284,10.69509023841858Q21.961599523162842,10.791690238418578,21.92389952316284,10.88268023841858Q21.88619952316284,10.973680238418579,21.83149952316284,11.055570238418579Q21.776699523162844,11.13746023841858,21.707099523162842,11.20711023841858Q21.63749952316284,11.276750238418579,21.55559952316284,11.331470238418579Q21.473699523162843,11.386190238418578,21.38269952316284,11.42388023841858Q21.29169952316284,11.46157023841858,21.195099523162842,11.480780238418578Q21.098499523162843,11.500000238418579,20.999999523162842,11.500000238418579L18.999999523162842,11.500000238418579L18.999999523162842,13.500000238418579Q18.999999523162842,13.598500238418579,18.980799523162844,13.69510023841858Q18.961599523162842,13.79170023841858,18.92389952316284,13.882700238418579Q18.886199523162844,13.973700238418578,18.83149952316284,14.05560023841858Q18.77669952316284,14.137500238418578,18.707099523162842,14.20710023841858Q18.63749952316284,14.276800238418579,18.55559952316284,14.33150023841858Q18.473699523162843,14.38620023841858,18.38269952316284,14.423900238418579Q18.29169952316284,14.46160023841858,18.195099523162842,14.48080023841858Q18.098499523162843,14.500000238418579,17.999999523162842,14.500000238418579Q17.90149952316284,14.500000238418579,17.80489952316284,14.48080023841858Q17.708299523162843,14.46160023841858,17.617299523162842,14.423900238418579Q17.52629952316284,14.38620023841858,17.444399523162843,14.33150023841858Q17.362499523162843,14.276800238418579,17.29289952316284,14.20710023841858Q17.22319952316284,14.137500238418578,17.168499523162843,14.05560023841858Q17.11379952316284,13.973700238418578,17.076099523162842,13.882700238418579Q17.03839952316284,13.79170023841858,17.01919952316284,13.69510023841858Q16.999999523162842,13.598500238418579,16.999999523162842,13.500000238418579L16.999999523162842,11.500000238418579L14.999999523162842,11.500000238418579Q14.901499523162842,11.500000238418579,14.804899523162842,11.480780238418578Q14.708299523162841,11.46157023841858,14.617299523162842,11.42388023841858Q14.526299523162843,11.386190238418578,14.444399523162842,11.331470238418579Q14.362499523162843,11.276750238418579,14.292899523162841,11.20711023841858Q14.223199523162842,11.13746023841858,14.168499523162842,11.055570238418579Q14.113799523162841,10.973680238418579,14.076099523162842,10.88268023841858Q14.038399523162841,10.791690238418578,14.019199523162841,10.69509023841858Q13.999999523162842,10.598490238418579,13.999999523162842,10.500000238418579Q13.999999523162842,10.40151023841858,14.019199523162841,10.304910238418579Q14.038399523162841,10.20831023841858,14.076099523162842,10.117320238418579Q14.113799523162841,10.02632023841858,14.168499523162842,9.94443023841858Q14.223199523162842,9.862540238418578,14.292899523162841,9.792890238418579Q14.362499523162843,9.72325023841858,14.444399523162842,9.66853023841858Q14.526299523162843,9.61381023841858,14.617299523162842,9.576120238418579Q14.708299523162841,9.538430238418579,14.804899523162842,9.51921023841858Q14.901499523162842,9.500000238418579,14.999999523162842,9.500000238418579L16.999999523162842,9.500000238418579L16.999999523162842,7.500000238418579ZM4.017479523162842,18.66310023841858Q4.165869523162842,16.73270023841858,5.574299523162842,15.324300238418578Q7.148599523162842,13.750000238418579,9.374999523162842,13.750000238418579Q11.601399523162842,13.750000238418579,13.175699523162843,15.324300238418578Q14.584199523162841,16.732800238418577,14.732499523162842,18.66330023841858Q12.240569523162842,20.00480023841858,9.375679523162841,20.00000023841858Q6.503309523162842,20.00000023841858,4.017479523162842,18.66310023841858ZM1.9999995231628418,19.23300023841858L1.9999995231628418,19.23450023841858L1.9999995231628418,19.23500023841858L2.000000523162842,19.235500238418577Q2.0000945231628418,19.43440023841858,2.076302523162842,19.618100238418577Q2.152510523162842,19.80190023841858,2.2932295231628417,19.94240023841858Q2.3950905231628417,20.04420023841858,2.521522523162842,20.11310023841858Q5.677409523162842,22.00000023841858,9.37230952316284,22.00000023841858Q13.085299523162842,22.00630023841858,16.265899523162844,20.090600238418578Q16.37669952316284,20.02390023841858,16.46679952316284,19.93120023841858Q16.556999523162844,19.83850023841858,16.62059952316284,19.726000238418578Q16.684199523162842,19.613400238418578,16.717099523162844,19.488300238418578Q16.749999523162842,19.363300238418578,16.749999523162842,19.23400023841858L16.749999523162842,19.12500023841858Q16.749999523162842,16.07020023841858,14.589899523162842,13.910100238418579Q12.429819523162841,11.750000238418579,9.374999523162842,11.750000238418579Q6.320179523162842,11.750000238418579,4.160089523162842,13.910100238418579Q1.9999995231628418,16.07020023841858,1.9999995231628418,19.12500023841858L1.9999995231628418,19.23300023841858Z" fill-rule="evenodd" fill="#000000" fill-opacity="1"/></g></g></svg>