<svg xmlns="http://www.w3.org/2000/svg" xmlns:xlink="http://www.w3.org/1999/xlink" fill="none" version="1.1" width="24" height="24" viewBox="0 0 24 24"><defs><clipPath id="master_svg0_3310_30263"><rect x="0" y="0" width="24" height="24" rx="0"/></clipPath></defs><g clip-path="url(#master_svg0_3310_30263)"><g><path d="M13.655999999999999,9L14.015,9L9.968,14.463000000000001L9.16,9L10.344999999999999,9C10.70691,8.99945,11,8.70591,11,8.344L11,7.656C11,7.293701,10.706299999999999,6.999999523163,10.344000000000001,7L6.41,7C6.047048,6.99999332428,5.75219965,7.293056,5.75,7.656L5.75,8.344C5.75219297,8.70694,6.047042,9,6.41,9L7.1370000000000005,9L8.344,17.147C8.40342,17.5472,8.69818,17.8722,9.09075,17.9703C9.483319999999999,18.0684,9.89631,17.920299999999997,10.137,17.595L16.503999999999998,9L17.84,9C18.203,9.00001,18.497799999999998,8.70694,18.5,8.344L18.5,7.656C18.497799999999998,7.293062,18.203,7,17.84,7L13.655999999999999,7C13.293700000000001,7,13,7.293701,13,7.656L13,8.344C13,8.706,13.294,9,13.655999999999999,9ZM15.15,16C14.86005,16,14.625,16.23505,14.625,16.525L14.625,17.475C14.625,17.765,14.86,18,15.15,18L16.1,18C16.39,18,16.625,17.765,16.625,17.475L16.625,16.525C16.625,16.23505,16.3899,16,16.1,16L15.15,16Z" fill="#000000" fill-opacity="1"/></g><g><path d="M4,2C2.895431,2,2,2.895431,2,4L2,20C2,21.1046,2.895431,22,4,22L20,22C21.1046,22,22,21.1046,22,20L22,4C22,2.895431,21.1046,2,20,2L4,2ZM20,4L20,20L4,20L4,4L20,4Z" fill="#000000" fill-opacity="1"/></g></g></svg>