<svg xmlns="http://www.w3.org/2000/svg" xmlns:xlink="http://www.w3.org/1999/xlink" fill="none" version="1.1" width="24" height="24" viewBox="0 0 24 24"><defs><clipPath id="master_svg0_3282_41120"><rect x="0" y="0" width="24" height="24" rx="0"/></clipPath></defs><g clip-path="url(#master_svg0_3282_41120)"><g><g><path d="M12.6,20Q12.6,19.865000000000002,12.56421,19.7348L8.16421,3.734843Q8.14257,3.656181,8.10848,3.582066Q8.07438,3.50795,8.02872,3.440341Q7.98306,3.372732,7.9270499999999995,3.313418Q7.87104,3.2541029999999997,7.806150000000001,3.204652Q7.74127,3.155201,7.66922,3.116921Q7.59718,3.07864,7.519880000000001,3.052543Q7.44259,3.026447,7.36209,3.013223Q7.28158,3,7.2,3L4,3Q3.9015086,3,3.80491,3.019215Q3.708311,3.03843,3.617317,3.076121Q3.526322,3.1138120000000002,3.44443,3.16853Q3.362537,3.223249,3.292893,3.292893Q3.223249,3.362537,3.16853,3.44443Q3.1138120000000002,3.526322,3.076121,3.617317Q3.03843,3.708311,3.019215,3.80491Q3,3.9015086,3,4Q3,4.134994,3.0357950000000002,4.265157L7.43579,20.2652Q7.4574300000000004,20.3438,7.4915199999999995,20.4179Q7.52562,20.4921,7.57128,20.5597Q7.61694,20.6273,7.67295,20.6866Q7.72896,20.7459,7.79385,20.7953Q7.8587299999999995,20.8448,7.93078,20.8831Q8.00282,20.9214,8.08012,20.9475Q8.157409999999999,20.9736,8.23791,20.9868Q8.31842,21,8.4,21L11.6,21Q11.69849,21,11.79509,20.9808Q11.89169,20.9616,11.98268,20.9239Q12.07368,20.8862,12.15557,20.8315Q12.23746,20.7767,12.30711,20.7071Q12.37675,20.6375,12.43147,20.5556Q12.48619,20.4737,12.52388,20.3827Q12.56157,20.2917,12.58078,20.1951Q12.6,20.0985,12.6,20ZM10.287880000000001,19L6.43788,5L5.31212,5L9.16212,19L10.287880000000001,19Z" fill-rule="evenodd" fill="#000000" fill-opacity="1"/></g><g><path d="M20.885009375,4.464834Q20.999609375,4.246544,20.999609375,4Q20.999609375,3.9015086,20.980389375,3.80491Q20.961179375,3.708311,20.923489375000003,3.617317Q20.885799374999998,3.526322,20.831079375,3.44443Q20.776359375,3.362537,20.706719375,3.292893Q20.637069375,3.223249,20.555179375,3.16853Q20.473289375,3.1138120000000002,20.382289375,3.076121Q20.291299375,3.03843,20.194699375,3.019215Q20.098099375,3,19.999609375,3Q19.862849375,3,19.731109375000003,3.036721Q19.599369375000002,3.073442,19.482329375,3.144186Q19.365279375,3.214931,19.271529375,3.314504Q19.177779375,3.414077,19.114209375,3.535166L10.714211375,19.5352Q10.599609375,19.753500000000003,10.599609375,20Q10.599609375,20.0985,10.618824374999999,20.1951Q10.638039375,20.2917,10.675730375,20.3827Q10.713421375,20.4737,10.768139375,20.5556Q10.822858375,20.6375,10.892502375,20.7071Q10.962146375,20.7767,11.044039375,20.8315Q11.125931375,20.8862,11.216926375,20.9239Q11.307920375,20.9616,11.404519375,20.9808Q11.501117975,21,11.599609375,21Q11.736371375,21,11.868111375,20.9633Q11.999851375,20.9266,12.116893375,20.8558Q12.233936375,20.7851,12.327686375,20.6855Q12.421435375,20.5859,12.485007375,20.4648L20.885009375,4.464834Z" fill-rule="evenodd" fill="#000000" fill-opacity="1"/></g></g></g></svg>