<svg xmlns="http://www.w3.org/2000/svg" xmlns:xlink="http://www.w3.org/1999/xlink" fill="none" version="1.1" width="24" height="24" viewBox="0 0 24 24"><defs><clipPath id="master_svg0_5621_193602"><rect x="0" y="0" width="24" height="24" rx="0"/></clipPath></defs><g clip-path="url(#master_svg0_5621_193602)"><g><path d="M15.749999927520753,6.000000476837158C15.749999927520753,8.071070476837157,14.071069927520751,9.750000476837158,11.99999992752075,9.750000476837158C9.928929927520752,9.750000476837158,8.249999927520753,8.071070476837157,8.249999927520753,6.000000476837158C8.249999927520753,3.9289304768371585,9.928929927520752,2.250000476837158,11.99999992752075,2.250000476837158C14.071069927520751,2.250000476837158,15.749999927520753,3.9289304768371585,15.749999927520753,6.000000476837158ZM4.635627927520752,18.814300476837158C5.302763927520752,15.348800476837159,8.350869927520751,12.740500476837159,11.99999992752075,12.740500476837159C15.649099927520751,12.740500476837159,18.69719992752075,15.348800476837159,19.36439992752075,18.814300476837158C19.514399927520753,19.593700476837157,19.03499992752075,20.342000476837157,18.291299927520754,20.619300476837157C16.282499927520753,21.36860047683716,14.152109927520751,21.75280047683716,12.001079927520752,21.750000476837158C12.00018992752075,21.750000476837158,11.999799927520751,21.750000476837158,11.998909927520753,21.750000476837158C9.784919927520752,21.74990047683716,7.664029927520752,21.35000047683716,5.704769927520752,20.61830047683716C4.961486927520752,20.340700476837156,4.485641827520752,19.593400476837157,4.635627927520752,18.814300476837158" fill="#165DFF" fill-opacity="1"/><path d="M15.181999927520751,2.8180194768371583Q13.863959927520751,1.5000004768371582,11.99999992752075,1.5000004768371582Q10.136039927520752,1.5000004768371582,8.818019927520751,2.8180194768371583Q7.4999999275207525,4.136040476837158,7.4999999275207525,6.000000476837158Q7.4999999275207525,7.863960476837158,8.818019927520751,9.181980476837158Q10.136039927520752,10.500000476837158,11.99999992752075,10.500000476837158Q13.863959927520751,10.500000476837158,15.181999927520751,9.181980476837158Q16.499999927520754,7.863960476837158,16.499999927520754,6.000000476837158Q16.499999927520754,4.136040476837158,15.181999927520751,2.8180194768371583ZM9.878679927520752,3.8786804768371583Q10.757359927520753,3.000000476837158,11.99999992752075,3.000000476837158Q13.242639927520752,3.000000476837158,14.121319927520751,3.8786804768371583Q14.999999927520753,4.7573604768371585,14.999999927520753,6.000000476837158Q14.999999927520753,7.242640476837158,14.121319927520751,8.121320476837159Q13.242639927520752,9.000000476837158,11.99999992752075,9.000000476837158Q10.757359927520753,9.000000476837158,9.878679927520752,8.121320476837159Q8.99999992752075,7.242640476837158,8.99999992752075,6.000000476837158Q8.99999992752075,4.7573604768371585,9.878679927520752,3.8786804768371583ZM5.442386927520752,21.32090047683716Q8.599149927520752,22.49980047683716,11.99886992752075,22.500000476837158L11.998909927520753,22.500000476837158L12.000109927520752,22.500000476837158Q15.383399927520752,22.50440047683716,18.55339992752075,21.322100476837157Q19.36269992752075,21.020200476837157,19.80379992752075,20.294800476837157Q20.26659992752075,19.533600476837158,20.10089992752075,18.672500476837158Q19.54609992752075,15.790700476837157,17.28069992752075,13.901800476837158Q14.988499927520753,11.990460476837159,11.99999992752075,11.990460476837159Q9.011509927520752,11.990460476837159,6.719259927520752,13.901800476837158Q4.453925727520752,15.790700476837157,3.899149927520752,18.672500476837158Q3.733508927520752,19.53300047683716,4.193686927520752,20.292900476837158Q4.633242927520752,21.018700476837157,5.442386927520752,21.32090047683716ZM11.998959927520751,21.000000476837158L11.998909927520753,21.000000476837158Q8.870129927520752,20.99980047683716,5.967159927520752,19.91570047683716Q5.239673927520752,19.644000476837157,5.372105927520752,18.956100476837157Q5.825679927520752,16.599900476837156,7.679869927520752,15.053800476837159Q9.554829927520752,13.490500476837159,11.99999992752075,13.490500476837159Q14.445169927520752,13.490500476837159,16.32009992752075,15.053800476837159Q18.17429992752075,16.599900476837156,18.62789992752075,18.956100476837157Q18.76029992752075,19.643900476837157,18.02919992752075,19.916600476837157Q15.113699927520752,21.00400047683716,12.002049927520751,21.000000476837158L11.998959927520751,21.000000476837158Z" fill-rule="evenodd" fill="#165DFF" fill-opacity="1"/></g></g></svg>